<svg width="144" height="60" viewBox="0 0 144 60" fill="none" xmlns="http://www.w3.org/2000/svg">
<path d="M81.2762 29.8991C81.2528 35.3402 84.737 39.2417 89.663 39.2909C94.7775 39.3418 98.4314 35.5187 98.439 30.1063C98.4472 24.7483 94.8857 20.9164 89.8755 20.8918C84.9612 20.8678 81.2985 24.7044 81.2762 29.8991ZM72.187 29.8253C72.1677 20.3094 80.1389 12.4998 89.8755 12.4939C99.7163 12.4875 107.503 20.2069 107.535 30.0009C107.568 39.9951 99.7971 47.6958 89.7098 47.6659C79.8707 47.6361 72.2069 39.8335 72.187 29.8253Z" fill="#F38820"/>
<path d="M45.9243 29.989C45.9384 35.4254 49.4594 39.2889 54.4006 39.2918C59.4911 39.2942 63.1509 35.3938 63.1058 30.0147C63.0607 24.6854 59.4208 20.8582 54.4281 20.891C49.5092 20.9226 45.9103 24.7727 45.9243 29.989ZM72.1769 30.0253C72.2167 39.9352 64.5224 47.6101 54.4949 47.6651C44.6253 47.7196 36.7895 39.8175 36.7783 29.7993C36.7684 20.3478 44.8273 12.4961 54.5417 12.4937C64.3731 12.4914 72.1376 20.2102 72.1769 30.0253Z" fill="#F38820"/>
<path d="M133.78 33.4066C132.549 37.2848 129.663 39.3453 125.768 39.264C121.749 39.1802 118.898 37.0143 117.911 32.9986C116.912 28.9326 117.261 25.0094 120.507 21.9753C125.013 17.7629 132.387 20.2602 133.976 26.4623C134.238 27.4832 134.308 28.5533 134.489 29.7463C134.274 30.8977 134.164 32.1955 133.78 33.4066ZM140.89 20.0231C136.404 11.7066 126.856 9.21523 118.791 13.9931C118.611 14.0991 118.399 14.1482 118.089 14.2671L117.873 12.9558C117.821 12.6409 117.548 12.4096 117.228 12.4096H109.45C109.169 12.4096 108.941 12.6374 108.941 12.9189V52.8296C108.941 53.0028 109.025 53.1656 109.167 53.2651L117.472 59.9302C117.677 60.0953 117.982 59.9489 117.982 59.6855V45.4912C118.681 45.8149 119.171 46.0368 119.657 46.2674C127.099 49.799 136.078 47.3861 140.333 40.4622C144.41 33.8269 144.574 26.8504 140.89 20.0231Z" fill="#F38820"/>
<path d="M10.4976 25.9525C11.7287 22.0744 14.6152 20.0138 18.5103 20.0952C22.5289 20.1783 25.3803 22.3442 26.3673 26.3605C27.3659 30.4266 27.017 34.3498 23.7711 37.3832C19.2649 41.5962 11.8914 39.0984 10.3021 32.8969C10.0398 31.876 9.9696 30.8059 9.78872 29.6129C10.0041 28.4614 10.113 27.1631 10.4976 25.9525ZM3.387 39.3361C7.87394 47.6525 17.4221 50.1439 25.4874 45.3661C25.6666 45.2595 25.8791 45.2109 26.1887 45.0921L26.4955 47.7386H35.3371V6.52959C35.3371 6.35574 35.2528 6.19358 35.1111 6.09348L26.5142 0.0254364C26.4229 -0.0395432 26.2959 0.0260201 26.2959 0.138416V13.8679C25.5969 13.5442 25.1069 13.3223 24.6205 13.0917C17.1791 9.56011 8.2 11.973 3.94546 18.8969C-0.131716 25.5322 -0.295623 32.5088 3.387 39.3361Z" fill="#F38820"/>
<path d="M81.2763 29.8995C81.2892 26.7941 82.6104 24.1815 84.716 22.5817V22.4634H64.209V37.6968H84.716V37.6324C82.57 35.9869 81.2623 33.235 81.2763 29.8995Z" fill="#F38820"/>
<path d="M83.8755 23.3912H69.5624C68.8049 23.3912 68.1914 24.0052 68.1914 24.7627C68.1914 25.5202 68.8049 26.1343 69.5624 26.1343H82.0462C82.4887 25.0859 83.1086 24.1592 83.8755 23.3912Z" fill="white"/>
<path d="M81.2767 29.9781C81.2784 29.504 81.3211 29.0462 81.382 28.5966H66.2324C65.4749 28.5966 64.8608 29.2107 64.8608 29.9682C64.8608 30.7257 65.4749 31.3397 66.2324 31.3397H81.3563C81.3077 30.8966 81.2749 30.4453 81.2767 29.9781Z" fill="white"/>
<path d="M82.003 34.0263H69.5625C68.805 34.0263 68.1909 34.6404 68.1909 35.3979C68.1909 36.1553 68.805 36.7694 69.5625 36.7694H83.6859C82.9782 35.9961 82.411 35.0701 82.003 34.0263Z" fill="white"/>
</svg>
