<svg width="18" height="16" viewBox="0 0 18 16" fill="none" xmlns="http://www.w3.org/2000/svg">
<path d="M3.99902 9.875V9.125C3.58481 9.125 3.24902 9.46079 3.24902 9.875H3.99902ZM13.999 9.875H14.749C14.749 9.46079 14.4132 9.125 13.999 9.125V9.875ZM13.999 15.1875V15.9375C14.4132 15.9375 14.749 15.6017 14.749 15.1875H13.999ZM3.99902 15.1875H3.24902C3.24902 15.6017 3.58481 15.9375 3.99902 15.9375V15.1875ZM3.99902 12.5C4.41324 12.5 4.74902 12.1642 4.74902 11.75C4.74902 11.3358 4.41324 11 3.99902 11V12.5ZM1.18652 11.75H0.436523C0.436523 12.1642 0.77231 12.5 1.18652 12.5L1.18652 11.75ZM16.8115 11.75V12.5C17.2257 12.5 17.5615 12.1642 17.5615 11.75H16.8115ZM13.999 11C13.5848 11 13.249 11.3358 13.249 11.75C13.249 12.1642 13.5848 12.5 13.999 12.5V11ZM3.24901 4.25C3.24901 4.66421 3.5848 5 3.99901 5C4.41323 5 4.74901 4.66421 4.74901 4.25H3.24901ZM3.99901 1.125V0.375C3.5848 0.375 3.24901 0.710786 3.24901 1.125L3.99901 1.125ZM13.999 1.125H14.749C14.749 0.710786 14.4132 0.375 13.999 0.375V1.125ZM13.249 4.25C13.249 4.66421 13.5848 5 13.999 5C14.4132 5 14.749 4.66421 14.749 4.25H13.249ZM3.99902 10.625H13.999V9.125H3.99902V10.625ZM13.249 9.875V15.1875H14.749V9.875H13.249ZM13.999 14.4375H3.99902V15.9375H13.999V14.4375ZM4.74902 15.1875V9.875H3.24902V15.1875H4.74902ZM3.99902 11H1.18652V12.5H3.99902V11ZM1.93652 11.75V5.5H0.436523V11.75H1.93652ZM1.93652 5.5C1.93652 5.27925 2.14936 5 2.54069 5V3.5C1.43624 3.5 0.436523 4.34004 0.436523 5.5H1.93652ZM2.54069 5H15.4574V3.5H2.54069V5ZM15.4574 5C15.8487 5 16.0615 5.27925 16.0615 5.5H17.5615C17.5615 4.34004 16.5618 3.5 15.4574 3.5V5ZM16.0615 5.5V11.75H17.5615V5.5H16.0615ZM16.8115 11H13.999V12.5H16.8115V11ZM13.687 8.75C14.619 8.75 15.3745 7.99448 15.3745 7.0625H13.8745C13.8745 7.16605 13.7905 7.25 13.687 7.25V8.75ZM15.3745 7.0625C15.3745 6.13052 14.619 5.375 13.687 5.375V6.875C13.7905 6.875 13.8745 6.95895 13.8745 7.0625H15.3745ZM13.687 5.375C12.755 5.375 11.9995 6.13052 11.9995 7.0625H13.4995C13.4995 6.95895 13.5834 6.875 13.687 6.875V5.375ZM11.9995 7.0625C11.9995 7.99448 12.755 8.75 13.687 8.75V7.25C13.5834 7.25 13.4995 7.16605 13.4995 7.0625H11.9995ZM4.74901 4.25V1.125H3.24901V4.25H4.74901ZM3.99901 1.875H13.999V0.375H3.99901V1.875ZM13.249 1.125V4.25H14.749V1.125H13.249Z" fill="white"/>
</svg>
