<svg width="32" height="32" viewBox="0 0 32 32" fill="none" xmlns="http://www.w3.org/2000/svg">
<path d="M21.4028 7.90334C21.1097 7.82269 20.798 7.8418 20.5169 7.95766C20.2357 8.07351 20.0011 8.27954 19.8498 8.54334L19.8458 8.55034L18.9458 10.1093C18.9428 10.1153 18.9398 10.1183 18.9298 10.1183C18.9198 10.1183 18.9178 10.1153 18.9138 10.1093L17.2448 7.21834C16.9948 6.78434 16.5448 6.52434 16.0418 6.52434C15.5388 6.52434 15.0888 6.78334 14.8388 7.21834L13.1698 10.1093C13.1668 10.1153 13.1638 10.1183 13.1538 10.1183C13.1438 10.1183 13.1418 10.1153 13.1378 10.1093L12.1968 8.47834C12.0458 8.21261 11.8106 8.0047 11.5283 7.88738C11.246 7.77006 10.9328 7.74999 10.6378 7.83034L10.6478 7.82834C10.3541 7.90186 10.0928 8.07032 9.90454 8.30755C9.71631 8.54479 9.61166 8.83753 9.60685 9.14034V10.6163C9.60685 12.2353 10.2408 13.7633 11.3938 14.9133C12.4291 15.9588 13.8108 16.5898 15.2788 16.6873L15.2968 16.6883L15.2938 16.7383L15.3098 26.7723C15.3101 26.9543 15.3826 27.1287 15.5115 27.2571C15.6403 27.3856 15.8149 27.4576 15.9968 27.4573C16.1788 27.4571 16.3532 27.3845 16.4816 27.2557C16.6101 27.1269 16.6821 26.9523 16.6818 26.7703V26.7683L16.6658 16.7343C16.6658 16.7183 16.6658 16.7033 16.6628 16.6903C18.1648 16.6133 19.5841 15.9794 20.6438 14.9123C21.2112 14.3513 21.6614 13.6832 21.9683 12.9467C22.2753 12.2103 22.4328 11.4202 22.4318 10.6223V9.23034C22.4314 8.92773 22.3311 8.63372 22.1465 8.39396C21.9619 8.15419 21.7033 7.98208 21.4108 7.90434L21.4008 7.90234L21.4028 7.90334ZM16.3468 15.3283H15.6908C14.4413 15.327 13.2433 14.83 12.3597 13.9465C11.4761 13.0629 10.9792 11.8649 10.9778 10.6153V9.15934C10.9859 9.15618 10.9943 9.15416 11.0028 9.15334C11.0028 9.15634 11.0058 9.15934 11.0088 9.16234L11.9498 10.7933C12.1998 11.2273 12.6498 11.4873 13.1528 11.4873C13.6558 11.4873 14.1058 11.2283 14.3558 10.7933L16.0248 7.90234C16.0278 7.89634 16.0308 7.89334 16.0408 7.89334C16.0508 7.89334 16.0528 7.89634 16.0568 7.90234L17.7258 10.7933C17.9758 11.2273 18.4258 11.4873 18.9288 11.4873C19.4318 11.4873 19.8818 11.2283 20.1318 10.7933L21.0318 9.23434C21.0348 9.23134 21.0348 9.22834 21.0348 9.22834C21.0408 9.22834 21.0468 9.23134 21.0538 9.23134V10.6183C21.0538 11.8668 20.5582 13.0642 19.6757 13.9474C18.7933 14.8306 17.5963 15.3273 16.3478 15.3283H16.3468ZM24.7438 1.94434H7.27485C5.86114 1.94487 4.50549 2.50669 3.50585 3.50634C2.50621 4.50598 1.94438 5.86163 1.94385 7.27534V24.7443C1.94438 26.158 2.50621 27.5137 3.50585 28.5133C4.50549 29.513 5.86114 30.0748 7.27485 30.0753H24.7438C26.1577 30.0753 27.5137 29.5137 28.5134 28.5139C29.5132 27.5142 30.0748 26.1582 30.0748 24.7443V7.27534C30.0743 5.86163 29.5125 4.50598 28.5128 3.50634C27.5132 2.50669 26.1576 1.94487 24.7438 1.94434ZM28.6998 24.7443C28.6996 25.7934 28.2827 26.7995 27.5409 27.5414C26.799 28.2832 25.793 28.7001 24.7438 28.7003H7.27485C6.22573 28.7001 5.21966 28.2832 4.47783 27.5414C3.73599 26.7995 3.31911 25.7934 3.31885 24.7443V7.27534C3.31911 6.22622 3.73599 5.22015 4.47783 4.47831C5.21966 3.73648 6.22573 3.3196 7.27485 3.31934H24.7438C25.793 3.3196 26.799 3.73648 27.5409 4.47831C28.2827 5.22015 28.6996 6.22622 28.6998 7.27534V24.7443ZM11.2528 17.9443C11.1731 17.8928 11.0835 17.8585 10.9897 17.8434C10.896 17.8284 10.8001 17.833 10.7083 17.857C10.6164 17.881 10.5305 17.9238 10.4561 17.9827C10.3816 18.0417 10.3203 18.1154 10.2758 18.1993L10.2738 18.2033C10.1959 18.3549 10.1769 18.5299 10.2205 18.6947C10.2641 18.8594 10.3672 19.0022 10.5098 19.0953L10.5128 19.0973C12.1938 20.1993 13.2878 22.0753 13.2878 24.2063V24.8643C13.2878 25.0457 13.3599 25.2197 13.4882 25.348C13.6165 25.4763 13.7904 25.5483 13.9718 25.5483C14.1533 25.5483 14.3272 25.4763 14.4555 25.348C14.5838 25.2197 14.6558 25.0457 14.6558 24.8643V24.2113C14.6558 22.7523 14.2358 21.3913 13.5098 20.2423L13.5278 20.2733C12.954 19.3502 12.1875 18.5619 11.2808 17.9623L11.2528 17.9453V17.9443ZM20.6658 17.7343C19.7574 18.3302 18.9869 19.1134 18.4058 20.0313L18.3878 20.0623C17.6468 21.2415 17.2556 22.6067 17.2598 23.9993V24.6563C17.2598 24.8377 17.3319 25.0117 17.4602 25.14C17.5885 25.2683 17.7624 25.3403 17.9438 25.3403C18.1253 25.3403 18.2992 25.2683 18.4275 25.14C18.5558 25.0117 18.6278 24.8377 18.6278 24.6563V24.0003V23.9983C18.627 22.987 18.8782 21.9914 19.3587 21.1015C19.8392 20.2116 20.5338 19.4554 21.3798 18.9013L21.4028 18.8873C21.5469 18.7938 21.6508 18.65 21.6945 18.484C21.7381 18.3179 21.7183 18.1415 21.6388 17.9893L21.6408 17.9933C21.5973 17.9085 21.5364 17.8337 21.462 17.7739C21.3877 17.7142 21.3016 17.6707 21.2093 17.6464C21.1171 17.622 21.0208 17.6174 20.9266 17.6327C20.8325 17.648 20.7426 17.683 20.6628 17.7353L20.6658 17.7333V17.7343Z" fill="#666666" stroke="#666666" stroke-width="0.5"/>
</svg>
