<svg width="24" height="24" viewBox="0 0 24 24" fill="none" xmlns="http://www.w3.org/2000/svg">
<path d="M19.5 12.0004V18.7504C19.5 18.9493 19.421 19.14 19.2803 19.2807C19.1397 19.4213 18.9489 19.5004 18.75 19.5004H5.25C5.05109 19.5004 4.86032 19.4213 4.71967 19.2807C4.57902 19.14 4.5 18.9493 4.5 18.7504V12.0004M12 7.50035V19.5004M12 7.50035C12 7.50035 15.182 7.50035 16.2426 6.43969C16.6642 6.01765 16.9009 5.44548 16.9007 4.84897C16.9006 4.25245 16.6635 3.68042 16.2417 3.25862C15.8199 2.83682 15.2479 2.59978 14.6514 2.59961C14.0549 2.59944 13.4827 2.83615 13.0607 3.25771C12 4.31837 12 7.50035 12 7.50035ZM12 7.50035C12 7.50035 8.81802 7.50035 7.75736 6.43969C7.3358 6.01765 7.09909 5.44548 7.09926 4.84897C7.09942 4.25245 7.33647 3.68042 7.75827 3.25862C8.18007 2.83682 8.7521 2.59978 9.34862 2.59961C9.94513 2.59944 10.5173 2.83615 10.9393 3.25771C12 4.31837 12 7.50035 12 7.50035ZM3.75 7.50035H20.25C20.6642 7.50035 21 7.83614 21 8.25035V11.2504C21 11.6646 20.6642 12.0004 20.25 12.0004H3.75C3.33579 12.0004 3 11.6646 3 11.2504V8.25035C3 7.83614 3.33579 7.50035 3.75 7.50035Z" stroke="#3355FF" stroke-width="1.5" stroke-linecap="round" stroke-linejoin="round"/>
</svg>
