<svg width="25" height="24" viewBox="0 0 25 24" fill="none" xmlns="http://www.w3.org/2000/svg">
<path d="M22.3418 6.218C22.2417 5.98356 22.0978 5.7704 21.9178 5.59C21.732 5.40307 21.511 5.25471 21.2677 5.15346C21.0243 5.05221 20.7633 5.00005 20.4998 5H8.49977C8.20277 5 7.92177 5.132 7.73077 5.359L2.73077 11.359C2.42177 11.73 2.42177 12.269 2.73077 12.64L7.73077 18.64C7.92177 18.868 8.20277 19 8.49977 19H20.4998C20.7616 19.001 21.021 18.9501 21.2631 18.8502C21.5051 18.7503 21.7249 18.6034 21.9098 18.418C22.0967 18.2322 22.2451 18.0112 22.3463 17.7679C22.4476 17.5245 22.4997 17.2636 22.4998 17V7C22.4998 6.73467 22.4471 6.474 22.3418 6.218ZM18.2068 14.293L16.7928 15.707L14.4998 13.414L12.2068 15.707L10.7928 14.293L13.0858 12L10.7928 9.707L12.2068 8.293L14.4998 10.586L16.7928 8.293L18.2068 9.707L15.9138 12L18.2068 14.293Z" fill="#E92215"/>
</svg>
