<svg width="28" height="28" viewBox="0 0 28 28" fill="none" xmlns="http://www.w3.org/2000/svg">
<path d="M14.75 7.875C14.75 7.46079 14.4142 7.125 14 7.125C13.5858 7.125 13.25 7.46079 13.25 7.875H14.75ZM14 14H13.25C13.25 14.4142 13.5858 14.75 14 14.75V14ZM20.125 14.75C20.5392 14.75 20.875 14.4142 20.875 14C20.875 13.5858 20.5392 13.25 20.125 13.25V14.75ZM23.75 14C23.75 19.3848 19.3848 23.75 14 23.75V25.25C20.2132 25.25 25.25 20.2132 25.25 14H23.75ZM14 23.75C8.61522 23.75 4.25 19.3848 4.25 14H2.75C2.75 20.2132 7.7868 25.25 14 25.25V23.75ZM4.25 14C4.25 8.61522 8.61522 4.25 14 4.25V2.75C7.7868 2.75 2.75 7.7868 2.75 14H4.25ZM14 4.25C19.3848 4.25 23.75 8.61522 23.75 14H25.25C25.25 7.7868 20.2132 2.75 14 2.75V4.25ZM13.25 7.875V14H14.75V7.875H13.25ZM14 14.75H20.125V13.25H14V14.75Z" fill="#333333"/>
</svg>
