<svg width="232" height="200" viewBox="0 0 232 200" fill="none" xmlns="http://www.w3.org/2000/svg">
<g style="mix-blend-mode:luminosity" opacity="0.5">
<path d="M90.279 159.114L89.079 40.9678L71.6123 49.3678L72.679 160.436L90.279 161.102V159.114Z" fill="url(#paint0_linear_547_29504)"/>
<path d="M54.5454 159.381L55.6121 40.9678L71.4787 47.1011V160.036H54.5454V159.381Z" fill="url(#paint1_linear_547_29504)"/>
<path d="M71.4785 160.036V48.3025" stroke="#5D83FF" strokeWidth="3.36" stroke-miterlimit="10"/>
<path d="M55.6123 159.902V40.969" stroke="#5D83FF" strokeWidth="3.36" stroke-miterlimit="10"/>
<path d="M89.0786 86.969V40.969" stroke="#5D83FF" strokeWidth="3.36" stroke-miterlimit="10"/>
<path d="M55.6123 40.9678L71.6123 49.5011L89.079 40.9678L74.5456 32.9678L55.6123 40.9678Z" fill="url(#paint2_linear_547_29504)" stroke="#5D83FF" strokeWidth="3.36" strokeLinecap="round" strokeLinejoin="round"/>
<path d="M54.1457 57.1025C53.058 56.8719 51.9552 56.7195 50.8457 56.6465" stroke="#FE9F39" strokeWidth="4.48" stroke-miterlimit="10"/>
<path d="M45.5789 56.8091C41.1896 57.4571 36.3883 59.6464 34.5456 65.7691C30.8123 78.1691 61.4789 77.7691 72.1456 74.8358C72.1456 74.8358 161.02 40.0118 182.812 78.0358C202.146 111.769 167.746 127.769 167.746 127.769C167.746 127.769 145.055 137.902 106.412 131.902C72.9456 126.702 68.8123 143.769 70.1456 150.569C71.2336 156.118 76.8523 159.182 85.1163 160.12" stroke="#FE9F39" strokeWidth="4.48" stroke-miterlimit="10" stroke-dasharray="9.24 7.39"/>
<path d="M87.7456 160.343C88.8203 160.406 89.9314 160.437 91.0789 160.436" stroke="#FE9F39" strokeWidth="4.48" stroke-miterlimit="10"/>
<path d="M115.745 159.381L115.212 89.6345L97.7451 97.5012L98.1451 160.703L115.745 161.369V159.381Z" fill="url(#paint3_linear_547_29504)"/>
<path d="M80.6782 159.781L81.7449 89.6345L97.6116 95.7679V160.436H80.6782V159.781Z" fill="url(#paint4_linear_547_29504)"/>
<path d="M97.478 160.436V96.7026" stroke="#5D83FF" strokeWidth="3.36" stroke-miterlimit="10"/>
<path d="M81.6113 161.502V89.3691" stroke="#5D83FF" strokeWidth="3.36" stroke-miterlimit="10"/>
<path d="M115.078 161.502V89.3691" stroke="#5D83FF" strokeWidth="3.36" stroke-miterlimit="10"/>
<path d="M81.6113 89.3679L97.6113 97.9013L115.078 89.3679L100.545 81.3679L81.6113 89.3679Z" fill="url(#paint5_linear_547_29504)" stroke="#5D83FF" strokeWidth="3.36" strokeLinecap="round" strokeLinejoin="round"/>
<path d="M167.746 198.048L167.212 128.301L149.746 136.168L150.146 160.169L167.746 160.836V198.048Z" fill="url(#paint6_linear_547_29504)"/>
<path d="M132.679 160.581L133.745 128.301L149.612 134.434V161.236H132.679V160.581Z" fill="url(#paint7_linear_547_29504)" stroke="#5D83FF" strokeWidth="3.36" stroke-miterlimit="10"/>
<path d="M149.345 161.102V135.369" stroke="#5D83FF" strokeWidth="3.36" stroke-miterlimit="10"/>
<path d="M133.479 161.102V128.036" stroke="#5D83FF" strokeWidth="3.36" stroke-miterlimit="10"/>
<path d="M166.945 161.102V128.169" stroke="#5D83FF" strokeWidth="3.36" stroke-miterlimit="10"/>
<path d="M133.479 128.168L149.479 136.702L166.945 128.168L152.412 120.168L133.479 128.168Z" fill="url(#paint8_linear_547_29504)" stroke="#5D83FF" strokeWidth="3.36" strokeLinecap="round" strokeLinejoin="round"/>
<path d="M149.455 98.9225C148.521 95.6585 148.521 91.8639 149.947 88.7345C151.301 85.7705 154.315 83.2865 157.725 84.3172C159.681 84.9079 162.848 87.7745 160.525 89.6919C159.927 90.1879 159.243 90.1265 158.721 89.5585C158.176 88.9652 158.055 88.2532 158.284 87.4999C158.825 85.6785 160.269 84.0692 161.617 82.7852C163.073 81.4306 164.758 80.3469 166.595 79.5852C168.763 78.6625 171.217 78.1305 173.54 78.7439C174.703 79.0505 175.199 77.2505 174.036 76.9439C169.407 75.7212 164.131 78.0279 160.692 81.0985C158.959 82.6519 157.225 84.6625 156.508 86.9199C155.859 88.9745 157.015 91.5732 159.308 91.8812C161.357 92.1559 163.084 90.1852 163.163 88.2519C163.232 86.5292 162.132 84.9185 160.833 83.8945C160.036 83.2529 159.117 82.7792 158.132 82.5019C157.146 82.2247 156.115 82.1496 155.1 82.2812C152.967 82.5772 151.044 83.8652 149.723 85.5359C146.709 89.3452 146.351 94.8772 147.649 99.4172C147.979 100.569 149.783 100.084 149.449 98.9212L149.455 98.9225Z" fill="url(#paint9_linear_547_29504)"/>
<path d="M191.945 52.3679L183.279 65.1679L197.279 57.3013L191.945 52.3679Z" fill="#D3DCF4"/>
<path d="M203.678 65.7012L186.745 67.9678L203.278 73.5678L203.678 65.7012Z" fill="#D3DCF4"/>
<path d="M199.145 167.103H28.7451C27.9502 167.1 27.1886 166.783 26.6265 166.221C26.0644 165.659 25.7476 164.897 25.7451 164.103C25.7472 163.308 26.064 162.546 26.6261 161.984C27.1883 161.421 27.9501 161.105 28.7451 161.103H199.145C199.94 161.105 200.702 161.421 201.264 161.984C201.826 162.546 202.143 163.308 202.145 164.103C202.143 164.897 201.826 165.659 201.264 166.221C200.702 166.783 199.94 167.1 199.145 167.103Z" stroke="#D3DCF4" strokeWidth="3.73333" stroke-miterlimit="10"/>
<path d="M150.545 172.569H160.525C163.661 172.569 166.876 172.347 169.999 172.683C170.981 172.789 172.141 172.876 173.043 173.363C173.887 173.817 173.765 174.54 173.432 175.299C172.955 176.385 172.445 177.389 172.528 178.613C172.617 179.919 173.692 180.441 174.861 180.688C178.328 181.419 181.976 180.944 185.479 180.837C187.02 180.789 187.027 178.389 185.479 178.437C182.304 178.533 179.064 178.919 175.901 178.448C175.796 178.432 174.536 178.048 174.547 178.036C174.488 178.089 175.059 178.504 174.928 178.613C174.933 178.511 174.93 178.409 174.919 178.308C174.92 178.051 174.965 177.795 175.052 177.553C175.388 176.517 176.031 175.635 176.108 174.516C176.305 171.669 173.381 170.735 171.119 170.427C168.001 170.003 164.852 170.171 161.707 170.169H150.545C149.001 170.169 148.999 172.569 150.545 172.569Z" fill="#D3DCF4"/>
<path d="M50.8118 173.636H85.4785C87.0225 173.636 87.0252 171.236 85.4785 171.236H50.8118C49.2678 171.236 49.2652 173.636 50.8118 173.636Z" fill="#D3DCF4"/>
<path opacity="0.3" d="M41.406 162.172L37.026 159.649C36.6966 159.46 36.7393 159.127 37.1193 158.907L41.286 156.507C41.6673 156.288 42.2513 156.264 42.5726 156.455L46.9513 158.976C47.282 159.166 47.2406 159.499 46.8593 159.719L42.694 162.119C42.3113 162.339 41.7366 162.363 41.406 162.172Z" fill="#A0B3F8"/>
<path d="M47.1662 157.237C47.1675 157.224 47.1675 157.21 47.1662 157.197V141.733H36.8115V157.25C36.8162 157.319 36.8392 157.385 36.8782 157.441C36.9171 157.498 36.9705 157.543 37.0329 157.572L41.4129 160.093C41.7435 160.284 42.3182 160.254 42.6982 160.041L46.8569 157.641C46.9355 157.605 47.0048 157.552 47.0592 157.485C47.1136 157.418 47.1516 157.339 47.1702 157.254L47.1662 157.237Z" fill="url(#paint10_linear_547_29504)"/>
<path d="M41.406 144.6L37.026 142.078C36.6966 141.889 36.7393 141.557 37.1193 141.337L41.278 138.937C41.6593 138.718 42.2433 138.694 42.5646 138.884L46.9446 141.409C47.2753 141.6 47.234 141.932 46.8526 142.152L42.694 144.552C42.3113 144.765 41.7366 144.789 41.406 144.6Z" fill="url(#paint11_linear_547_29504)"/>
<path opacity="0.3" d="M180.239 163.386L175.867 160.865C175.545 160.674 175.579 160.342 175.959 160.124L180.112 157.724C180.492 157.504 181.075 157.48 181.395 157.67L185.768 160.192C186.099 160.382 186.056 160.714 185.676 160.933L181.524 163.333C181.144 163.546 180.569 163.574 180.239 163.386Z" fill="#C9CFE5"/>
<path d="M185.99 158.453C185.992 158.44 185.992 158.426 185.99 158.413V112.68H175.645V158.464C175.65 158.532 175.673 158.598 175.712 158.654C175.751 158.71 175.804 158.755 175.866 158.784L180.238 161.305C180.569 161.494 181.144 161.465 181.522 161.25L185.674 158.85C185.753 158.815 185.822 158.761 185.876 158.694C185.931 158.628 185.969 158.549 185.988 158.465L185.99 158.453Z" fill="url(#paint12_linear_547_29504)"/>
<path d="M180.239 115.548L175.867 113.028C175.545 112.837 175.579 112.505 175.959 112.285L180.112 109.892C180.492 109.672 181.075 109.648 181.395 109.837C181.61 109.962 183.067 110.803 185.768 112.358C186.099 112.548 186.056 112.88 185.676 113.1L181.524 115.5C181.144 115.714 180.569 115.733 180.239 115.548Z" fill="#FAFBFD"/>
<path opacity="0.3" d="M191.87 170.224L182.804 165C182.118 164.6 182.204 163.919 182.994 163.464L191.606 158.503C192.396 158.047 193.589 157.999 194.273 158.392L203.34 163.616C204.022 164.016 203.937 164.697 203.148 165.152L194.534 170.113C193.745 170.569 192.554 170.617 191.87 170.224Z" fill="#A0B3F8"/>
<path d="M203.8 160.807C203.802 160.779 203.802 160.751 203.8 160.723V141.067H182.344V160.828C182.344 161.076 182.494 161.309 182.805 161.495L191.872 166.717C192.554 167.117 193.749 167.063 194.538 166.607L203.153 161.645C203.553 161.416 203.769 161.125 203.796 160.845L203.8 160.807Z" fill="url(#paint13_linear_547_29504)"/>
<path d="M191.87 147.008L182.804 141.78C182.118 141.38 182.204 140.697 182.994 140.244L191.606 135.272C192.396 134.819 193.59 134.769 194.273 135.164L203.34 140.387C204.022 140.78 203.937 141.468 203.149 141.923L194.534 146.893C193.745 147.353 192.554 147.403 191.87 147.008Z" fill="url(#paint14_linear_547_29504)"/>
</g>
<defs>
<linearGradient id="paint0_linear_547_29504" x1="90.279" y1="101.036" x2="71.6123" y2="101.036" gradientUnits="userSpaceOnUse">
<stop stop-color="#EBF4FF"/>
<stop offset="1" stop-color="#EBEBFF"/>
</linearGradient>
<linearGradient id="paint1_linear_547_29504" x1="54.5454" y1="100.502" x2="71.4787" y2="100.502" gradientUnits="userSpaceOnUse">
<stop stop-color="#EBF4FF"/>
<stop offset="1" stop-color="#EBE1FF"/>
</linearGradient>
<linearGradient id="paint2_linear_547_29504" x1="55.6123" y1="41.2358" x2="89.079" y2="41.2358" gradientUnits="userSpaceOnUse">
<stop stop-color="#EBF4FF"/>
<stop offset="1" stop-color="#EBEBFF"/>
</linearGradient>
<linearGradient id="paint3_linear_547_29504" x1="115.745" y1="125.503" x2="97.7451" y2="125.503" gradientUnits="userSpaceOnUse">
<stop stop-color="#EBF4FF"/>
<stop offset="1" stop-color="#EBEBFF"/>
</linearGradient>
<linearGradient id="paint4_linear_547_29504" x1="80.6782" y1="125.036" x2="97.6116" y2="125.036" gradientUnits="userSpaceOnUse">
<stop stop-color="#EBF4FF"/>
<stop offset="1" stop-color="#EBE1FF"/>
</linearGradient>
<linearGradient id="paint5_linear_547_29504" x1="81.6113" y1="89.6359" x2="115.078" y2="89.6359" gradientUnits="userSpaceOnUse">
<stop stop-color="#EBF4FF"/>
<stop offset="1" stop-color="#EBEBFF"/>
</linearGradient>
<linearGradient id="paint6_linear_547_29504" x1="167.746" y1="163.174" x2="149.746" y2="163.174" gradientUnits="userSpaceOnUse">
<stop stop-color="#EBF4FF"/>
<stop offset="1" stop-color="#EBEBFF"/>
</linearGradient>
<linearGradient id="paint7_linear_547_29504" x1="132.679" y1="144.769" x2="149.612" y2="144.769" gradientUnits="userSpaceOnUse">
<stop stop-color="#EBF4FF"/>
<stop offset="1" stop-color="#EBE1FF"/>
</linearGradient>
<linearGradient id="paint8_linear_547_29504" x1="133.479" y1="128.436" x2="166.945" y2="128.436" gradientUnits="userSpaceOnUse">
<stop stop-color="#EBF4FF"/>
<stop offset="1" stop-color="#EBEBFF"/>
</linearGradient>
<linearGradient id="paint9_linear_547_29504" x1="147.8" y1="88.3439" x2="173.816" y2="88.3439" gradientUnits="userSpaceOnUse">
<stop stop-color="#EBF4FF"/>
<stop offset="1" stop-color="#EBEBFF"/>
</linearGradient>
<linearGradient id="paint10_linear_547_29504" x1="38.3826" y1="151.621" x2="48.6797" y2="151.621" gradientUnits="userSpaceOnUse">
<stop stop-color="#548FFF"/>
<stop offset="1" stop-color="#949FFF"/>
</linearGradient>
<linearGradient id="paint11_linear_547_29504" x1="36.8046" y1="141.744" x2="47.1673" y2="141.744" gradientUnits="userSpaceOnUse">
<stop stop-color="#EBF4FF"/>
<stop offset="1" stop-color="#EBEBFF"/>
</linearGradient>
<linearGradient id="paint12_linear_547_29504" x1="175.625" y1="137.69" x2="185.985" y2="137.69" gradientUnits="userSpaceOnUse">
<stop stop-color="#EAEFF5"/>
<stop offset="0.99" stop-color="#DEE1F0"/>
</linearGradient>
<linearGradient id="paint13_linear_547_29504" x1="183.597" y1="154.806" x2="204.834" y2="154.806" gradientUnits="userSpaceOnUse">
<stop stop-color="#548FFF"/>
<stop offset="1" stop-color="#949FFF"/>
</linearGradient>
<linearGradient id="paint14_linear_547_29504" x1="182.342" y1="141.085" x2="203.804" y2="141.085" gradientUnits="userSpaceOnUse">
<stop stop-color="#EBF4FF"/>
<stop offset="1" stop-color="#EBEBFF"/>
</linearGradient>
</defs>
</svg>
