<svg width="24" height="24" viewBox="0 0 24 24" fill="none" xmlns="http://www.w3.org/2000/svg">
<path d="M0.75 22.8516H22.725" stroke="#333333" stroke-width="1.5" stroke-linecap="round" stroke-linejoin="round"/>
<path d="M2.0249 20.1504C2.42839 17.8519 3.62496 15.7677 5.40639 14.2603C7.18783 12.753 9.44137 11.9179 11.7749 11.9004C14.1037 11.9058 16.3548 12.7383 18.1269 14.2493C19.8989 15.7604 21.0766 17.8517 21.4499 20.1504" stroke="#333333" stroke-width="1.5" stroke-linecap="round" stroke-linejoin="round"/>
<path d="M11.7747 11.8258C12.8517 11.8258 13.7247 10.9527 13.7247 9.87579C13.7247 8.79883 12.8517 7.92578 11.7747 7.92578C10.6978 7.92578 9.82471 8.79883 9.82471 9.87579C9.82471 10.9527 10.6978 11.8258 11.7747 11.8258Z" stroke="#333333" stroke-width="1.5" stroke-linecap="round" stroke-linejoin="round"/>
<path d="M11.7749 2V4.77499" stroke="#333333" stroke-width="1.5" stroke-linecap="round" stroke-linejoin="round"/>
<path d="M6 3.875V6.575" stroke="#333333" stroke-width="1.5" stroke-linecap="round" stroke-linejoin="round"/>
<path d="M17.5498 3.875V6.575" stroke="#333333" stroke-width="1.5" stroke-linecap="round" stroke-linejoin="round"/>
</svg>
