<svg width="14" height="18" viewBox="0 0 14 18" fill="none" xmlns="http://www.w3.org/2000/svg">
<path d="M8.87488 1.5H1.37427C1.20851 1.5 1.04954 1.56585 0.932326 1.68306C0.815115 1.80027 0.749268 1.95924 0.749268 2.125V15.875C0.749268 16.0408 0.815115 16.1997 0.932326 16.3169C1.04954 16.4342 1.20851 16.5 1.37427 16.5H12.6249C12.707 16.5 12.7882 16.4838 12.8641 16.4524C12.9399 16.421 13.0088 16.375 13.0668 16.3169C13.1249 16.2589 13.1709 16.19 13.2023 16.1142C13.2337 16.0384 13.2499 15.9571 13.2499 15.875V5.875M8.87488 1.5L13.2499 5.875M8.87488 1.5V5.875H13.2499M4.81238 11.1875L6.99988 13.375M6.99988 13.375L9.18738 11.1875M6.99988 13.375V8.375" stroke="#3355FF" strokeWidth="1.5" strokeLinecap="round" strokeLinejoin="round"/>
</svg>
