<svg width="200" height="200" viewBox="0 0 200 200" fill="none" xmlns="http://www.w3.org/2000/svg">
<path d="M12.3633 100.098C12.3633 111.588 14.6265 122.966 19.0238 133.582C23.4211 144.198 29.8663 153.844 37.9914 161.97C46.1166 170.095 55.7625 176.54 66.3785 180.937C76.9945 185.334 88.3726 187.598 99.8633 187.598C111.354 187.598 122.732 185.334 133.348 180.937C143.964 176.54 153.61 170.095 161.735 161.97C169.86 153.844 176.305 144.198 180.703 133.582C185.1 122.966 187.363 111.588 187.363 100.098C187.363 88.607 185.1 77.2288 180.703 66.6129C176.305 55.9969 169.86 46.3509 161.735 38.2258C153.61 30.1007 143.964 23.6555 133.348 19.2582C122.732 14.8609 111.354 12.5977 99.8633 12.5977C88.3726 12.5977 76.9945 14.8609 66.3785 19.2582C55.7625 23.6555 46.1166 30.1007 37.9914 38.2258C29.8663 46.3509 23.4211 55.9969 19.0238 66.6129C14.6265 77.2288 12.3633 88.607 12.3633 100.098Z" fill="#ED153F"/>
<path d="M54.2773 144.922C54.2773 144.922 87.0703 87.4805 145.156 54.043C112.441 112.852 54.2773 144.922 54.2773 144.922Z" fill="white"/>
<path d="M145.137 144.922C145.137 144.922 112.344 87.4805 54.2578 54.043C86.9727 112.852 145.137 144.922 145.137 144.922Z" fill="white"/>
</svg>
