<svg width="20" height="20" viewBox="0 0 20 20" fill="none" xmlns="http://www.w3.org/2000/svg">
<path d="M11.8748 2.5H4.37415C4.20839 2.5 4.04941 2.56585 3.9322 2.68306C3.81499 2.80027 3.74915 2.95924 3.74915 3.125V16.875C3.74915 17.0408 3.81499 17.1997 3.9322 17.3169C4.04941 17.4342 4.20839 17.5 4.37415 17.5H15.6248C15.7068 17.5 15.7881 17.4838 15.8639 17.4524C15.9398 17.421 16.0087 17.375 16.0667 17.3169C16.1247 17.2589 16.1708 17.19 16.2022 17.1142C16.2336 17.0384 16.2498 16.9571 16.2498 16.875V6.875M11.8748 2.5L16.2498 6.875M11.8748 2.5V6.875H16.2498M7.81226 11.5625L9.99976 9.375M9.99976 9.375L12.1873 11.5625M9.99976 9.375V14.375" stroke="#333333" strokeWidth="1.5" strokeLinecap="round" strokeLinejoin="round"/>
</svg>
