<svg width="24" height="24" viewBox="0 0 24 24" fill="none" xmlns="http://www.w3.org/2000/svg">
<path d="M14.2498 3H5.24902C5.05011 3 4.85935 3.07902 4.71869 3.21967C4.57804 3.36032 4.49902 3.55109 4.49902 3.75V20.25C4.49902 20.4489 4.57804 20.6397 4.71869 20.7803C4.85935 20.921 5.05011 21 5.24902 21H18.7498C18.8482 21 18.9458 20.9806 19.0368 20.9429C19.1278 20.9052 19.2104 20.85 19.2801 20.7803C19.3497 20.7107 19.405 20.628 19.4427 20.537C19.4804 20.446 19.4998 20.3485 19.4998 20.25V8.25M14.2498 3L19.4998 8.25M14.2498 3V8.25H19.4998M9.74976 12L14.2498 16.5M14.2498 12L9.74976 16.5" stroke="#666666" strokeWidth="1.5" strokeLinecap="round" strokeLinejoin="round"/>
</svg>
