<svg width="24" height="24" viewBox="0 0 24 24" fill="none" xmlns="http://www.w3.org/2000/svg">
<path d="M17.2446 18.0008C17.1018 18.5557 16.9399 19.1026 16.7589 19.6414M12.0007 12.0008C12.0054 15.0504 11.2318 18.0507 9.75296 20.7178M9.00069 12.0008C9.00069 11.2052 9.31676 10.4421 9.87936 9.87953C10.442 9.31692 11.205 9.00085 12.0007 9.00085C12.7963 9.00085 13.5594 9.31692 14.122 9.87953C14.6846 10.4421 15.0007 11.2052 15.0007 12.0008C15.0051 15.0931 14.3239 18.1478 13.0061 20.9452M4.7522 17.3364C5.576 15.6786 6.0034 13.8521 6.00069 12.0009C5.99984 11.1012 6.20166 10.213 6.59118 9.40211C6.9807 8.5912 7.5479 7.87847 8.25065 7.31684M20.4906 17.2508C20.8307 15.5215 21.0015 13.7632 21.0007 12.0008C21.0007 9.61385 20.0524 7.32466 18.3646 5.63683C16.6768 3.94901 14.3876 3.00079 12.0007 3.00079C9.6137 3.00079 7.32452 3.94901 5.63669 5.63683C3.94886 7.32466 3.00065 9.61385 3.00065 12.0008C3.00177 13.0226 2.82858 14.0372 2.48853 15.0008M8.70064 15.0008C8.38046 16.5778 7.80695 18.0926 7.00239 19.4862M11.2507 6.04727C12.0952 5.94165 12.9525 6.01675 13.7657 6.26759C14.579 6.51843 15.3297 6.93929 15.9679 7.50225C16.6062 8.06522 17.1175 8.75743 17.468 9.533C17.8184 10.3086 18 11.1498 18.0007 12.0008C18.0009 13.0037 17.9389 14.0056 17.815 15.0008" stroke="#FF5C00" strokeWidth="1.5" strokeLinecap="round" strokeLinejoin="round"/>
</svg>
