<svg width="20" height="20" viewBox="0 0 20 20" fill="none" xmlns="http://www.w3.org/2000/svg">
<path d="M9.99991 13.7499C12.071 13.7499 13.7499 12.071 13.7499 9.99991C13.7499 7.92884 12.071 6.24991 9.99991 6.24991C7.92884 6.24991 6.24991 7.92884 6.24991 9.99991C6.24991 12.071 7.92884 13.7499 9.99991 13.7499Z" stroke="#333333" strokeWidth="1.5" strokeLinecap="round" strokeLinejoin="round"/>
<path d="M9.59926 3.44944L8.12508 2.34413C8.04599 2.28463 7.95388 2.24478 7.85636 2.22786C7.75884 2.21094 7.6587 2.21744 7.56418 2.24682C7.10761 2.38979 6.66466 2.57306 6.24054 2.79446C6.15275 2.84051 6.07716 2.90678 6.02002 2.9878C5.96289 3.06882 5.92584 3.16227 5.91193 3.26043L5.65133 5.08472C5.552 5.17278 5.45474 5.26436 5.35958 5.35947C5.26444 5.45461 5.17284 5.55189 5.08476 5.6513L3.26075 5.91217C3.16275 5.92602 3.06944 5.96297 2.98852 6.01996C2.9076 6.07696 2.84138 6.15236 2.79533 6.23997C2.57358 6.66391 2.38996 7.10672 2.24662 7.56317C2.2171 7.65781 2.21051 7.75812 2.2274 7.85581C2.24429 7.9535 2.28417 8.04578 2.34374 8.12502L3.44944 9.59926C3.44146 9.73176 3.43745 9.86529 3.43741 9.99984C3.43741 10.1344 3.44142 10.2679 3.44944 10.4005L2.34413 11.8747C2.28463 11.9538 2.24478 12.0459 2.22786 12.1435C2.21094 12.241 2.21744 12.3411 2.24682 12.4356C2.38979 12.8922 2.57306 13.3352 2.79446 13.7593C2.84051 13.8471 2.90678 13.9227 2.9878 13.9798C3.06882 14.0369 3.16227 14.074 3.26043 14.0879L5.08472 14.3485C5.17277 14.4478 5.26436 14.5451 5.35947 14.6402C5.4546 14.7354 5.55188 14.827 5.6513 14.9151L5.91216 16.7391C5.92602 16.8371 5.96297 16.9304 6.01996 17.0113C6.07695 17.0922 6.15236 17.1584 6.23997 17.2045C6.66391 17.4262 7.10671 17.6099 7.56317 17.7532C7.65781 17.7827 7.75812 17.7893 7.85581 17.7724C7.9535 17.7555 8.04577 17.7157 8.12502 17.6561L9.59926 16.5504C9.73176 16.5584 9.86529 16.5624 9.99983 16.5624C10.1344 16.5624 10.2679 16.5584 10.4005 16.5504L11.8747 17.6557C11.9538 17.7152 12.0459 17.755 12.1435 17.772C12.241 17.7889 12.3411 17.7824 12.4356 17.753C12.8922 17.61 13.3352 17.4268 13.7593 17.2054C13.8471 17.1593 13.9227 17.093 13.9798 17.012C14.0369 16.931 14.074 16.8376 14.0879 16.7394L14.3485 14.9151C14.4478 14.8271 14.5451 14.7355 14.6402 14.6404C14.7354 14.5452 14.827 14.4479 14.9151 14.3485L16.7391 14.0877C16.8371 14.0738 16.9304 14.0369 17.0113 13.9799C17.0922 13.9229 17.1584 13.8475 17.2045 13.7599C17.4262 13.3359 17.6099 12.8931 17.7532 12.4367C17.7827 12.342 17.7893 12.2417 17.7724 12.144C17.7555 12.0463 17.7157 11.9541 17.6561 11.8748L16.5504 10.4006C16.5584 10.2681 16.5624 10.1345 16.5624 9.99999C16.5624 9.86545 16.5584 9.73189 16.5504 9.59931L17.6557 8.12508C17.7152 8.04599 17.755 7.95388 17.772 7.85636C17.7889 7.75884 17.7824 7.6587 17.753 7.56418C17.61 7.10761 17.4268 6.66466 17.2054 6.24054C17.1593 6.15275 17.093 6.07716 17.012 6.02002C16.931 5.96289 16.8376 5.92584 16.7394 5.91193L14.9151 5.65133C14.8271 5.552 14.7355 5.45474 14.6404 5.35958C14.5452 5.26444 14.4479 5.17284 14.3485 5.08476L14.0877 3.26075C14.0738 3.16275 14.0369 3.06944 13.9799 2.98852C13.9229 2.9076 13.8475 2.84138 13.7599 2.79533C13.3359 2.57358 12.8931 2.38996 12.4367 2.24662C12.342 2.2171 12.2417 2.21051 12.144 2.2274C12.0463 2.24429 11.9541 2.28417 11.8748 2.34374L10.4006 3.44944C10.2681 3.44146 10.1345 3.43745 9.99999 3.43741C9.86545 3.43741 9.73184 3.44142 9.59926 3.44944Z" stroke="#333333" strokeWidth="1.5" strokeLinecap="round" strokeLinejoin="round"/>
</svg>
