<svg width="28" height="28" viewBox="0 0 28 28" fill="none" xmlns="http://www.w3.org/2000/svg">
<path d="M16.6249 3.5H6.12402C5.89196 3.5 5.6694 3.59219 5.5053 3.75628C5.34121 3.92038 5.24902 4.14294 5.24902 4.375V23.625C5.24902 23.8571 5.34121 24.0796 5.5053 24.2437C5.6694 24.4078 5.89196 24.5 6.12402 24.5H21.8749C21.9898 24.5 22.1036 24.4774 22.2097 24.4334C22.3159 24.3894 22.4123 24.325 22.4936 24.2437C22.5748 24.1625 22.6393 24.066 22.6833 23.9598C22.7272 23.8537 22.7499 23.7399 22.7499 23.625V9.625M16.6249 3.5L22.7499 9.625M16.6249 3.5V9.625H22.7499M10.9374 16.1875L13.9999 13.125M13.9999 13.125L17.0624 16.1875M13.9999 13.125V20.125" stroke="#5E718D" stroke-width="1.5" stroke-linecap="round" stroke-linejoin="round"/>
</svg>
