<svg width="28" height="28" viewBox="0 0 28 28" fill="none" xmlns="http://www.w3.org/2000/svg">
<path d="M24.6592 14H21.1592C20.6951 14 20.25 14.1844 19.9218 14.5126C19.5936 14.8408 19.4092 15.2859 19.4092 15.75V20.125C19.4092 20.5891 19.5936 21.0343 19.9218 21.3624C20.25 21.6906 20.6951 21.875 21.1592 21.875H22.9092C23.3734 21.875 23.8185 21.6906 24.1467 21.3624C24.4749 21.0343 24.6592 20.5891 24.6592 20.125M24.6592 14V20.125M24.6592 14C24.6592 12.6144 24.385 11.2425 23.8523 9.96345C23.3197 8.68435 22.5391 7.52332 21.5556 6.54729C20.5722 5.57126 19.4053 4.79953 18.1222 4.27657C16.8391 3.75362 15.4652 3.4898 14.0796 3.5003C12.6941 3.4898 11.3202 3.75362 10.0371 4.27657C8.75395 4.79953 7.58704 5.57126 6.60358 6.54729C5.62012 7.52332 4.83956 8.68435 4.3069 9.96345C3.77424 11.2425 3.5 12.6144 3.5 14M24.6592 20.125V22.75C24.6592 23.6783 24.2905 24.5685 23.6341 25.2249C22.9777 25.8813 22.0875 26.25 21.1592 26.25H14.875M3.5 14V20.125C3.5 20.5891 3.68437 21.0343 4.01256 21.3624C4.34075 21.6906 4.78587 21.875 5.25 21.875H7C7.46413 21.875 7.90925 21.6906 8.23744 21.3624C8.56563 21.0343 8.75 20.5891 8.75 20.125V15.75C8.75 15.2859 8.56563 14.8408 8.23744 14.5126C7.90925 14.1844 7.46413 14 7 14H3.5Z" stroke="#666666" strokeWidth="1.5" strokeLinecap="round" strokeLinejoin="round"/>
</svg>
