<svg width="40" height="40" viewBox="0 0 40 40" fill="none" xmlns="http://www.w3.org/2000/svg">
<path d="M33.7047 20H29.2047C28.608 20 28.0357 20.2371 27.6137 20.659C27.1918 21.081 26.9547 21.6533 26.9547 22.25V27.875C26.9547 28.4717 27.1918 29.044 27.6137 29.466C28.0357 29.888 28.608 30.125 29.2047 30.125H31.4547C32.0515 30.125 32.6238 29.888 33.0457 29.466C33.4677 29.044 33.7047 28.4717 33.7047 27.875M33.7047 20V27.875M33.7047 20C33.7047 18.2185 33.3521 16.4547 32.6673 14.8101C31.9824 13.1656 30.9789 11.6728 29.7144 10.4179C28.45 9.16305 26.9496 8.17082 25.2999 7.49845C23.6502 6.82609 21.8838 6.48688 20.1024 6.50039C18.321 6.48688 16.5545 6.82609 14.9048 7.49845C13.2551 8.17082 11.7548 9.16305 10.4903 10.4179C9.22587 11.6728 8.2223 13.1656 7.53744 14.8101C6.85259 16.4547 6.5 18.2185 6.5 20M33.7047 27.875V31.25C33.7047 32.4435 33.2306 33.5881 32.3867 34.432C31.5428 35.2759 30.3982 35.75 29.2047 35.75H21.125M6.5 20V27.875C6.5 28.4717 6.73705 29.044 7.15901 29.466C7.58097 29.888 8.15326 30.125 8.75 30.125H11C11.5967 30.125 12.169 29.888 12.591 29.466C13.0129 29.044 13.25 28.4717 13.25 27.875V22.25C13.25 21.6533 13.0129 21.081 12.591 20.659C12.169 20.2371 11.5967 20 11 20H6.5Z" stroke="#333333" stroke-width="2.5" stroke-linecap="round" stroke-linejoin="round"/>
</svg>
