<svg width="20" height="20" viewBox="0 0 20 20" fill="none" xmlns="http://www.w3.org/2000/svg">
<path d="M10 0.832031C9.88655 0.832177 9.77432 0.855487 9.6702 0.900532C9.56608 0.945578 9.47225 1.01141 9.39446 1.09399C9.31667 1.17658 9.25657 1.27418 9.21783 1.38081C9.17909 1.48744 9.16253 1.60086 9.16917 1.71411C5.42417 2.12953 2.5 5.31161 2.5 9.16537V9.58203H1.875C1.70924 9.58203 1.55027 9.64788 1.43306 9.76509C1.31585 9.8823 1.25 10.0413 1.25 10.207C1.25 10.3728 1.31585 10.5318 1.43306 10.649C1.55027 10.7662 1.70924 10.832 1.875 10.832H3.84583C3.77817 11.038 3.74577 11.254 3.75 11.4708C3.75958 11.887 3.91792 12.1891 4.01917 12.4158C4.28833 13.0154 4.3275 13.4699 4.40833 13.9654C4.47 14.3424 4.59167 14.7862 4.89 15.167L4.33042 16.7533C4.30149 16.831 4.28832 16.9137 4.29168 16.9966C4.29504 17.0795 4.31486 17.1608 4.34999 17.236C4.38511 17.3111 4.43484 17.3785 4.49627 17.4342C4.55771 17.4899 4.62961 17.5329 4.70781 17.5605C4.786 17.5882 4.86892 17.6 4.95172 17.5953C5.03452 17.5905 5.11556 17.5694 5.19011 17.533C5.26465 17.4967 5.33122 17.4459 5.38593 17.3835C5.44063 17.3212 5.48239 17.2486 5.50875 17.1699L5.98958 15.8066L9.27958 16.9691L8.79792 18.332C8.76899 18.4098 8.75582 18.4925 8.75918 18.5753C8.76254 18.6582 8.78236 18.7396 8.81749 18.8147C8.85261 18.8898 8.90234 18.9572 8.96377 19.013C9.02521 19.0687 9.09712 19.1116 9.17531 19.1393C9.2535 19.1669 9.33642 19.1787 9.41922 19.174C9.50202 19.1693 9.58306 19.1481 9.65761 19.1118C9.73215 19.0754 9.79872 19.0246 9.85343 18.9623C9.90813 18.8999 9.94989 18.8273 9.97625 18.7487L10.6525 16.8354C10.7454 16.6366 11.1554 16.1266 11.6358 15.667C12.1208 15.2024 12.6804 14.7445 13.0712 14.4658C14.4983 13.4466 15.8454 12.6845 15.8504 12.6816L15.8546 12.6804L15.8579 12.6779C16.4938 12.2962 16.7892 11.5366 16.6071 10.832H18.125C18.2908 10.832 18.4497 10.7662 18.5669 10.649C18.6842 10.5318 18.75 10.3728 18.75 10.207C18.75 10.0413 18.6842 9.8823 18.5669 9.76509C18.4497 9.64788 18.2908 9.58203 18.125 9.58203H17.5V9.16537C17.5 5.3112 14.5758 2.12953 10.8308 1.71411C10.8375 1.60086 10.8209 1.48744 10.7822 1.38081C10.7434 1.27418 10.6833 1.17658 10.6055 1.09399C10.5278 1.01141 10.4339 0.945578 10.3298 0.900532C10.2257 0.855487 10.1135 0.832177 10 0.832031ZM10 2.91536C13.4592 2.91536 16.25 5.7062 16.25 9.16537V9.58203H3.75V9.16537C3.75 5.7062 6.54083 2.91536 10 2.91536ZM5.56 10.832H5.64625C5.79625 10.8462 5.93792 10.9166 6.04583 11.0316L6.11667 11.1483C6.18875 11.2679 6.28792 11.4304 6.40542 11.6108C6.64 11.972 6.93292 12.3987 7.26625 12.7324C7.83875 13.3045 8.565 13.332 8.95833 13.332C9.59792 13.332 10.1608 13.037 10.8767 12.6958C11.5921 12.3541 12.3671 11.9333 13.0046 11.5904C13.1767 11.4979 13.5087 11.3087 13.9029 11.1362C14.2971 10.9641 14.7487 10.832 14.9913 10.832C15.1663 10.832 15.3246 10.9333 15.3892 11.0987C15.4256 11.1902 15.428 11.2917 15.3959 11.3847C15.3637 11.4778 15.2993 11.5563 15.2142 11.6058C15.2029 11.6124 13.8317 12.3866 12.3454 13.4483C11.7917 13.8507 11.266 14.2902 10.7717 14.7637C10.4021 15.117 10.0658 15.4641 9.80625 15.8295L5.93167 14.4608C5.73417 14.2866 5.70417 14.1483 5.64125 13.7633C5.57167 13.3379 5.50958 12.6854 5.15958 11.9049H5.16042C5.0575 11.6754 5.00125 11.5037 5 11.4433C4.99583 11.2433 5.05125 11.1016 5.18 10.9899C5.29833 10.887 5.43042 10.8391 5.56 10.832ZM7.3925 10.832H11.7725C11.2999 11.0878 10.8218 11.3332 10.3383 11.5679C9.66792 11.8879 8.99458 12.082 8.95833 12.082C8.565 12.082 8.41125 12.1095 8.15 11.8487C7.94958 11.6479 7.6675 11.2591 7.45375 10.9295C7.42917 10.892 7.41542 10.8679 7.3925 10.832ZM7.29167 17.1733C7.12591 17.1733 6.96693 17.2391 6.84972 17.3563C6.73251 17.4735 6.66667 17.6325 6.66667 17.7983C6.66667 17.964 6.73251 18.123 6.84972 18.2402C6.96693 18.3574 7.12591 18.4233 7.29167 18.4233C7.45743 18.4233 7.6164 18.3574 7.73361 18.2402C7.85082 18.123 7.91667 17.964 7.91667 17.7983C7.91667 17.6325 7.85082 17.4735 7.73361 17.3563C7.6164 17.2391 7.45743 17.1733 7.29167 17.1733Z" fill="#333333" stroke="#333333" stroke-width="0.25"/>
</svg>
