<svg width="20" height="20" viewBox="0 0 20 20" fill="none" xmlns="http://www.w3.org/2000/svg">
<path d="M10 0.833374C9.88655 0.83352 9.77432 0.85683 9.6702 0.901875C9.56608 0.94692 9.47225 1.01275 9.39446 1.09534C9.31667 1.17792 9.25657 1.27552 9.21783 1.38215C9.17909 1.48878 9.16253 1.6022 9.16917 1.71546C5.42417 2.13087 2.5 5.31296 2.5 9.16671V9.58337H1.875C1.70924 9.58337 1.55027 9.64922 1.43306 9.76643C1.31585 9.88364 1.25 10.0426 1.25 10.2084C1.25 10.3741 1.31585 10.5331 1.43306 10.6503C1.55027 10.7675 1.70924 10.8334 1.875 10.8334H3.84583C3.77817 11.0394 3.74577 11.2553 3.75 11.4721C3.75958 11.8884 3.91792 12.1905 4.01917 12.4171C4.28833 13.0167 4.3275 13.4713 4.40833 13.9667C4.47 14.3438 4.59167 14.7875 4.89 15.1684L4.33042 16.7546C4.30149 16.8324 4.28832 16.9151 4.29168 16.9979C4.29504 17.0808 4.31486 17.1622 4.34999 17.2373C4.38511 17.3124 4.43484 17.3798 4.49627 17.4356C4.55771 17.4913 4.62961 17.5342 4.70781 17.5619C4.786 17.5895 4.86892 17.6013 4.95172 17.5966C5.03452 17.5919 5.11556 17.5707 5.19011 17.5344C5.26465 17.498 5.33122 17.4472 5.38593 17.3849C5.44063 17.3225 5.48239 17.2499 5.50875 17.1713L5.98958 15.808L9.27958 16.9705L8.79792 18.3334C8.76899 18.4111 8.75582 18.4938 8.75918 18.5767C8.76254 18.6596 8.78236 18.7409 8.81749 18.8161C8.85261 18.8912 8.90234 18.9586 8.96377 19.0143C9.02521 19.07 9.09712 19.113 9.17531 19.1406C9.2535 19.1683 9.33642 19.1801 9.41922 19.1754C9.50202 19.1706 9.58306 19.1495 9.65761 19.1131C9.73215 19.0768 9.79872 19.026 9.85343 18.9636C9.90813 18.9013 9.94989 18.8287 9.97625 18.75L10.6525 16.8367C10.7454 16.638 11.1554 16.128 11.6358 15.6684C12.1208 15.2038 12.6804 14.7459 13.0712 14.4671C14.4983 13.448 15.8454 12.6859 15.8504 12.683L15.8546 12.6817L15.8579 12.6792C16.4938 12.2975 16.7892 11.538 16.6071 10.8334H18.125C18.2908 10.8334 18.4497 10.7675 18.5669 10.6503C18.6842 10.5331 18.75 10.3741 18.75 10.2084C18.75 10.0426 18.6842 9.88364 18.5669 9.76643C18.4497 9.64922 18.2908 9.58337 18.125 9.58337H17.5V9.16671C17.5 5.31254 14.5758 2.13087 10.8308 1.71546C10.8375 1.6022 10.8209 1.48878 10.7822 1.38215C10.7434 1.27552 10.6833 1.17792 10.6055 1.09534C10.5278 1.01275 10.4339 0.94692 10.3298 0.901875C10.2257 0.85683 10.1135 0.83352 10 0.833374ZM10 2.91671C13.4592 2.91671 16.25 5.70754 16.25 9.16671V9.58337H3.75V9.16671C3.75 5.70754 6.54083 2.91671 10 2.91671ZM5.56 10.8334H5.64625C5.79625 10.8475 5.93792 10.918 6.04583 11.033L6.11667 11.1496C6.18875 11.2692 6.28792 11.4317 6.40542 11.6121C6.64 11.9734 6.93292 12.4 7.26625 12.7338C7.83875 13.3059 8.565 13.3334 8.95833 13.3334C9.59792 13.3334 10.1608 13.0384 10.8767 12.6971C11.5921 12.3555 12.3671 11.9346 13.0046 11.5917C13.1767 11.4992 13.5087 11.31 13.9029 11.1375C14.2971 10.9655 14.7487 10.8334 14.9913 10.8334C15.1663 10.8334 15.3246 10.9346 15.3892 11.1C15.4256 11.1915 15.428 11.293 15.3959 11.3861C15.3637 11.4792 15.2993 11.5576 15.2142 11.6071C15.2029 11.6138 13.8317 12.388 12.3454 13.4496C11.7917 13.8521 11.266 14.2915 10.7717 14.765C10.4021 15.1184 10.0658 15.4655 9.80625 15.8309L5.93167 14.4621C5.73417 14.288 5.70417 14.1496 5.64125 13.7646C5.57167 13.3392 5.50958 12.6867 5.15958 11.9063H5.16042C5.0575 11.6767 5.00125 11.505 5 11.4446C4.99583 11.2446 5.05125 11.103 5.18 10.9913C5.29833 10.8884 5.43042 10.8405 5.56 10.8334ZM7.3925 10.8334H11.7725C11.2999 11.0892 10.8218 11.3345 10.3383 11.5692C9.66792 11.8892 8.99458 12.0834 8.95833 12.0834C8.565 12.0834 8.41125 12.1109 8.15 11.85C7.94958 11.6492 7.6675 11.2605 7.45375 10.9309C7.42917 10.8934 7.41542 10.8692 7.3925 10.8334ZM7.29167 17.1746C7.12591 17.1746 6.96693 17.2405 6.84972 17.3577C6.73251 17.4749 6.66667 17.6339 6.66667 17.7996C6.66667 17.9654 6.73251 18.1244 6.84972 18.2416C6.96693 18.3588 7.12591 18.4246 7.29167 18.4246C7.45743 18.4246 7.6164 18.3588 7.73361 18.2416C7.85082 18.1244 7.91667 17.9654 7.91667 17.7996C7.91667 17.6339 7.85082 17.4749 7.73361 17.3577C7.6164 17.2405 7.45743 17.1746 7.29167 17.1746Z" fill="#333333" stroke="#333333" stroke-width="0.25"/>
</svg>
