<svg width="106" height="44" viewBox="0 0 106 44" fill="none" xmlns="http://www.w3.org/2000/svg">
<path d="M59.8026 21.9262C59.7855 25.9164 62.3405 28.7775 65.9529 28.8136C69.7035 28.8509 72.3831 26.0473 72.3887 22.0782C72.3947 18.149 69.7829 15.3389 66.1088 15.3209C62.505 15.3033 59.819 18.1168 59.8026 21.9262ZM53.1372 21.8721C53.1231 14.8938 58.9686 9.16677 66.1088 9.16247C73.3254 9.15775 79.0356 14.8187 79.0592 22.0009C79.0833 29.33 73.3846 34.9772 65.9873 34.9553C58.7719 34.9334 53.1518 29.2115 53.1372 21.8721Z" fill="#F38820"/>
<path d="M33.878 21.9921C33.8883 25.9788 36.4704 28.8121 40.0939 28.8142C43.8269 28.8159 46.5108 25.9557 46.4777 22.011C46.4447 18.1029 43.7754 15.2962 40.1141 15.3203C36.5069 15.3435 33.8677 18.1668 33.878 21.9921ZM53.1298 22.0187C53.159 29.286 47.5166 34.9143 40.163 34.9546C32.9254 34.9946 27.1791 29.1997 27.1709 21.853C27.1636 14.9219 33.0735 9.16399 40.1974 9.16227C47.4071 9.16056 53.1011 14.821 53.1298 22.0187Z" fill="#F38820"/>
<path d="M98.3054 24.4982C97.4027 27.3422 95.2859 28.8532 92.4295 28.7936C89.4825 28.7322 87.3914 27.1438 86.6677 24.199C85.9353 21.2172 86.1912 18.3402 88.5715 16.1152C91.8761 13.0262 97.2833 14.8575 98.4488 19.4057C98.6411 20.1543 98.6926 20.9391 98.8253 21.8139C98.6673 22.6583 98.587 23.61 98.3054 24.4982ZM103.519 14.6836C100.229 8.58484 93.2275 6.75783 87.3129 10.2616C87.1815 10.3393 87.0257 10.3754 86.7986 10.4625L86.6398 9.50092C86.6016 9.26997 86.402 9.1004 86.1671 9.1004H80.4633C80.2573 9.1004 80.0898 9.26739 80.0898 9.47388V38.7417C80.0898 38.8687 80.1517 38.9881 80.2555 39.0611L86.3462 43.9488C86.4964 44.0699 86.7201 43.9626 86.7201 43.7694V33.3602C87.2326 33.5976 87.5919 33.7603 87.9486 33.9295C93.4056 36.5193 99.9903 34.7498 103.11 29.6723C106.1 24.8064 106.22 19.6903 103.519 14.6836Z" fill="#F38820"/>
<path d="M7.89825 19.032C8.80103 16.1881 10.9178 14.677 13.7742 14.7367C16.7212 14.7976 18.8122 16.386 19.536 19.3312C20.2684 22.313 20.0125 25.19 17.6321 27.4146C14.3276 30.5041 8.92036 28.6724 7.75487 24.1246C7.56256 23.3759 7.51104 22.5912 7.3784 21.7163C7.53637 20.8719 7.61622 19.9198 7.89825 19.032ZM2.6838 28.8466C5.97422 34.9454 12.9762 36.7724 18.8908 33.2686C19.0222 33.1905 19.178 33.1549 19.4051 33.0677L19.63 35.0085H26.1138V4.78857C26.1138 4.66108 26.052 4.54217 25.9481 4.46876L19.6437 0.0188569C19.5768 -0.0287931 19.4836 0.0192865 19.4836 0.101708V10.17C18.9711 9.93262 18.6118 9.76992 18.255 9.60079C12.798 7.01095 6.21333 8.78044 3.09333 13.8579C0.103408 18.7238 -0.0167903 23.84 2.6838 28.8466Z" fill="#F38820"/>
<path d="M59.8027 21.9261C59.8121 19.6487 60.781 17.7329 62.3251 16.5596V16.4729H47.2866V27.644H62.3251V27.5968C60.7514 26.3901 59.7924 24.3721 59.8027 21.9261Z" fill="#F38820"/>
<path d="M61.7087 17.1534H51.2124C50.6569 17.1534 50.207 17.6038 50.207 18.1592C50.207 18.7147 50.6569 19.165 51.2124 19.165H60.3672C60.6917 18.3962 61.1463 17.7167 61.7087 17.1534Z" fill="white"/>
<path d="M59.8029 21.9839C59.8042 21.6362 59.8355 21.3005 59.8802 20.9708H48.7704C48.215 20.9708 47.7646 21.4211 47.7646 21.9766C47.7646 22.5321 48.215 22.9824 48.7704 22.9824H59.8613C59.8257 22.6575 59.8016 22.3265 59.8029 21.9839Z" fill="white"/>
<path d="M60.3354 24.9528H51.2123C50.6569 24.9528 50.2065 25.4031 50.2065 25.9586C50.2065 26.514 50.6569 26.9644 51.2123 26.9644H61.5696C61.0506 26.3973 60.6346 25.7182 60.3354 24.9528Z" fill="white"/>
</svg>
