<svg width="161" height="68" viewBox="0 0 161 68" fill="none" xmlns="http://www.w3.org/2000/svg">
<path d="M35.3089 65.9288L34.2996 63.59L33.2989 65.9288H35.3089ZM35.6371 66.7085H32.9622L32.4346 67.9468H31.4109L33.818 62.5958H34.7964L37.212 67.9468H36.1726L35.6371 66.7085Z" fill="#F38820"/>
<path d="M38.0528 67.8701C37.7371 67.7834 37.4845 67.6738 37.2961 67.5413L37.663 66.8155C37.8467 66.9376 38.0666 67.036 38.3245 67.1095C38.5817 67.1836 38.835 67.2204 39.0844 67.2204C39.6553 67.2204 39.9408 67.0701 39.9408 66.7696C39.9408 66.6265 39.8679 66.5274 39.7229 66.471C39.5779 66.4152 39.3449 66.362 39.0234 66.3108C38.6874 66.2597 38.4131 66.2013 38.2024 66.135C37.9904 66.0687 37.8067 65.9532 37.6518 65.7872C37.4963 65.6218 37.4182 65.3908 37.4182 65.0948C37.4182 64.7083 37.5803 64.3986 37.9038 64.1669C38.2273 63.9346 38.6644 63.8191 39.215 63.8191C39.4945 63.8191 39.7754 63.8506 40.0556 63.9143C40.3358 63.9779 40.5649 64.0632 40.7434 64.1702L40.3765 64.8967C40.03 64.6926 39.6402 64.5908 39.2071 64.5908C38.9269 64.5908 38.7143 64.6328 38.5692 64.7168C38.4236 64.8008 38.3507 64.9117 38.3507 65.0496C38.3507 65.2025 38.4288 65.3107 38.5843 65.3744C38.7392 65.438 38.9807 65.4978 39.3069 65.5535C39.6323 65.6047 39.8994 65.6638 40.1088 65.7294C40.3181 65.7957 40.4973 65.9079 40.6482 66.0661C40.7985 66.2242 40.8733 66.448 40.8733 66.7387C40.8733 67.1206 40.7079 67.4264 40.3765 67.6555C40.0451 67.8852 39.5943 68 39.0234 68C38.6926 68 38.3684 67.9567 38.0528 67.8701Z" fill="#F38820"/>
<path d="M44.8629 63.6508V63.8956H45.987V64.6601H44.8938V67.9465H43.9383V64.6601H43.2656V63.8956H43.9383V63.6357C43.9383 63.1973 44.0656 62.8522 44.3202 62.5995C44.5755 62.3475 44.9344 62.2215 45.3984 62.2215C45.7652 62.2215 46.0527 62.2957 46.262 62.4433L45.9949 63.1612C45.8315 63.049 45.6556 62.9932 45.4666 62.9932C45.0644 62.9932 44.8629 63.2131 44.8629 63.6508Z" fill="#F38820"/>
<path d="M48.6198 67.1401C48.8055 67.0305 48.9368 66.8737 49.0136 66.6702V66.1958H48.0272C47.4773 66.1958 47.2017 66.3769 47.2017 66.7385C47.2017 66.9117 47.2706 67.0495 47.4084 67.1512C47.5462 67.253 47.7365 67.3041 47.9813 67.3041C48.2215 67.3041 48.4335 67.2497 48.6198 67.1401ZM49.4913 64.2507C49.8096 64.5388 49.9691 64.9732 49.9691 65.554V67.9466H49.0667V67.4498C48.9499 67.6277 48.7826 67.7642 48.566 67.8587C48.3495 67.9525 48.0883 67.9998 47.7831 67.9998C47.4773 67.9998 47.2096 67.9473 46.9799 67.8429C46.7509 67.7392 46.5737 67.5935 46.449 67.4078C46.3236 67.2215 46.262 67.0115 46.262 66.7772C46.262 66.4103 46.3985 66.1157 46.6708 65.8939C46.9431 65.6727 47.3723 65.5618 47.959 65.5618H49.0136V65.5001C49.0136 65.2153 48.9283 64.9955 48.757 64.8433C48.587 64.6903 48.3331 64.6136 47.9971 64.6136C47.768 64.6136 47.5423 64.6497 47.3205 64.7205C47.0987 64.7921 46.911 64.8918 46.7587 65.0191L46.384 64.3235C46.598 64.1601 46.8552 64.0354 47.1564 63.9488C47.457 63.8622 47.7752 63.8189 48.1112 63.8189C48.713 63.8189 49.1724 63.9626 49.4913 64.2507Z" fill="#F38820"/>
<path d="M51.4827 67.8701C51.1671 67.7834 50.9144 67.6738 50.7261 67.5413L51.0929 66.8155C51.276 66.9376 51.4965 67.036 51.7544 67.1095C52.011 67.1836 52.265 67.2204 52.5143 67.2204C53.0852 67.2204 53.3707 67.0701 53.3707 66.7696C53.3707 66.6265 53.2979 66.5274 53.1528 66.471C53.0078 66.4152 52.7748 66.362 52.4533 66.3108C52.1173 66.2597 51.843 66.2013 51.6317 66.135C51.4204 66.0687 51.2366 65.9532 51.0818 65.7872C50.9256 65.6218 50.8481 65.3908 50.8481 65.0948C50.8481 64.7083 51.0102 64.3986 51.3338 64.1669C51.6573 63.9346 52.0943 63.8191 52.6449 63.8191C52.9245 63.8191 53.2053 63.8506 53.4856 63.9143C53.7658 63.9779 53.9948 64.0632 54.1733 64.1702L53.8065 64.8967C53.46 64.6926 53.0695 64.5908 52.637 64.5908C52.3568 64.5908 52.1442 64.6328 51.9985 64.7168C51.8535 64.8008 51.7806 64.9117 51.7806 65.0496C51.7806 65.2025 51.8587 65.3107 52.0136 65.3744C52.1691 65.438 52.4106 65.4978 52.7361 65.5535C53.0623 65.6047 53.3294 65.6638 53.5387 65.7294C53.7474 65.7957 53.9272 65.9079 54.0775 66.0661C54.2284 66.2242 54.3032 66.448 54.3032 66.7387C54.3032 67.1206 54.1372 67.4264 53.8065 67.6555C53.4751 67.8852 53.0242 68 52.4533 68C52.1225 68 51.7984 67.9567 51.4827 67.8701Z" fill="#F38820"/>
<path d="M57.5823 67.725C57.4701 67.8169 57.3336 67.8852 57.1735 67.9311C57.0127 67.977 56.8434 68 56.6656 68C56.216 68 55.8702 67.8832 55.6254 67.6483C55.3813 67.414 55.2586 67.0727 55.2586 66.6239V64.6597H54.5859V63.8952H55.2586V62.9627H56.2141V63.8952H57.3074V64.6597H56.2141V66.6009C56.2141 66.7997 56.262 66.9513 56.3591 67.0557C56.4562 67.1607 56.596 67.2125 56.7797 67.2125C56.9937 67.2125 57.1722 67.1567 57.3146 67.0445L57.5823 67.725Z" fill="#F38820"/>
<path d="M62.5466 67.1401C62.733 67.0305 62.8635 66.8737 62.9403 66.6702V66.1958H61.954C61.4041 66.1958 61.1285 66.3769 61.1285 66.7385C61.1285 66.9117 61.1974 67.0495 61.3352 67.1512C61.473 67.253 61.6639 67.3041 61.9081 67.3041C62.1482 67.3041 62.3609 67.2497 62.5466 67.1401ZM63.4181 64.2507C63.7363 64.5388 63.8958 64.9732 63.8958 65.554V67.9466H62.9935V67.4498C62.8767 67.6277 62.71 67.7642 62.4928 67.8587C62.2762 67.9525 62.0157 67.9998 61.7099 67.9998C61.4041 67.9998 61.1363 67.9473 60.9066 67.8429C60.6776 67.7392 60.5004 67.5935 60.3757 67.4078C60.2511 67.2215 60.1887 67.0115 60.1887 66.7772C60.1887 66.4103 60.3252 66.1157 60.5976 65.8939C60.8699 65.6727 61.2997 65.5618 61.8858 65.5618H62.9403V65.5001C62.9403 65.2153 62.855 64.9955 62.6837 64.8433C62.5138 64.6903 62.2598 64.6136 61.9238 64.6136C61.6948 64.6136 61.469 64.6497 61.2472 64.7205C61.0254 64.7921 60.8377 64.8918 60.6855 65.0191L60.3108 64.3235C60.5247 64.1601 60.782 64.0354 61.0832 63.9488C61.3837 63.8622 61.702 63.8189 62.0387 63.8189C62.6398 63.8189 63.0998 63.9626 63.4181 64.2507Z" fill="#F38820"/>
<path d="M65.409 67.8701C65.0933 67.7834 64.8407 67.6738 64.6523 67.5413L65.0192 66.8155C65.2029 66.9376 65.4228 67.036 65.6807 67.1095C65.9379 67.1836 66.1912 67.2204 66.4406 67.2204C67.0115 67.2204 67.297 67.0701 67.297 66.7696C67.297 66.6265 67.2241 66.5274 67.0791 66.471C66.9341 66.4152 66.7011 66.362 66.3796 66.3108C66.0436 66.2597 65.7693 66.2013 65.5586 66.135C65.3466 66.0687 65.1629 65.9532 65.008 65.7872C64.8525 65.6218 64.7744 65.3908 64.7744 65.0948C64.7744 64.7083 64.9365 64.3986 65.26 64.1669C65.5835 63.9346 66.0206 63.8191 66.5712 63.8191C66.8507 63.8191 67.1316 63.8506 67.4118 63.9143C67.692 63.9779 67.9211 64.0632 68.0996 64.1702L67.7327 64.8967C67.3862 64.6926 66.9964 64.5908 66.5633 64.5908C66.2831 64.5908 66.0705 64.6328 65.9254 64.7168C65.7798 64.8008 65.7069 64.9117 65.7069 65.0496C65.7069 65.2025 65.785 65.3107 65.9405 65.3744C66.0954 65.438 66.3369 65.4978 66.6631 65.5535C66.9886 65.6047 67.2556 65.6638 67.465 65.7294C67.6737 65.7957 67.8535 65.9079 68.0038 66.0661C68.1547 66.2242 68.2295 66.448 68.2295 66.7387C68.2295 67.1206 68.0641 67.4264 67.7327 67.6555C67.4013 67.8852 66.9505 68 66.3796 68C66.0488 68 65.7246 67.9567 65.409 67.8701Z" fill="#F38820"/>
<path d="M73.6185 67.725C73.5062 67.8169 73.3697 67.8852 73.2096 67.9311C73.0488 67.977 72.8795 68 72.7017 68C72.2522 68 71.9063 67.8832 71.6616 67.6483C71.4174 67.414 71.2947 67.0727 71.2947 66.6239V64.6597H70.6221V63.8952H71.2947V62.9627H72.2502V63.8952H73.3435V64.6597H72.2502V66.6009C72.2502 66.7997 72.2981 66.9513 72.3952 67.0557C72.4923 67.1607 72.6321 67.2125 72.8159 67.2125C73.0305 67.2125 73.2083 67.1567 73.3507 67.0445L73.6185 67.725Z" fill="#F38820"/>
<path d="M77.9599 64.2699C78.2709 64.5704 78.4265 65.0167 78.4265 65.6079V67.9468H77.4703V65.73C77.4703 65.373 77.3863 65.104 77.2183 64.9235C77.0503 64.7424 76.8108 64.6525 76.4997 64.6525C76.148 64.6525 75.8704 64.7581 75.667 64.9694C75.4629 65.1807 75.3612 65.4852 75.3612 65.8829V67.9468H74.405V62.2749H75.3612V64.3388C75.5193 64.1708 75.7136 64.0415 75.9459 63.9529C76.1775 63.8637 76.4361 63.819 76.7215 63.819C77.236 63.819 77.6488 63.9693 77.9599 64.2699Z" fill="#F38820"/>
<path d="M80.6771 64.8548C80.4652 65.0353 80.3366 65.2761 80.2913 65.5773H82.6065C82.5658 65.2814 82.4411 65.0418 82.2324 64.8581C82.0237 64.675 81.7639 64.5831 81.4528 64.5831C81.147 64.5831 80.8885 64.6737 80.6771 64.8548ZM83.5016 66.2113H80.2985C80.3543 66.5118 80.5013 66.75 80.7382 66.9259C80.9751 67.1018 81.2697 67.1897 81.6208 67.1897C82.0697 67.1897 82.4391 67.0421 82.7292 66.7461L83.2417 67.3347C83.058 67.5539 82.8257 67.72 82.5461 67.8322C82.2652 67.9437 81.9496 67.9995 81.5979 67.9995C81.1496 67.9995 80.7546 67.9109 80.4133 67.7324C80.0721 67.5539 79.8083 67.3052 79.6226 66.9876C79.4362 66.6687 79.343 66.3084 79.343 65.9055C79.343 65.5078 79.4336 65.1501 79.6147 64.8312C79.7958 64.5129 80.0465 64.2649 80.3674 64.0864C80.6883 63.9079 81.0499 63.8186 81.4528 63.8186C81.8505 63.8186 82.2055 63.9066 82.5192 64.0824C82.8322 64.2583 83.077 64.5057 83.2529 64.824C83.4288 65.1423 83.5167 65.5104 83.5167 65.9284C83.5167 65.9947 83.5114 66.0892 83.5016 66.2113Z" fill="#F38820"/>
<path d="M92.9182 64.2661C93.2187 64.5647 93.369 65.0116 93.369 65.6075V67.9463H92.4135V65.7295C92.4135 65.3732 92.3348 65.1041 92.1766 64.9237C92.0191 64.7425 91.792 64.652 91.4961 64.652C91.1758 64.652 90.9186 64.7583 90.7243 64.9696C90.5308 65.1809 90.4336 65.4828 90.4336 65.8752V67.9463H89.4788V65.7295C89.4788 65.3732 89.4001 65.1041 89.2413 64.9237C89.0838 64.7425 88.8574 64.652 88.5614 64.652C88.2352 64.652 87.9767 64.757 87.7857 64.9657C87.5941 65.1743 87.4989 65.4775 87.4989 65.8752V67.9463H86.5435V63.8651H87.453V64.3849C87.6059 64.2011 87.7969 64.0614 88.0266 63.9642C88.2556 63.8678 88.5102 63.8192 88.7904 63.8192C89.0969 63.8192 89.3679 63.8763 89.6048 63.9911C89.8417 64.1053 90.0287 64.2753 90.1665 64.4991C90.3345 64.2851 90.5518 64.1185 90.8162 63.9984C91.0813 63.8789 91.374 63.8192 91.6956 63.8192C92.2094 63.8192 92.6176 63.9682 92.9182 64.2661Z" fill="#F38820"/>
<path d="M96.6599 67.1401C96.8456 67.0305 96.9768 66.8737 97.0536 66.6702V66.1958H96.0673C95.5174 66.1958 95.2417 66.3769 95.2417 66.7385C95.2417 66.9117 95.3106 67.0495 95.4484 67.1512C95.5863 67.253 95.7766 67.3041 96.0213 67.3041C96.2615 67.3041 96.4735 67.2497 96.6599 67.1401ZM97.5313 64.2507C97.8496 64.5388 98.0091 64.9732 98.0091 65.554V67.9466H97.1068V67.4498C96.99 67.6277 96.8226 67.7642 96.6061 67.8587C96.3895 67.9525 96.1283 67.9998 95.8232 67.9998C95.5174 67.9998 95.2496 67.9473 95.0199 67.8429C94.7909 67.7392 94.6137 67.5935 94.489 67.4078C94.3637 67.2215 94.302 67.0115 94.302 66.7772C94.302 66.4103 94.4385 66.1157 94.7108 65.8939C94.9832 65.6727 95.4124 65.5618 95.999 65.5618H97.0536V65.5001C97.0536 65.2153 96.9683 64.9955 96.797 64.8433C96.6271 64.6903 96.3731 64.6136 96.0371 64.6136C95.8081 64.6136 95.5823 64.6497 95.3605 64.7205C95.1387 64.7921 94.951 64.8918 94.7988 65.0191L94.4241 64.3235C94.638 64.1601 94.8952 64.0354 95.1965 63.9488C95.497 63.8622 95.8153 63.8189 96.1513 63.8189C96.7531 63.8189 97.2124 63.9626 97.5313 64.2507Z" fill="#F38820"/>
<path d="M100.004 67.7327C99.6675 67.5542 99.405 67.3055 99.216 66.9872C99.0277 66.6689 98.9338 66.3086 98.9338 65.9057C98.9338 65.5034 99.0277 65.1438 99.216 64.8275C99.405 64.5119 99.6662 64.2651 99.9996 64.086C100.334 63.9081 100.714 63.8189 101.143 63.8189C101.545 63.8189 101.898 63.9002 102.201 64.0636C102.504 64.2264 102.733 64.4607 102.885 64.7665L102.151 65.1943C102.035 65.006 101.888 64.8649 101.712 64.7704C101.536 64.6766 101.344 64.6293 101.135 64.6293C100.778 64.6293 100.483 64.7448 100.248 64.9771C100.014 65.2088 99.8965 65.5179 99.8965 65.9057C99.8965 66.2929 100.013 66.602 100.244 66.8343C100.477 67.0659 100.773 67.1821 101.135 67.1821C101.344 67.1821 101.536 67.1348 101.712 67.041C101.888 66.9465 102.035 66.8047 102.151 66.6164L102.885 67.0449C102.728 67.3501 102.497 67.5857 102.193 67.7517C101.89 67.9171 101.54 67.9998 101.143 67.9998C100.719 67.9998 100.34 67.9105 100.004 67.7327Z" fill="#F38820"/>
<path d="M107.227 64.2699C107.538 64.5704 107.693 65.0167 107.693 65.6079V67.9468H106.738V65.73C106.738 65.373 106.654 65.104 106.486 64.9235C106.318 64.7424 106.078 64.6525 105.767 64.6525C105.415 64.6525 105.138 64.7581 104.934 64.9694C104.73 65.1807 104.628 65.4852 104.628 65.8829V67.9468H103.672V62.2749H104.628V64.3388C104.786 64.1708 104.981 64.0415 105.213 63.9529C105.445 63.8637 105.703 63.819 105.989 63.819C106.503 63.819 106.916 63.9693 107.227 64.2699Z" fill="#F38820"/>
<path d="M108.908 63.865H109.864V67.9468H108.908V63.865ZM108.954 63.0276C108.838 62.918 108.779 62.7822 108.779 62.6188C108.779 62.456 108.838 62.3195 108.954 62.2099C109.072 62.1004 109.217 62.0459 109.39 62.0459C109.563 62.0459 109.709 62.0977 109.826 62.2021C109.943 62.3064 110.001 62.4383 110.001 62.5958C110.001 62.7638 109.945 62.9055 109.83 63.0204C109.715 63.1346 109.569 63.1923 109.39 63.1923C109.217 63.1923 109.072 63.1372 108.954 63.0276Z" fill="#F38820"/>
<path d="M114.672 64.2699C114.982 64.5704 115.138 65.0167 115.138 65.6079V67.9468H114.182V65.73C114.182 65.373 114.098 65.104 113.93 64.9235C113.762 64.7424 113.523 64.6525 113.212 64.6525C112.86 64.6525 112.583 64.7581 112.378 64.9694C112.175 65.1807 112.073 65.4852 112.073 65.8829V67.9468H111.117V63.865H112.027V64.3926C112.185 64.2036 112.384 64.0612 112.623 63.9641C112.863 63.8676 113.132 63.819 113.434 63.819C113.948 63.819 114.361 63.9693 114.672 64.2699Z" fill="#F38820"/>
<path d="M117.389 64.8548C117.178 65.0353 117.049 65.2761 117.003 65.5773H119.319C119.278 65.2814 119.153 65.0418 118.945 64.8581C118.736 64.675 118.476 64.5831 118.165 64.5831C117.859 64.5831 117.601 64.6737 117.389 64.8548ZM120.214 66.2113H117.011C117.066 66.5118 117.213 66.75 117.45 66.9259C117.687 67.1018 117.982 67.1897 118.333 67.1897C118.782 67.1897 119.151 67.0421 119.441 66.7461L119.954 67.3347C119.77 67.5539 119.538 67.72 119.258 67.8322C118.978 67.9437 118.662 67.9995 118.31 67.9995C117.862 67.9995 117.467 67.9109 117.125 67.7324C116.784 67.5539 116.52 67.3052 116.335 66.9876C116.148 66.6687 116.055 66.3084 116.055 65.9055C116.055 65.5078 116.146 65.1501 116.327 64.8312C116.508 64.5129 116.759 64.2649 117.08 64.0864C117.4 63.9079 117.762 63.8186 118.165 63.8186C118.563 63.8186 118.918 63.9066 119.231 64.0824C119.544 64.2583 119.789 64.5057 119.965 64.824C120.141 65.1423 120.229 65.5104 120.229 65.9284C120.229 65.9947 120.224 66.0892 120.214 66.2113Z" fill="#F38820"/>
<path d="M90.2737 33.5185C90.2474 39.6182 94.1534 43.992 99.6756 44.0471C105.409 44.1042 109.505 39.8183 109.514 33.7508C109.523 27.7442 105.531 23.4485 99.9138 23.4209C94.4047 23.394 90.2986 27.695 90.2737 33.5185ZM80.0843 33.4358C80.0626 22.768 88.9986 14.0131 99.9138 14.0065C110.946 13.9993 119.675 22.6531 119.711 33.6326C119.748 44.8366 111.036 53.4694 99.7281 53.4359C88.698 53.4025 80.1066 44.6555 80.0843 33.4358Z" fill="#F38820"/>
<path d="M50.6427 33.6195C50.6585 39.714 54.6057 44.0451 60.145 44.0484C65.8517 44.051 69.9545 39.6785 69.904 33.6483C69.8534 27.674 65.7729 23.3835 60.1759 23.4202C54.6615 23.4557 50.627 27.7717 50.6427 33.6195ZM80.073 33.6602C80.1177 44.7696 71.4921 53.3735 60.2507 53.4352C49.1865 53.4963 40.4021 44.6377 40.3897 33.4069C40.3785 22.8112 49.4129 14.0091 60.3032 14.0065C71.3247 14.0039 80.0291 22.657 80.073 33.6602Z" fill="#F38820"/>
<path d="M149.133 37.4503C147.753 41.7979 144.517 44.1079 140.151 44.0166C135.646 43.9228 132.449 41.4947 131.343 36.9929C130.223 32.4347 130.614 28.0366 134.253 24.6353C139.305 19.913 147.571 22.7125 149.352 29.6654C149.646 30.8098 149.725 32.0094 149.928 33.3469C149.686 34.6377 149.564 36.0926 149.133 37.4503ZM157.104 22.4467C152.075 13.1236 141.371 10.3306 132.329 15.6868C132.128 15.8056 131.89 15.8607 131.543 15.994L131.3 14.524C131.242 14.1709 130.936 13.9117 130.577 13.9117H121.858C121.543 13.9117 121.287 14.167 121.287 14.4826V59.2243C121.287 59.4185 121.382 59.601 121.54 59.7125L130.851 67.1845C131.081 67.3695 131.423 67.2055 131.423 66.9102V50.9977C132.206 51.3606 132.756 51.6093 133.301 51.8679C141.643 55.8269 151.709 53.1219 156.479 45.36C161.049 37.9215 161.233 30.1004 157.104 22.4467Z" fill="#F38820"/>
<path d="M10.9275 29.0943C12.3076 24.7467 15.5435 22.4367 19.9101 22.528C24.4152 22.6211 27.6117 25.0492 28.7181 29.5517C29.8377 34.1099 29.4466 38.508 25.8077 41.9086C20.756 46.6316 12.49 43.8314 10.7083 36.8792C10.4143 35.7347 10.3356 34.5351 10.1328 33.1977C10.3743 31.9069 10.4964 30.4514 10.9275 29.0943ZM2.9562 44.0978C7.98627 53.421 18.6902 56.214 27.7318 50.8578C27.9326 50.7383 28.1708 50.6838 28.518 50.5506L28.8619 53.5175H38.7737V7.3203C38.7737 7.1254 38.6792 6.94362 38.5204 6.83141L28.8829 0.0288429C28.7805 -0.0439987 28.6381 0.0294991 28.6381 0.155499V15.5469C27.8545 15.184 27.3053 14.9353 26.7599 14.6767C18.4178 10.7176 8.35179 13.4227 3.58225 21.1846C-0.988445 28.6231 -1.17219 36.4441 2.9562 44.0978Z" fill="#F38820"/>
<path d="M90.2737 33.5187C90.2881 30.0373 91.7692 27.1085 94.1297 25.315V25.1825H71.1404V42.2598H94.1297V42.1876C91.7239 40.3429 90.2579 37.2579 90.2737 33.5187Z" fill="#F38820"/>
<path d="M93.1873 26.2222H77.1416C76.2925 26.2222 75.6047 26.9106 75.6047 27.7598C75.6047 28.609 76.2925 29.2974 77.1416 29.2974H91.1366C91.6327 28.122 92.3277 27.0832 93.1873 26.2222Z" fill="white"/>
<path d="M90.2737 33.6069C90.2757 33.0753 90.3236 32.5622 90.3919 32.0582H73.4084C72.5592 32.0582 71.8708 32.7466 71.8708 33.5957C71.8708 34.4449 72.5592 35.1333 73.4084 35.1333H90.363C90.3085 34.6365 90.2718 34.1306 90.2737 33.6069Z" fill="white"/>
<path d="M91.0882 38.1451H77.1418C76.2926 38.1451 75.6042 38.8335 75.6042 39.6826C75.6042 40.5318 76.2926 41.2202 77.1418 41.2202H92.9749C92.1815 40.3533 91.5456 39.3152 91.0882 38.1451Z" fill="white"/>
</svg>
