<svg width="30" height="30" viewBox="0 0 30 30" fill="none" xmlns="http://www.w3.org/2000/svg">
<path d="M20.5 12L13.1666 19L9.5 15.5M5.80761 24.1924C4.65711 23.0419 5.42019 20.6265 4.8346 19.2111C4.22755 17.744 2 16.5631 2 15C2 13.4368 4.22756 12.256 4.8346 10.7888C5.4202 9.37353 4.65711 6.95811 5.80761 5.80761C6.95811 4.65711 9.37354 5.42019 10.7889 4.8346C12.256 4.22755 13.4369 2 15 2C16.5632 2 17.744 4.22756 19.2112 4.8346C20.6265 5.4202 23.0419 4.65711 24.1924 5.80761C25.3429 6.95811 24.5798 9.37354 25.1654 10.7889C25.7725 12.256 28 13.4369 28 15C28 16.5632 25.7724 17.744 25.1654 19.2112C24.5798 20.6265 25.3429 23.0419 24.1924 24.1924C23.0419 25.3429 20.6265 24.5798 19.2111 25.1654C17.744 25.7725 16.5631 28 15 28C13.4368 28 12.256 25.7724 10.7888 25.1654C9.37353 24.5798 6.95811 25.3429 5.80761 24.1924Z" stroke="#11A75C" stroke-width="2.5" stroke-linecap="round" stroke-linejoin="round"/>
</svg>
