<svg width="18" height="18" viewBox="0 0 18 18" fill="none" xmlns="http://www.w3.org/2000/svg">
<path d="M2.54912 12.828C1.6173 11.2572 1.29097 9.40024 1.6314 7.60583C1.97184 5.81142 2.95563 4.20301 4.39803 3.08261C5.84044 1.96222 7.64224 1.40692 9.46509 1.52099C11.2879 1.63506 13.0065 2.41065 14.2979 3.70212C15.5894 4.99359 16.365 6.71211 16.4791 8.53496C16.5932 10.3578 16.0379 12.1596 14.9175 13.602C13.7971 15.0444 12.1887 16.0282 10.3943 16.3687C8.59988 16.7091 6.74291 16.3828 5.17207 15.451L5.17209 15.4509L2.58173 16.191C2.47456 16.2216 2.36115 16.223 2.25325 16.1951C2.14536 16.1671 2.0469 16.1108 1.96809 16.032C1.88927 15.9532 1.83297 15.8547 1.80501 15.7468C1.77705 15.6389 1.77846 15.5255 1.80908 15.4184L2.54918 12.828L2.54912 12.828Z" stroke="#333333" strokeWidth="1.5" strokeLinecap="round" strokeLinejoin="round"/>
<path d="M12.75 9.9375C13.2678 9.9375 13.6875 9.51777 13.6875 9C13.6875 8.48223 13.2678 8.0625 12.75 8.0625C12.2322 8.0625 11.8125 8.48223 11.8125 9C11.8125 9.51777 12.2322 9.9375 12.75 9.9375Z" fill="#333333"/>
<path d="M9 9.9375C9.51777 9.9375 9.9375 9.51777 9.9375 9C9.9375 8.48223 9.51777 8.0625 9 8.0625C8.48223 8.0625 8.0625 8.48223 8.0625 9C8.0625 9.51777 8.48223 9.9375 9 9.9375Z" fill="#333333"/>
<path d="M5.25 9.9375C5.76777 9.9375 6.1875 9.51777 6.1875 9C6.1875 8.48223 5.76777 8.0625 5.25 8.0625C4.73223 8.0625 4.3125 8.48223 4.3125 9C4.3125 9.51777 4.73223 9.9375 5.25 9.9375Z" fill="#333333"/>
</svg>
