<svg width="32" height="32" viewBox="0 0 32 32" fill="none" xmlns="http://www.w3.org/2000/svg">
<path d="M25.6368 23.7587C25.6384 23.4904 25.5603 23.2277 25.4124 23.0038C25.2645 22.7799 25.0535 22.605 24.8061 22.5011C24.5587 22.3973 24.2861 22.3692 24.0227 22.4205C23.7594 22.4717 23.5171 22.6 23.3267 22.789C23.1364 22.9781 23.0064 23.2194 22.9532 23.4824C22.9001 23.7454 22.9263 24.0182 23.0283 24.2663C23.1304 24.5145 23.3039 24.7267 23.5267 24.8762C23.7495 25.0256 24.0117 25.1056 24.28 25.1059C24.6384 25.1068 24.9826 24.9654 25.2369 24.7128C25.4913 24.4603 25.6351 24.1171 25.6368 23.7587ZM6.57279 23.7587C6.57089 24.0275 6.64884 24.2907 6.79677 24.5151C6.94469 24.7395 7.15593 24.9149 7.40368 25.0191C7.65143 25.1232 7.92453 25.1515 8.18835 25.1002C8.45218 25.0489 8.69483 24.9205 8.88554 24.7311C9.07626 24.5417 9.20644 24.3 9.25957 24.0366C9.31271 23.7731 9.28641 23.4998 9.184 23.2513C9.0816 23.0028 8.9077 22.7904 8.68437 22.6409C8.46105 22.4913 8.19834 22.4115 7.92959 22.4115C7.57114 22.4107 7.22699 22.552 6.97264 22.8046C6.71828 23.0571 6.57448 23.4003 6.57279 23.7587Z" fill="#666666"/>
<path d="M24.6705 28.6404C23.6296 28.6448 22.6075 28.3637 21.7152 27.8277C20.823 27.2917 20.0947 26.5214 19.6097 25.6004H13.3825C12.7818 26.7248 11.8235 27.617 10.6591 28.1359C9.49469 28.6548 8.19057 28.771 6.95279 28.466C5.71501 28.161 4.61415 27.4523 3.82415 26.4517C3.03416 25.4512 2.60008 24.216 2.5905 22.9412C2.59105 22.6734 2.61137 22.406 2.6513 22.1412C1.96592 21.0254 1.60213 19.7419 1.6001 18.4324C1.6001 16.8468 1.9921 15.2324 2.6769 13.9956L2.8289 13.7236H13.5489V16.0516L13.2577 16.1972C12.5041 16.57 12.3857 17.6916 12.5921 18.5748C12.8337 19.6052 13.5521 20.6452 14.5953 20.6452C14.7025 20.6449 14.8095 20.6358 14.9153 20.618C18.3361 20.0516 20.5249 17.2244 20.9201 13.706C21.1121 11.9908 20.6001 10.2516 19.5137 9.50123L19.4753 9.47563L19.4433 9.44203C19.3163 9.32259 19.236 9.16188 19.2167 8.98865C19.1973 8.81541 19.2402 8.64094 19.3377 8.49643C19.4889 8.29262 19.711 8.15278 19.9601 8.10443C20.1035 8.06908 20.2508 8.05135 20.3985 8.05163C20.7282 8.03816 21.0514 8.14571 21.3073 8.35403L21.3777 8.41963C21.4657 8.50123 21.5073 8.54283 21.5553 8.59563C22.6753 9.84203 23.1729 11.946 22.9505 13.9332C22.4545 18.3572 19.5761 21.914 15.2481 22.6292C15.0307 22.6651 14.8108 22.6833 14.5905 22.6836C12.6929 22.6836 11.1345 21.2948 10.6225 19.1444C10.3345 17.9284 10.4625 16.7028 10.9553 15.7636H4.1153C3.79948 16.6184 3.63962 17.5228 3.6433 18.434C3.64611 19.4221 3.93691 20.3879 4.4801 21.2132C4.69067 21.5335 4.77028 21.9224 4.7025 22.2996C4.66238 22.5106 4.6415 22.7249 4.6401 22.9396C4.63903 23.7828 4.92751 24.6007 5.45728 25.2566C5.98706 25.9125 6.72599 26.3666 7.55048 26.5429C8.37497 26.7193 9.235 26.6071 9.98671 26.2253C10.7384 25.8434 11.3362 25.2151 11.6801 24.4452C11.8022 24.1813 11.9972 23.9577 12.2421 23.801C12.487 23.6442 12.7717 23.5607 13.0625 23.5604H19.9425C20.233 23.561 20.5174 23.6446 20.762 23.8014C21.0066 23.9581 21.2014 24.1815 21.3233 24.4452C21.6672 25.2151 22.265 25.8434 23.0167 26.2253C23.7684 26.6071 24.6284 26.7193 25.4529 26.5429C26.2774 26.3666 27.0163 25.9125 27.5461 25.2566C28.0759 24.6007 28.3644 23.7828 28.3633 22.9396C28.3633 21.8948 27.1345 18.4436 25.1521 13.9956C24.4465 12.4116 24.2257 11.7444 24.0129 11.2116C23.941 11.0331 23.9041 10.8425 23.9041 10.65V6.84683C23.9042 6.68365 23.9307 6.52156 23.9825 6.36683C24.1313 5.92203 24.0833 5.71403 24.0529 5.67083C23.9777 5.56683 23.6353 5.40203 23.0417 5.40203H22.9601C22.3266 5.44169 21.6982 5.54079 21.0833 5.69803L19.5633 6.11723C19.1157 6.22459 18.7 6.43683 18.3505 6.73643L17.9809 7.08043L17.6209 6.72523C17.2465 6.35243 17.0881 5.96843 17.1505 5.57963C17.2241 5.12523 17.5953 4.73003 18.2529 4.40363C19.2625 3.90283 21.8721 3.36523 22.9473 3.36523C24.1617 3.36523 25.0801 3.72363 25.6049 4.40363C26.0849 5.02123 26.2033 5.87083 25.9553 6.86123V10.5412C26.2369 11.2164 27.2465 13.6596 27.7393 14.7716L28.0001 15.3892C28.1377 15.7092 28.2689 16.0084 28.3921 16.2996C29.8033 19.6052 30.4049 21.9332 30.4049 22.9412C30.4026 23.692 30.2524 24.4349 29.963 25.1276C29.6736 25.8203 29.2505 26.4493 28.718 26.9785C28.1856 27.5077 27.554 27.9269 26.8596 28.212C26.1651 28.4972 25.4212 28.6427 24.6705 28.6404Z" fill="#666666"/>
<path d="M4.14873 12.8208C3.73384 12.81 3.33937 12.6385 3.0486 12.3423C2.75783 12.0462 2.59351 11.6486 2.59033 11.2336V6.4672C2.59351 6.05219 2.75783 5.65464 3.0486 5.3585C3.33937 5.06235 3.73384 4.89078 4.14873 4.88H12.0559C12.2586 4.88497 12.4583 4.93001 12.6435 5.01254C12.8288 5.09507 12.9958 5.21345 13.135 5.36086C13.2742 5.50826 13.3829 5.68178 13.4547 5.87139C13.5266 6.061 13.5601 6.26295 13.5535 6.4656V11.2336C13.5535 12.1232 12.8959 12.8208 12.0559 12.8208H4.14873ZM11.5087 10.7824V6.9184H4.63993V10.784L11.5087 10.7824Z" fill="#666666"/>
</svg>
