<svg width="18" height="18" viewBox="0 0 18 18" fill="none" xmlns="http://www.w3.org/2000/svg">
<path d="M2.25 15.7504L7.16147 10.8383M2.25 15.7504L12.0548 14.1163C12.1521 14.1 12.2435 14.0585 12.3197 13.9958C12.396 13.933 12.4543 13.8514 12.489 13.7589L14.0625 9.5629M2.25 15.7504L3.88413 5.94563C3.90036 5.84826 3.94192 5.75688 4.00465 5.68066C4.06737 5.60444 4.14905 5.54607 4.24147 5.51141L8.4375 3.9379M14.0625 9.5629L8.4375 3.9379M14.0625 9.5629L15.9148 7.71065C15.967 7.65842 16.0084 7.59641 16.0367 7.52816C16.065 7.45992 16.0795 7.38677 16.0795 7.3129C16.0795 7.23903 16.065 7.16589 16.0367 7.09764C16.0084 7.0294 15.967 6.96739 15.9148 6.91516L11.0852 2.08565C10.9798 1.98016 10.8367 1.9209 10.6875 1.9209C10.5383 1.9209 10.3952 1.98016 10.2898 2.08565L8.4375 3.9379M9.56209 9.84391C9.56209 10.6206 8.93249 11.2502 8.15584 11.2502C7.37919 11.2502 6.74959 10.6206 6.74959 9.84391C6.74959 9.06726 7.37919 8.43766 8.15584 8.43766C8.93249 8.43766 9.56209 9.06726 9.56209 9.84391Z" stroke="#3355FF" strokeWidth="1.5" strokeLinecap="round" strokeLinejoin="round"/>
</svg>
