<svg width="299" height="184" viewBox="0 0 299 184" fill="none" xmlns="http://www.w3.org/2000/svg">
<path d="M2.10596 162.226H296.666" stroke="#D3DCF4" strokeWidth="3.73333" strokeLinecap="round" strokeLinejoin="round"/>
<path d="M144.719 137.772H131.279V157.746H144.719V137.772Z" fill="url(#paint0_linear_129_7668)"/>
<path d="M151.159 154.572H124.839C123.241 154.572 121.946 155.868 121.946 157.466C121.946 159.064 123.241 160.359 124.839 160.359H151.159C152.757 160.359 154.052 159.064 154.052 157.466C154.052 155.868 152.757 154.572 151.159 154.572Z" fill="#FF5C00"/>
<path d="M225.359 17.1855H56.9861C50.8005 17.1855 45.7861 22.2 45.7861 28.3855V126.572C45.7861 132.758 50.8005 137.772 56.9861 137.772H225.359C231.545 137.772 236.559 132.758 236.559 126.572V28.3855C236.559 22.2 231.545 17.1855 225.359 17.1855Z" fill="url(#paint1_linear_129_7668)" stroke="#FF5C00" strokeWidth="3.36" stroke-miterlimit="10"/>
<path d="M63.5194 37.9061C66.6122 37.9061 69.1194 35.3988 69.1194 32.3061C69.1194 29.2133 66.6122 26.7061 63.5194 26.7061C60.4266 26.7061 57.9194 29.2133 57.9194 32.3061C57.9194 35.3988 60.4266 37.9061 63.5194 37.9061Z" fill="white" stroke="#FE9F39" strokeWidth="4.48" stroke-miterlimit="10"/>
<path d="M81.4394 37.9061C84.5322 37.9061 87.0394 35.3988 87.0394 32.3061C87.0394 29.2133 84.5322 26.7061 81.4394 26.7061C78.3466 26.7061 75.8394 29.2133 75.8394 32.3061C75.8394 35.3988 78.3466 37.9061 81.4394 37.9061Z" fill="url(#paint2_linear_129_7668)" stroke="#FF5C00" strokeWidth="3.36" strokeLinecap="round" strokeLinejoin="round"/>
<path d="M98.6127 37.9061C101.705 37.9061 104.213 35.3988 104.213 32.3061C104.213 29.2133 101.705 26.7061 98.6127 26.7061C95.5199 26.7061 93.0127 29.2133 93.0127 32.3061C93.0127 35.3988 95.5199 37.9061 98.6127 37.9061Z" fill="url(#paint3_linear_129_7668)" stroke="#FF5C00" strokeWidth="3.36" strokeLinecap="round" strokeLinejoin="round"/>
<path d="M45.2261 119.106L235.253 119.853" stroke="#FF5C00" strokeWidth="3.36" stroke-miterlimit="10"/>
<path d="M114.666 49.293H79.3856C75.2619 49.293 71.9189 52.6359 71.9189 56.7596V92.0396C71.9189 96.1634 75.2619 99.5063 79.3856 99.5063H114.666C118.789 99.5063 122.132 96.1634 122.132 92.0396V56.7596C122.132 52.6359 118.789 49.293 114.666 49.293Z" fill="#3A3A77"/>
<path d="M160.278 42.3615C156.642 43.7764 152.998 45.1932 149.485 46.9031C146.595 48.3105 143.896 50.0391 141.111 51.6332C138.894 52.9025 135.298 54.9167 135.959 58.0097C136.519 60.6772 139.931 60.8097 142.091 60.6231C145.334 60.3375 148.481 59.3575 151.527 58.2599C154.992 57.0111 158.391 55.6036 161.926 54.5583C162.404 54.4183 162.882 54.2783 163.366 54.1607C163.595 54.1065 163.825 54.0599 164.056 54.0169C164.476 53.9367 163.746 54.0337 164.015 54.0169C164.138 54.0169 164.262 53.9945 164.389 53.9927C164.474 53.9927 164.575 54.0113 164.654 54.0039C164.215 54.0487 164.28 53.9236 164.486 54.0039C164.24 53.9283 164.026 53.7766 163.872 53.571C163.719 53.3653 163.635 53.1161 163.633 52.8596C163.633 53.0201 163.739 52.3612 163.651 52.7177C163.563 53.0743 163.806 52.4583 163.666 52.7047C163.595 52.8297 163.53 52.9585 163.453 53.078C163.397 53.1695 163.332 53.2535 163.278 53.3449C163.145 53.5615 163.522 53.0705 163.319 53.2945C163.137 53.5024 162.941 53.6988 162.735 53.8825L162.569 54.0207C162.29 54.2652 162.802 53.8564 162.604 53.9983C162.466 54.0972 162.33 54.1999 162.191 54.2969C161.648 54.6796 161.085 55.0436 160.545 55.4169C159.268 56.3297 158.066 57.3993 157.601 58.9636C157.291 60.0033 157.374 61.1289 158.102 61.9727C158.678 62.6409 159.595 62.8855 160.442 62.8873C162.309 62.8873 164.176 62.0697 165.856 61.3529C167.631 60.6063 169.356 59.7327 171.058 58.8292C172.4 58.118 173.763 57.4236 175.086 56.6769C175.883 56.2289 176.673 55.766 177.485 55.346C177.858 55.1593 178.249 54.9615 178.641 54.786C178.364 54.9055 178.87 54.6983 178.963 54.6647C179.202 54.5788 179.443 54.5004 179.69 54.4332C179.876 54.3809 180.063 54.3361 180.268 54.2969C180.388 54.2745 180.944 54.2204 180.556 54.2465C180.714 54.2353 180.871 54.2148 181.03 54.2111C181.233 54.2111 181.674 54.3137 181.099 54.1812C181.435 54.2596 180.849 54.0393 180.966 54.1065C180.689 53.9177 180.478 53.6459 180.363 53.33C180.261 52.9287 180.315 52.8503 180.313 53.0108C180.313 52.6375 180.38 52.5441 180.349 52.7047C180.342 52.7399 180.331 52.7744 180.317 52.8073C180.231 53.0369 180.537 52.4079 180.39 52.6207C179.27 54.282 177.728 56.6172 179.083 58.594C180.438 60.5708 183.173 60.3449 185.243 60.0463C187.011 59.7797 188.747 59.3312 190.423 58.7079C192.375 57.9948 194.276 57.1473 196.174 56.2999L197.539 55.6913L198.183 55.4095L198.506 55.2676L198.737 55.1687C198.616 55.2209 198.608 55.2228 198.718 55.1687C199.667 54.7953 200.626 54.4071 201.533 53.9385C202.069 53.6623 202.571 53.3281 203.092 53.0276C203.34 52.8839 203.592 52.7439 203.85 52.6151L204.037 52.5236C204.257 52.4153 204.186 52.5684 203.943 52.5591C204.058 52.5395 204.169 52.5037 204.274 52.4527C203.9 52.6673 203.154 52.2903 202.874 51.9393C202.665 51.6752 202.563 51.3418 202.59 51.006C202.638 50.5935 202.532 51.0247 202.534 51.0844C202.534 51.0713 202.734 50.6719 202.614 50.8977C202.582 50.9575 202.554 51.0209 202.523 51.0844C202.284 51.5455 201.994 51.9785 201.713 52.4135C201.457 52.8073 201.153 53.2236 201.041 53.6828C200.832 54.5687 200.797 55.4866 200.938 56.3857C201.167 58.09 202.002 59.6823 203.564 60.5148C206.144 61.8887 209.317 61.1812 212.03 60.6585C212.616 60.5465 213.202 60.4308 213.792 60.3356C213.926 60.3132 214.068 60.3039 214.199 60.2721C213.7 60.3897 214.09 60.2871 214.238 60.2721C214.503 60.2441 214.768 60.2255 215.033 60.2217C215.912 60.2105 216.754 59.4583 216.713 58.5417C216.672 57.6252 215.966 56.8505 215.033 56.8617C213.764 56.8785 212.494 57.1585 211.251 57.3975C210.607 57.5207 209.961 57.6457 209.312 57.7503C209.153 57.7745 208.994 57.7951 208.836 57.8212C208.601 57.8604 209.162 57.7857 208.925 57.81L208.688 57.838C208.358 57.8753 208.027 57.9052 207.695 57.922C207.395 57.9369 207.092 57.9425 206.792 57.9332C206.646 57.9332 206.501 57.9201 206.357 57.9071C206.286 57.8918 206.214 57.8842 206.142 57.8847C206.398 57.922 206.459 57.9295 206.329 57.9089L206.174 57.8828C205.91 57.8284 205.65 57.7599 205.394 57.6775C205.134 57.6009 205.493 57.7167 205.522 57.7391C205.462 57.7072 205.4 57.6798 205.336 57.6569C205.192 57.586 205.059 57.4983 204.921 57.4143C204.694 57.2761 205.203 57.6719 204.886 57.3769C204.839 57.3359 204.669 57.0988 204.615 57.0951C204.645 57.0951 204.843 57.4404 204.692 57.194C204.649 57.1231 204.6 57.0559 204.557 56.9831C204.514 56.9103 204.479 56.8281 204.436 56.7553C204.546 56.942 204.494 56.9084 204.436 56.7255C204.376 56.5525 204.327 56.3761 204.289 56.1972C204.27 56.1076 204.257 56.0105 204.236 55.9247C204.18 55.6783 204.249 56.2047 204.236 55.9527C204.223 55.5569 204.208 55.1761 204.236 54.7804C204.264 54.3847 204.236 54.8383 204.225 54.8383C204.214 54.8383 204.272 54.6217 204.272 54.5919C204.285 54.3473 204.051 54.9876 204.178 54.8103C204.305 54.6329 204.386 54.4556 204.494 54.2876C204.774 53.8527 205.065 53.4233 205.317 52.9809C205.625 52.4209 205.92 51.8124 205.926 51.1647C205.931 50.9057 205.884 50.6483 205.789 50.4073C205.694 50.1663 205.553 49.9465 205.372 49.7605C205.192 49.5745 204.977 49.426 204.739 49.3236C204.501 49.2211 204.245 49.1668 203.986 49.1636C202.797 49.1785 201.643 49.9831 200.663 50.5897C200.322 50.8013 199.973 50.996 199.614 51.174C199.417 51.2711 199.217 51.3607 199.017 51.4521L198.715 51.5847C198.929 51.4913 198.67 51.6033 198.584 51.6388C197.611 52.042 196.641 52.4489 195.678 52.8764C192.898 54.1084 190.546 55.2751 187.61 56.1076C186.736 56.3587 185.849 56.5643 184.954 56.7236C184.724 56.7647 184.489 56.7889 184.259 56.8337C184.819 56.7273 184.42 56.8113 184.276 56.8337C184.132 56.8561 183.992 56.8636 183.849 56.8748C183.407 56.9121 182.964 56.9178 182.521 56.8916C182.422 56.8916 182.323 56.8673 182.226 56.8636C182.187 56.8636 182.693 56.9569 182.323 56.8636C182.137 56.8207 181.969 56.7665 181.79 56.7161C181.61 56.6657 182.197 56.942 181.917 56.7647C181.857 56.7212 181.795 56.6819 181.73 56.6471C181.571 56.5705 182.068 56.9905 181.84 56.7161C181.653 56.4959 182.126 57.1044 181.922 56.8244C181.907 56.7923 181.889 56.7611 181.87 56.7311C181.754 56.5985 181.976 56.9476 181.973 56.9793C181.964 56.9034 181.944 56.8291 181.913 56.7591C181.836 56.5724 181.954 56.998 181.946 57.0241C181.949 56.9812 181.949 56.9382 181.946 56.8953C181.946 56.8524 181.946 56.8039 181.946 56.7609C181.946 56.5743 182.057 56.5108 181.915 56.9177C181.984 56.7028 182.042 56.484 182.086 56.2625C182.139 56.0255 181.879 56.6657 182.066 56.3148C182.124 56.2065 182.18 56.0983 182.241 55.9919C182.714 55.1836 183.402 54.4463 183.611 53.5092C183.721 53.0677 183.684 52.6024 183.506 52.1838C183.328 51.7652 183.018 51.4159 182.624 51.1889C181.982 50.8268 181.202 50.8156 180.49 50.9033C177.201 51.2767 174.441 53.2385 171.573 54.7412C170.356 55.3796 169.158 56.0479 167.933 56.6751C167.077 57.1119 166.212 57.5356 165.339 57.9351C165.122 58.034 164.907 58.1217 164.689 58.2263L164.316 58.3831C163.993 58.5231 164.672 58.2393 164.275 58.3999C163.836 58.5865 163.394 58.7545 162.946 58.9151C162.205 59.1761 161.445 59.3819 160.674 59.5311C160.431 59.5796 161.2 59.4844 160.803 59.5105L160.584 59.5255C160.442 59.5255 160.302 59.5124 160.162 59.5255C160.022 59.5385 160.659 59.6449 160.388 59.5535C160.336 59.5363 160.282 59.5226 160.228 59.5124C159.95 59.4564 160.629 59.6991 160.45 59.6095C160.271 59.5199 160.17 59.3705 160.607 59.7569C160.571 59.7252 160.538 59.6935 160.506 59.6599C160.366 59.5087 160.801 60.0929 160.668 59.8577C160.536 59.6225 160.834 60.2516 160.763 60.0892C160.73 60.0089 160.7 59.7345 160.752 60.1153C160.805 60.4961 160.795 60.0239 160.782 59.9175C160.782 59.9175 160.681 60.3935 160.747 60.2012C160.76 60.1657 160.76 60.1228 160.769 60.0873C160.803 59.9641 160.851 59.8372 160.877 59.714C160.92 59.5049 160.717 60.0052 160.829 59.8241C160.864 59.7644 160.89 59.6991 160.924 59.6375C160.993 59.5143 161.079 59.4023 161.152 59.2809C161.262 59.0943 160.931 59.5199 161.086 59.3687C161.137 59.3183 161.18 59.2585 161.228 59.2063C161.34 59.0831 161.458 58.9673 161.579 58.8553C161.701 58.7433 161.805 58.6556 161.921 58.5604C161.98 58.5082 162.042 58.4602 162.107 58.4167C161.785 58.6145 161.966 58.5249 162.044 58.4689C162.333 58.2673 162.619 58.062 162.912 57.866C164.12 57.054 165.326 56.2607 166.171 55.0529C167.017 53.8452 167.502 51.8796 165.908 51.0023C164.844 50.4143 163.543 50.6719 162.425 50.9425C161.18 51.2468 159.944 51.6388 158.731 52.0457C155.145 53.2441 151.675 54.7636 148.07 55.9023C146.396 56.4496 144.684 56.8739 142.948 57.1716L142.694 57.2108L142.554 57.2313C142.367 57.2631 142.983 57.1772 142.78 57.1996C142.535 57.2276 142.291 57.2575 142.045 57.278C141.544 57.3231 141.041 57.3412 140.538 57.3321C140.295 57.3321 140.053 57.3023 139.81 57.2855C139.536 57.2668 139.984 57.2985 139.997 57.3116C139.941 57.298 139.884 57.2887 139.827 57.2836C139.691 57.2556 139.554 57.2313 139.42 57.194C139.317 57.166 139.22 57.1268 139.119 57.0988C138.877 57.0316 139.504 57.3191 139.183 57.1175C138.948 56.97 139.056 56.9308 139.235 57.1903C139.204 57.1592 139.171 57.1305 139.136 57.1044C138.97 56.9308 139.175 56.9943 139.231 57.2481C139.212 57.2101 139.19 57.1738 139.164 57.1399C139.073 56.9719 139.274 57.1959 139.256 57.3639C139.247 57.3206 139.234 57.2781 139.218 57.2369C139.174 57.0503 139.304 57.2369 139.246 57.4759C139.258 57.3748 139.258 57.2727 139.246 57.1716C139.271 57.2108 139.14 57.6084 139.23 57.3583C139.254 57.2933 139.272 57.2265 139.286 57.1585C139.31 56.9719 139.099 57.502 139.207 57.3452C139.237 57.2985 139.258 57.2444 139.284 57.1977C139.342 57.0951 139.416 57.0111 139.47 56.9028C139.575 56.7273 139.233 57.1679 139.383 57.0223C139.427 56.9756 139.469 56.9233 139.511 56.8748C139.616 56.7609 139.724 56.6527 139.838 56.5463C139.952 56.4399 140.053 56.3596 140.165 56.2569C140.221 56.2084 140.281 56.1617 140.338 56.1151C140.568 55.9284 140.295 56.1375 140.271 56.1636C140.488 55.9153 140.885 55.7231 141.162 55.542C141.744 55.1687 142.345 54.8065 142.952 54.4612C144.031 53.8489 145.093 53.2292 146.147 52.5759C147.774 51.5731 149.451 50.6535 151.171 49.8207C151.996 49.42 152.829 49.0336 153.67 48.6615C154.077 48.4748 154.486 48.3012 154.895 48.1276L155.203 47.9951C155.464 47.8849 155.005 48.0791 155.266 47.9689L155.962 47.6796C157.685 46.9703 159.423 46.2945 161.161 45.6263C161.977 45.3089 162.634 44.4839 162.333 43.5599C162.078 42.7665 161.144 42.0441 160.267 42.3857L160.278 42.3615Z" fill="#FE9F39"/>
<path d="M99.9041 77.5286C102.059 76.8218 103.891 75.3701 105.071 73.4342C106.252 71.4983 106.704 69.2049 106.346 66.9658C105.988 64.7268 104.844 62.6886 103.118 61.2172C101.393 59.7458 99.1999 58.9375 96.9324 58.9375C94.6649 58.9375 92.4716 59.7458 90.7463 61.2172C89.021 62.6886 87.8767 64.7268 87.5188 66.9658C87.1609 69.2049 87.6128 71.4983 88.7935 73.4342C89.9741 75.3701 91.8061 76.8218 93.9606 77.5286C90.4864 78.02 87.3054 79.7465 85.0003 82.392C82.6953 85.0375 81.4204 88.4249 81.4092 91.9337V99.5049H112.456V91.9337C112.444 88.4249 111.17 85.0375 108.864 82.392C106.559 79.7465 103.378 78.02 99.9041 77.5286Z" fill="white"/>
<path d="M203.706 70.3857H141.919C140.063 70.3857 138.559 71.8901 138.559 73.7457C138.559 75.6014 140.063 77.1057 141.919 77.1057H203.706C205.561 77.1057 207.066 75.6014 207.066 73.7457C207.066 71.8901 205.561 70.3857 203.706 70.3857Z" fill="#FF5C00"/>
<path d="M188.959 90.9189H141.919C140.063 90.9189 138.559 92.4233 138.559 94.2789C138.559 96.1346 140.063 97.6389 141.919 97.6389H188.959C190.815 97.6389 192.319 96.1346 192.319 94.2789C192.319 92.4233 190.815 90.9189 188.959 90.9189Z" fill="#FF5C00"/>
<path d="M209.119 104.732H201.279C200.248 104.732 199.413 105.568 199.413 106.599C199.413 107.63 200.248 108.466 201.279 108.466H209.119C210.15 108.466 210.986 107.63 210.986 106.599C210.986 105.568 210.15 104.732 209.119 104.732Z" fill="#FE9F39"/>
<path d="M222.746 104.732H217.893C216.862 104.732 216.026 105.568 216.026 106.599C216.026 107.63 216.862 108.466 217.893 108.466H222.746C223.777 108.466 224.613 107.63 224.613 106.599C224.613 105.568 223.777 104.732 222.746 104.732Z" fill="#FE9F39"/>
<path d="M221.439 145.986L216.026 163.346L233.013 156.44L221.439 145.986Z" fill="#FE9F39"/>
<path d="M284.191 96.0127L275.398 88.2034C274.55 87.4503 273.252 87.5272 272.499 88.3751L221.801 145.458C221.048 146.306 221.125 147.604 221.972 148.357L230.765 156.166C231.613 156.919 232.911 156.842 233.664 155.995L284.362 98.9115C285.116 98.0636 285.039 96.7657 284.191 96.0127Z" fill="#3A3A77"/>
<path d="M96.888 170.811C114.808 168.545 132.689 166.102 150.648 164.181C163.653 162.79 176.688 161.702 189.727 160.679C195.224 160.248 200.725 159.787 206.234 159.514L204.613 157.388C204.697 157.153 204.823 156.936 204.987 156.748C204.772 156.979 205.194 156.537 205.198 156.599C205.201 156.66 204.824 156.838 204.774 156.864C204.322 157.119 203.841 157.334 203.368 157.547C203.066 157.681 202.76 157.812 202.455 157.943C202.383 157.98 202.307 158.012 202.23 158.038C202.004 158.131 201.778 158.225 201.55 158.318C200.617 158.701 199.683 159.065 198.735 159.438C193.695 161.405 188.62 163.278 183.557 165.182C177.853 167.328 172.15 169.486 166.5 171.769C162.119 173.541 157.654 175.295 153.511 177.586C152.425 178.187 151.219 178.849 150.402 179.801C149.797 180.505 149.407 181.481 149.913 182.357C150.346 183.115 151.137 183.313 151.932 183.402C153.383 183.566 154.88 183.438 156.332 183.348C158.831 183.193 161.327 182.962 163.821 182.713C174.129 181.687 184.403 180.346 194.677 179.019C213.766 176.553 232.49 172.094 251.252 167.894C253.567 167.377 255.883 166.866 258.2 166.359C260.313 165.9 259.419 162.66 257.307 163.119C237.459 167.431 217.699 172.546 197.548 175.29C188.021 176.588 178.474 177.764 168.91 178.818C163.989 179.359 159.031 179.966 154.079 180.094C153.448 180.111 152.825 180.094 152.195 180.07C151.764 180.051 152.307 180.093 152.287 180.089C152.208 180.081 152.131 180.065 152.055 180.04C151.761 179.925 152.453 180.227 152.3 180.147C152.572 180.331 152.783 180.593 152.905 180.898C153.027 181.203 153.055 181.537 152.985 181.858C153.06 181.524 152.825 182.193 152.892 182.058C153.015 181.812 153.11 181.982 152.778 182.178C152.927 182.051 153.065 181.911 153.19 181.759C153.304 181.649 153.696 181.399 153.19 181.759C153.302 181.681 153.413 181.597 153.525 181.519C153.786 181.332 154.057 181.168 154.329 181.003C155.919 180.075 157.561 179.236 159.246 178.493C160.306 178.004 161.374 177.533 162.447 177.072C162.735 176.947 163.024 176.826 163.311 176.699C163.685 176.542 163.42 176.65 163.801 176.492C164.465 176.214 165.133 175.932 165.8 175.663C171.277 173.423 176.813 171.31 182.346 169.219C187.548 167.257 192.766 165.329 197.955 163.332C199.781 162.628 201.602 161.919 203.406 161.163C204.526 160.698 205.715 160.265 206.736 159.613C207.21 159.311 207.755 158.867 207.856 158.281C208.042 157.269 207.413 156.097 206.235 156.154C194.97 156.714 183.714 157.773 172.481 158.738C157.413 160.035 142.375 161.665 127.371 163.55C117.207 164.823 107.052 166.163 96.888 167.455C95.9883 167.569 95.208 168.146 95.208 169.135C95.208 169.955 95.9808 170.929 96.888 170.815V170.811Z" fill="#FE9F39"/>
<path d="M267.173 8.03908L259.146 0.385742L250.186 15.8791L267.173 8.03908Z" fill="#D3DCF4"/>
<path d="M276.879 19.0527L252.613 21.8527L276.879 29.6927V19.0527Z" fill="#D3DCF4"/>
<path opacity="0.3" d="M21.8367 156.089L15.7159 152.559C15.2661 152.292 15.3127 151.829 15.8447 151.521L21.6594 148.161C22.1914 147.855 23.0071 147.822 23.4551 148.089L29.5778 151.617C30.0407 151.883 29.981 152.348 29.449 152.656L23.6362 156.016C23.1042 156.313 22.2997 156.354 21.8367 156.089Z" fill="#C9CFE5"/>
<path d="M29.8897 149.184C29.8916 149.166 29.8916 149.147 29.8897 149.128V85.1016H15.4062V149.197C15.4128 149.293 15.445 149.386 15.4995 149.465C15.5541 149.544 15.6289 149.607 15.7161 149.647L21.8369 153.175C22.2998 153.44 23.1044 153.401 23.6345 153.1L29.4473 149.74C29.5572 149.69 29.654 149.615 29.7301 149.521C29.8062 149.427 29.8595 149.317 29.886 149.199L29.8897 149.184Z" fill="url(#paint4_linear_129_7668)"/>
<path d="M21.8367 89.1165L15.7159 85.5866C15.2661 85.3197 15.3127 84.8549 15.8447 84.5487L21.6594 81.1887C22.1914 80.8807 23.0071 80.8471 23.4551 81.1122C23.755 81.2902 25.7959 82.4674 29.5778 84.6439C30.0407 84.909 29.981 85.3738 29.449 85.6799L23.6362 89.0399C23.1042 89.3498 22.2997 89.3797 21.8367 89.1165Z" fill="#FAFBFD"/>
<path opacity="0.3" d="M40.7351 159.874L28.0418 152.561C27.0823 152.012 27.2018 151.049 28.3087 150.41L40.373 143.464C41.478 142.828 43.1487 142.761 44.1063 143.309L56.7996 150.623C57.7554 151.183 57.6359 152.137 56.5308 152.775L44.4722 159.719C43.3596 160.358 41.6927 160.425 40.7351 159.874Z" fill="#A0B3F8"/>
<path d="M57.4363 146.69C57.4401 146.652 57.4401 146.613 57.4363 146.575V119.047H27.3979V146.713C27.3979 147.062 27.6089 147.387 28.0438 147.646L40.7372 154.956C41.6929 155.516 43.3654 155.439 44.4705 154.803L56.5291 147.851C57.0891 147.53 57.3915 147.123 57.4289 146.731L57.4363 146.69Z" fill="url(#paint5_linear_129_7668)"/>
<path d="M40.7351 127.374L28.0418 120.053C27.0823 119.493 27.2018 118.537 28.3087 117.903L40.373 110.944C41.478 110.309 43.1506 110.238 44.1063 110.791L56.7996 118.102C57.7554 118.662 57.6359 119.618 56.5327 120.253L44.4722 127.212C43.3596 127.856 41.6927 127.927 40.7351 127.374Z" fill="url(#paint6_linear_129_7668)"/>
<defs>
<linearGradient id="paint0_linear_129_7668" x1="131.279" y1="147.759" x2="144.719" y2="147.759" gradientUnits="userSpaceOnUse">
<stop stop-color="#EBF4FF"/>
<stop offset="1" stop-color="#EBE1FF"/>
</linearGradient>
<linearGradient id="paint1_linear_129_7668" x1="45.7861" y1="77.4789" x2="236.559" y2="77.4789" gradientUnits="userSpaceOnUse">
<stop stop-color="#FFF3EB"/>
<stop offset="1" stop-color="#FFE1E1"/>
</linearGradient>
<linearGradient id="paint2_linear_129_7668" x1="75.8394" y1="32.3061" x2="87.0394" y2="32.3061" gradientUnits="userSpaceOnUse">
<stop stop-color="#EBF4FF"/>
<stop offset="1" stop-color="#EBEBFF"/>
</linearGradient>
<linearGradient id="paint3_linear_129_7668" x1="93.0127" y1="-53.0006" x2="104.213" y2="-53.0006" gradientUnits="userSpaceOnUse">
<stop stop-color="#EBF4FF"/>
<stop offset="1" stop-color="#EBEBFF"/>
</linearGradient>
<linearGradient id="paint4_linear_129_7668" x1="15.3782" y1="119.436" x2="29.8823" y2="119.436" gradientUnits="userSpaceOnUse">
<stop stop-color="#EAEFF5"/>
<stop offset="0.99" stop-color="#DEE1F0"/>
</linearGradient>
<linearGradient id="paint5_linear_129_7668" x1="32.0064" y1="136.567" x2="61.753" y2="136.567" gradientUnits="userSpaceOnUse">
<stop stop-color="#FF9254"/>
<stop offset="1" stop-color="#FFCE94"/>
</linearGradient>
<linearGradient id="paint6_linear_129_7668" x1="27.3959" y1="119.082" x2="57.4418" y2="119.082" gradientUnits="userSpaceOnUse">
<stop stop-color="#EBF4FF"/>
<stop offset="1" stop-color="#EBEBFF"/>
</linearGradient>
</defs>
</svg>
