<svg width="40" height="40" viewBox="0 0 40 40" fill="none" xmlns="http://www.w3.org/2000/svg">
<path fill-rule="evenodd" clip-rule="evenodd" d="M25.1767 32.53C25.6083 33.0683 25.5217 33.855 24.9833 34.2883C23.375 35.58 21.7067 36.25 20 36.25C18.2933 36.25 16.625 35.58 15.0167 34.2883C14.4783 33.855 14.3917 33.0683 14.8233 32.53C15.2567 31.9917 16.0433 31.9067 16.5817 32.3383C17.7733 33.295 18.905 33.75 20 33.75C21.095 33.75 22.2267 33.295 23.4183 32.3383C23.9567 31.905 24.7433 31.9917 25.1767 32.53ZM7.5 30C6.81 30 6.25 29.44 6.25 28.75C6.25 28.1083 6.73333 27.58 7.355 27.5083L7.5 27.5H8.75V17.5C8.75 11.7083 13.125 6.94 18.75 6.31833V5C18.75 4.31 19.31 3.75 20 3.75C20.6417 3.75 21.17 4.23333 21.2417 4.855L21.25 5V6.31833C26.875 6.94167 31.25 11.71 31.25 17.5V27.5H32.5C33.19 27.5 33.75 28.06 33.75 28.75C33.75 29.3917 33.2667 29.92 32.645 29.9917L32.5 30H7.5ZM20 8.75C15.1667 8.75 11.25 12.6667 11.25 17.5V27.5H28.75V17.5C28.75 12.7667 24.9933 8.91333 20.3 8.755L20 8.75Z" fill="#333333"/>
</svg>
