<svg width="34" height="34" viewBox="0 0 34 34" fill="none" xmlns="http://www.w3.org/2000/svg">
<path fill-rule="evenodd" clip-rule="evenodd" d="M22.1767 29.53C22.6083 30.0683 22.5217 30.855 21.9833 31.2883C20.375 32.58 18.7067 33.25 17 33.25C15.2933 33.25 13.625 32.58 12.0167 31.2883C11.4783 30.855 11.3917 30.0683 11.8233 29.53C12.2567 28.9917 13.0433 28.9067 13.5817 29.3383C14.7733 30.295 15.905 30.75 17 30.75C18.095 30.75 19.2267 30.295 20.4183 29.3383C20.9567 28.905 21.7433 28.9917 22.1767 29.53ZM4.5 27C3.81 27 3.25 26.44 3.25 25.75C3.25 25.1083 3.73333 24.58 4.355 24.5083L4.5 24.5H5.75V14.5C5.75 8.70833 10.125 3.94 15.75 3.31833V2C15.75 1.31 16.31 0.75 17 0.75C17.6417 0.75 18.17 1.23333 18.2417 1.855L18.25 2V3.31833C23.875 3.94167 28.25 8.71 28.25 14.5V24.5H29.5C30.19 24.5 30.75 25.06 30.75 25.75C30.75 26.3917 30.2667 26.92 29.645 26.9917L29.5 27H4.5ZM17 5.75C12.1667 5.75 8.25 9.66667 8.25 14.5V24.5H25.75V14.5C25.75 9.76667 21.9933 5.91333 17.3 5.755L17 5.75Z" fill="#FF5C00"/>
</svg>
