<svg width="24" height="24" viewBox="0 0 24 24" fill="none" xmlns="http://www.w3.org/2000/svg">
<path d="M12 22.0145C11.8712 22.0145 11.7446 21.9813 11.6323 21.9181L3.3823 17.2775C3.26632 17.2123 3.16978 17.1173 3.10259 17.0025C3.03541 16.8876 3 16.7569 3 16.6238V7.3761C3 7.24302 3.03541 7.11234 3.10259 6.99746C3.16978 6.88259 3.26632 6.78766 3.3823 6.72242L11.6323 2.08179C11.7446 2.01865 11.8712 1.98547 12 1.98547C12.1288 1.98547 12.2554 2.01865 12.3677 2.08179L20.6177 6.72242C20.7337 6.78766 20.8302 6.88259 20.8974 6.99746C20.9646 7.11234 21 7.24302 21 7.3761V16.6238C21 16.7569 20.9646 16.8876 20.8974 17.0025C20.8302 17.1173 20.7337 17.2123 20.6177 17.2775L12.3677 21.9181C12.2554 21.9813 12.1288 22.0145 12 22.0145ZM12 22.0145L12.089 12M16.5958 14.2979V9.42287L7.5 4.40621M20.8966 6.99624L12.089 12M12.089 12L3.10388 6.99531" stroke="#FF5C00" strokeWidth="1.5" strokeLinecap="round" strokeLinejoin="round"/>
</svg>
