<svg width="20" height="20" viewBox="0 0 20 20" fill="none" xmlns="http://www.w3.org/2000/svg">
<path d="M10 18.3451C9.89266 18.3451 9.78714 18.3175 9.69359 18.2648L2.81859 14.3977C2.72193 14.3433 2.64148 14.2642 2.58549 14.1685C2.52951 14.0727 2.5 13.9638 2.5 13.8529V6.14648C2.5 6.03559 2.52951 5.92668 2.58549 5.83096C2.64148 5.73523 2.72193 5.65612 2.81859 5.60175L9.69359 1.73456C9.78714 1.68194 9.89266 1.6543 10 1.6543C10.1073 1.6543 10.2129 1.68194 10.3064 1.73456L17.1814 5.60175C17.2781 5.65612 17.3585 5.73523 17.4145 5.83096C17.4705 5.92668 17.5 6.03559 17.5 6.14648V13.8529C17.5 13.9638 17.4705 14.0727 17.4145 14.1685C17.3585 14.2642 17.2781 14.3433 17.1814 14.3977L10.3064 18.2648C10.2129 18.3175 10.1073 18.3451 10 18.3451ZM10 18.3451L10.0741 9.9997M13.8298 11.9146V7.85213L6.25 3.67158M17.4138 5.82994L10.0741 9.9997M10.0741 9.9997L2.58656 5.82916" stroke="#333333" strokeWidth="1.5" strokeLinecap="round" strokeLinejoin="round"/>
</svg>
