<svg width="18" height="18" viewBox="0 0 18 18" fill="none" xmlns="http://www.w3.org/2000/svg">
<path d="M6.71406 15.1515L2.84827 11.2857M9.5625 4.49991L13.5 8.43741M6.517 15.1874H3.375C3.22582 15.1874 3.08274 15.1282 2.97725 15.0227C2.87176 14.9172 2.8125 14.7741 2.8125 14.6249V11.4829C2.8125 11.409 2.82705 11.3359 2.85532 11.2677C2.88359 11.1994 2.92502 11.1374 2.97725 11.0852L11.4148 2.64766C11.5202 2.54217 11.6633 2.48291 11.8125 2.48291C11.9617 2.48291 12.1048 2.54217 12.2102 2.64766L15.3523 5.78967C15.4577 5.89516 15.517 6.03823 15.517 6.18741C15.517 6.3366 15.4577 6.47967 15.3523 6.58516L6.91475 15.0227C6.86252 15.0749 6.80051 15.1163 6.73226 15.1446C6.66402 15.1729 6.59087 15.1874 6.517 15.1874Z" stroke="#FF5C00" strokeWidth="1.5" strokeLinecap="round" strokeLinejoin="round"/>
</svg>
