<svg width="18" height="18" viewBox="0 0 18 18" fill="none" xmlns="http://www.w3.org/2000/svg">
<path d="M11.9228 10.6875L9 9V5.625M12.9492 7.01128H15.7617M15.7617 7.01128V4.19878M15.7617 7.01128L13.3752 4.62478C12.5099 3.75944 11.4074 3.17014 10.2071 2.93139C9.00686 2.69265 7.76276 2.81518 6.63215 3.2835C5.50153 3.75182 4.53517 4.54488 3.85528 5.56241C3.17539 6.57994 2.8125 7.77623 2.8125 9C2.8125 10.2238 3.17539 11.4201 3.85528 12.4376C4.53517 13.4551 5.50153 14.2482 6.63215 14.7165C7.76276 15.1848 9.00686 15.3074 10.2071 15.0686C11.4074 14.8299 12.5099 14.2406 13.3752 13.3752" stroke="#1A1A1A" strokeWidth="1.5" strokeLinecap="round" strokeLinejoin="round"/>
</svg>
