<svg width="24" height="24" viewBox="0 0 24 24" fill="none" xmlns="http://www.w3.org/2000/svg">
<path d="M17.4285 4.06629H15.8086V1.61579C15.8086 1.27575 15.533 1 15.1928 1C15.0941 1 15.0024 1.02533 14.9197 1.0664C14.9026 1.07273 14.8888 1.08328 14.8731 1.09173C14.8591 1.10036 14.8454 1.109 14.8322 1.11859C14.8076 1.13586 14.7838 1.15275 14.7639 1.17501C14.6727 1.26374 14.6114 1.37861 14.5883 1.50372C14.4964 1.56513 14.3193 1.63671 14.0656 1.63671C13.7102 1.63671 13.497 1.49605 13.4747 1.45633C13.4747 1.22931 13.2909 1.04586 13.0643 1.04586C13.057 1.04586 13.0508 1.0497 13.0435 1.05008C13.0238 1.04701 13.0059 1.0378 12.9854 1.0378C12.7586 1.0378 12.5761 1.21339 12.5761 1.44002C12.5511 1.49624 12.3381 1.6369 11.9827 1.6369C11.6274 1.6369 11.4144 1.49624 11.3921 1.45652C11.3921 1.22951 11.2083 1.04605 10.9816 1.04605C10.9743 1.04605 10.9682 1.04989 10.9609 1.05028C10.9411 1.04721 10.9233 1.038 10.9028 1.038C10.6759 1.038 10.4935 1.21358 10.4935 1.44021C10.4685 1.49643 10.2555 1.63709 9.90011 1.63709C9.67329 1.63709 9.51248 1.58029 9.41423 1.52848C9.38468 1.38916 9.30639 1.26923 9.19989 1.18211C9.12486 1.09979 9.01912 1.04605 8.8988 1.04605C8.8942 1.04605 8.89036 1.04855 8.88595 1.04874C8.86158 1.04586 8.83759 1.04126 8.81226 1.04126C8.47203 1.04126 8.19647 1.31701 8.19647 1.65705V4.06629H6.57649C5.6007 4.06629 4.80664 4.86016 4.80664 5.83595V10.3793C4.80664 11.0158 4.8076 12.5051 5.8968 13.0504C5.80526 13.307 5.75403 13.5787 5.75403 13.8604V20.6794C5.75403 21.9592 6.749 23 7.97195 23H16.0335C17.2564 23 18.2514 21.9592 18.2514 20.6794V13.8606C18.2514 13.5791 18.2001 13.3072 18.1086 13.0506C19.1978 12.5053 19.1988 11.016 19.1988 10.3794V5.83614C19.1984 4.86016 18.4043 4.06629 17.4285 4.06629ZM10.9411 2.14197C11.1954 2.33712 11.56 2.45783 11.9826 2.45783C12.4049 2.45783 12.7697 2.33712 13.0242 2.14197C13.2784 2.33712 13.6432 2.45783 14.0658 2.45783C14.2486 2.45783 14.4194 2.43288 14.5772 2.39181V6.48283H9.42767V2.40026C9.57485 2.43518 9.73144 2.45783 9.89954 2.45783C10.3221 2.45783 10.6869 2.33712 10.9411 2.14197ZM17.0192 20.6796C17.0192 21.2802 16.5767 21.7686 16.0329 21.7686H7.97137C7.42754 21.7686 6.98503 21.2802 6.98503 20.6796V13.8606C6.98503 13.6081 7.06102 13.3715 7.20456 13.1763C7.21569 13.1612 7.22298 13.1447 7.23258 13.1287C7.38034 13.0163 7.47724 12.8401 7.47724 12.6402C7.47724 12.3001 7.20168 12.0244 6.86145 12.0244C6.37903 12.0244 6.03746 11.9065 6.03746 10.3794V5.83614C6.03746 5.53947 6.27886 5.29807 6.57572 5.29807H8.1957V6.48302H8.13487C7.79483 6.48302 7.51908 6.75877 7.51908 7.09881C7.51908 7.43885 7.79483 7.7146 8.13487 7.7146H15.8688C16.2089 7.7146 16.4846 7.43885 16.4846 7.09881C16.4846 6.75877 16.2089 6.48302 15.8688 6.48302H15.808V5.29807H17.428C17.7248 5.29807 17.9662 5.53947 17.9662 5.83614V10.3794C17.9662 11.9065 17.6248 12.0244 17.1422 12.0244C16.802 12.0244 16.5264 12.3001 16.5264 12.6402C16.5264 12.8397 16.623 13.0155 16.7703 13.128C16.7797 13.1433 16.7868 13.1594 16.7978 13.1742C16.9425 13.3703 17.0188 13.6077 17.0188 13.8606V20.6796H17.0192Z" fill="#FF5C00" stroke="#FF5C00" stroke-width="0.25"/>
<path d="M15.0899 9.32455H8.91525C8.35952 9.32455 7.90723 9.77685 7.90723 10.3326V13.0433C7.90723 13.599 8.35952 14.0507 8.91525 14.0507H15.0897C15.6454 14.0507 16.0973 13.5988 16.0973 13.0433V10.3324C16.0975 9.77666 15.6454 9.32455 15.0899 9.32455ZM14.8659 12.819H9.139V10.5561H14.8659V12.819ZM10.4314 4.67762H13.1289C13.4123 4.67762 13.642 4.44792 13.642 4.16449C13.642 3.88107 13.4123 3.65137 13.1289 3.65137H10.4314C10.148 3.65137 9.91829 3.88107 9.91829 4.16449C9.91829 4.44792 10.148 4.67762 10.4314 4.67762ZM10.4314 6.05159H12.0111C12.2945 6.05159 12.5242 5.82189 12.5242 5.53846C12.5242 5.25503 12.2945 5.02534 12.0111 5.02534H10.4314C10.148 5.02534 9.91829 5.25523 9.91829 5.53846C9.91829 5.82189 10.148 6.05159 10.4314 6.05159Z" fill="#FF5C00" stroke="#FF5C00" stroke-width="0.25"/>
<path d="M9.11377 15.9337C9.11377 16.097 9.17865 16.2536 9.29413 16.3691C9.40961 16.4846 9.56624 16.5495 9.72956 16.5495C9.89288 16.5495 10.0495 16.4846 10.165 16.3691C10.2805 16.2536 10.3454 16.097 10.3454 15.9337C10.3454 15.7703 10.2805 15.6137 10.165 15.4982C10.0495 15.3827 9.89288 15.3179 9.72956 15.3179C9.56624 15.3179 9.40961 15.3827 9.29413 15.4982C9.17865 15.6137 9.11377 15.7703 9.11377 15.9337Z" fill="#FF5C00" stroke="#FF5C00" stroke-width="0.25"/>
<path d="M9.11377 17.7462C9.11377 17.9095 9.17865 18.0661 9.29413 18.1816C9.40961 18.2971 9.56624 18.362 9.72956 18.362C9.89288 18.362 10.0495 18.2971 10.165 18.1816C10.2805 18.0661 10.3454 17.9095 10.3454 17.7462C10.3454 17.5828 10.2805 17.4262 10.165 17.3107C10.0495 17.1952 9.89288 17.1304 9.72956 17.1304C9.56624 17.1304 9.40961 17.1952 9.29413 17.3107C9.17865 17.4262 9.11377 17.5828 9.11377 17.7462Z" fill="#FF5C00" stroke="#FF5C00" stroke-width="0.25"/>
<path d="M9.11377 19.5587C9.11377 19.722 9.17865 19.8786 9.29413 19.9941C9.40961 20.1096 9.56624 20.1745 9.72956 20.1745C9.89288 20.1745 10.0495 20.1096 10.165 19.9941C10.2805 19.8786 10.3454 19.722 10.3454 19.5587C10.3454 19.3953 10.2805 19.2387 10.165 19.1232C10.0495 19.0077 9.89288 18.9429 9.72956 18.9429C9.56624 18.9429 9.40961 19.0077 9.29413 19.1232C9.17865 19.2387 9.11377 19.3953 9.11377 19.5587Z" fill="#FF5C00" stroke="#FF5C00" stroke-width="0.25"/>
<path d="M11.3076 15.9337C11.3076 16.097 11.3725 16.2536 11.488 16.3691C11.6035 16.4846 11.7601 16.5495 11.9234 16.5495C12.0867 16.5495 12.2434 16.4846 12.3588 16.3691C12.4743 16.2536 12.5392 16.097 12.5392 15.9337C12.5392 15.7703 12.4743 15.6137 12.3588 15.4982C12.2434 15.3827 12.0867 15.3179 11.9234 15.3179C11.7601 15.3179 11.6035 15.3827 11.488 15.4982C11.3725 15.6137 11.3076 15.7703 11.3076 15.9337Z" fill="#FF5C00" stroke="#FF5C00" stroke-width="0.25"/>
<path d="M11.3076 17.7462C11.3076 17.9095 11.3725 18.0661 11.488 18.1816C11.6035 18.2971 11.7601 18.362 11.9234 18.362C12.0867 18.362 12.2434 18.2971 12.3588 18.1816C12.4743 18.0661 12.5392 17.9095 12.5392 17.7462C12.5392 17.5828 12.4743 17.4262 12.3588 17.3107C12.2434 17.1952 12.0867 17.1304 11.9234 17.1304C11.7601 17.1304 11.6035 17.1952 11.488 17.3107C11.3725 17.4262 11.3076 17.5828 11.3076 17.7462Z" fill="#FF5C00" stroke="#FF5C00" stroke-width="0.25"/>
<path d="M11.3076 19.5587C11.3076 19.722 11.3725 19.8786 11.488 19.9941C11.6035 20.1096 11.7601 20.1745 11.9234 20.1745C12.0867 20.1745 12.2434 20.1096 12.3588 19.9941C12.4743 19.8786 12.5392 19.722 12.5392 19.5587C12.5392 19.3953 12.4743 19.2387 12.3588 19.1232C12.2434 19.0077 12.0867 18.9429 11.9234 18.9429C11.7601 18.9429 11.6035 19.0077 11.488 19.1232C11.3725 19.2387 11.3076 19.3953 11.3076 19.5587Z" fill="#FF5C00" stroke="#FF5C00" stroke-width="0.25"/>
<path d="M13.502 15.9337C13.502 16.097 13.5668 16.2536 13.6823 16.3691C13.7978 16.4846 13.9544 16.5495 14.1177 16.5495C14.2811 16.5495 14.4377 16.4846 14.5532 16.3691C14.6687 16.2536 14.7335 16.097 14.7335 15.9337C14.7335 15.7703 14.6687 15.6137 14.5532 15.4982C14.4377 15.3827 14.2811 15.3179 14.1177 15.3179C13.9544 15.3179 13.7978 15.3827 13.6823 15.4982C13.5668 15.6137 13.502 15.7703 13.502 15.9337Z" fill="#FF5C00" stroke="#FF5C00" stroke-width="0.25"/>
<path d="M13.502 17.7462C13.502 17.9095 13.5668 18.0661 13.6823 18.1816C13.7978 18.2971 13.9544 18.362 14.1177 18.362C14.2811 18.362 14.4377 18.2971 14.5532 18.1816C14.6687 18.0661 14.7335 17.9095 14.7335 17.7462C14.7335 17.5828 14.6687 17.4262 14.5532 17.3107C14.4377 17.1952 14.2811 17.1304 14.1177 17.1304C13.9544 17.1304 13.7978 17.1952 13.6823 17.3107C13.5668 17.4262 13.502 17.5828 13.502 17.7462Z" fill="#FF5C00" stroke="#FF5C00" stroke-width="0.25"/>
<path d="M13.502 19.5587C13.502 19.722 13.5668 19.8786 13.6823 19.9941C13.7978 20.1096 13.9544 20.1745 14.1177 20.1745C14.2811 20.1745 14.4377 20.1096 14.5532 19.9941C14.6687 19.8786 14.7335 19.722 14.7335 19.5587C14.7335 19.3953 14.6687 19.2387 14.5532 19.1232C14.4377 19.0077 14.2811 18.9429 14.1177 18.9429C13.9544 18.9429 13.7978 19.0077 13.6823 19.1232C13.5668 19.2387 13.502 19.3953 13.502 19.5587Z" fill="#FF5C00" stroke="#FF5C00" stroke-width="0.25"/>
</svg>
