<svg width="20" height="20" viewBox="0 0 20 20" fill="none" xmlns="http://www.w3.org/2000/svg">
<path d="M14.5236 3.38727H13.1736V1.34519C13.1736 1.06183 12.944 0.832031 12.6605 0.832031C12.5783 0.832031 12.5018 0.85314 12.4329 0.887361C12.4187 0.892638 12.4072 0.901433 12.3941 0.908469C12.3824 0.915666 12.371 0.922862 12.36 0.930857C12.3395 0.945249 12.3197 0.959322 12.3031 0.977871C12.2271 1.05181 12.176 1.14754 12.1568 1.2518C12.0802 1.30297 11.9326 1.36262 11.7212 1.36262C11.425 1.36262 11.2473 1.24541 11.2288 1.2123C11.2288 1.02313 11.0756 0.87025 10.8867 0.87025C10.8807 0.87025 10.8755 0.873449 10.8695 0.873768C10.853 0.87121 10.8381 0.863534 10.821 0.863534C10.632 0.863534 10.4799 1.00985 10.4799 1.19871C10.4591 1.24557 10.2816 1.36278 9.98546 1.36278C9.6893 1.36278 9.5118 1.24557 9.49325 1.21246C9.49325 1.02329 9.34005 0.87041 9.1512 0.87041C9.14512 0.87041 9.14 0.873609 9.13393 0.873928C9.11746 0.87137 9.10258 0.863694 9.08547 0.863694C8.89646 0.863694 8.74438 1.01001 8.74438 1.19887C8.72359 1.24572 8.54609 1.36294 8.24993 1.36294C8.06091 1.36294 7.92691 1.31561 7.84503 1.27243C7.8204 1.15633 7.75516 1.05639 7.66641 0.983788C7.60388 0.915186 7.51577 0.87041 7.41551 0.87041C7.41167 0.87041 7.40847 0.872489 7.40479 0.872649C7.38448 0.87025 7.36449 0.866412 7.34339 0.866412C7.05986 0.866412 6.83023 1.09621 6.83023 1.37957V3.38727H5.48024C4.66709 3.38727 4.00537 4.04883 4.00537 4.86199V8.64808C4.00537 9.17851 4.00617 10.4196 4.91383 10.8741C4.83756 11.0879 4.79486 11.3143 4.79486 11.549V17.2315C4.79486 18.298 5.62401 19.1654 6.64313 19.1654H13.3611C14.3802 19.1654 15.2093 18.298 15.2093 17.2315V11.5492C15.2093 11.3146 15.1666 11.088 15.0903 10.8742C15.998 10.4197 15.9988 9.17867 15.9988 8.64824V4.86215C15.9985 4.04883 15.3368 3.38727 14.5236 3.38727ZM9.11746 1.78367C9.32934 1.9463 9.63317 2.04689 9.9853 2.04689C10.3373 2.04689 10.6413 1.9463 10.8533 1.78367C11.0652 1.9463 11.3692 2.04689 11.7213 2.04689C11.8737 2.04689 12.016 2.0261 12.1475 1.99188V5.40105H7.85623V1.99891C7.97888 2.02802 8.10937 2.04689 8.24945 2.04689C8.60158 2.04689 8.90557 1.9463 9.11746 1.78367ZM14.1825 17.2317C14.1825 17.7322 13.8138 18.1392 13.3606 18.1392H6.64265C6.18946 18.1392 5.8207 17.7322 5.8207 17.2317V11.5492C5.8207 11.3388 5.88402 11.1416 6.00364 10.979C6.01291 10.9663 6.01899 10.9526 6.02699 10.9393C6.15012 10.8456 6.23087 10.6988 6.23087 10.5322C6.23087 10.2488 6.00124 10.019 5.71771 10.019C5.31569 10.019 5.03105 9.92082 5.03105 8.64824V4.86215C5.03105 4.61492 5.23222 4.41375 5.4796 4.41375H6.82959V5.40121H6.77889C6.49553 5.40121 6.26573 5.63101 6.26573 5.91437C6.26573 6.19774 6.49553 6.42753 6.77889 6.42753H13.2239C13.5072 6.42753 13.737 6.19774 13.737 5.91437C13.737 5.63101 13.5072 5.40121 13.2239 5.40121H13.1732V4.41375H14.5231C14.7705 4.41375 14.9717 4.61492 14.9717 4.86215V8.64824C14.9717 9.92082 14.6872 10.019 14.285 10.019C14.0015 10.019 13.7719 10.2488 13.7719 10.5322C13.7719 10.6985 13.8523 10.845 13.9751 10.9387C13.983 10.9515 13.9889 10.9649 13.998 10.9772C14.1186 11.1406 14.1822 11.3384 14.1822 11.5492V17.2317H14.1825Z" fill="#333333" stroke="#333333" stroke-width="0.25"/>
<path d="M12.5749 7.77062H7.42938C6.96627 7.77062 6.58936 8.14754 6.58936 8.61064V10.8696C6.58936 11.3327 6.96627 11.7091 7.42938 11.7091H12.5747C13.0378 11.7091 13.4144 11.3325 13.4144 10.8696V8.61049C13.4146 8.14738 13.0378 7.77062 12.5749 7.77062ZM12.3883 10.6826H7.61583V8.79694H12.3883V10.6826ZM8.69284 3.89818H10.9407C11.1769 3.89818 11.3683 3.70677 11.3683 3.47058C11.3683 3.23438 11.1769 3.04297 10.9407 3.04297H8.69284C8.45665 3.04297 8.26524 3.23438 8.26524 3.47058C8.26524 3.70677 8.45665 3.89818 8.69284 3.89818ZM8.69284 5.04316H10.0092C10.2454 5.04316 10.4369 4.85174 10.4369 4.61555C10.4369 4.37936 10.2454 4.18794 10.0092 4.18794H8.69284C8.45665 4.18794 8.26524 4.37952 8.26524 4.61555C8.26524 4.85174 8.45665 5.04316 8.69284 5.04316Z" fill="#333333" stroke="#333333" stroke-width="0.25"/>
<path d="M7.59473 13.2788C7.59473 13.4149 7.64879 13.5454 7.74503 13.6416C7.84126 13.7379 7.97179 13.7919 8.10789 13.7919C8.24398 13.7919 8.37451 13.7379 8.47075 13.6416C8.56698 13.5454 8.62105 13.4149 8.62105 13.2788C8.62105 13.1427 8.56698 13.0122 8.47075 12.9159C8.37451 12.8197 8.24398 12.7656 8.10789 12.7656C7.97179 12.7656 7.84126 12.8197 7.74503 12.9159C7.64879 13.0122 7.59473 13.1427 7.59473 13.2788Z" fill="#333333" stroke="#333333" stroke-width="0.25"/>
<path d="M7.59473 14.7866C7.59473 14.9227 7.64879 15.0532 7.74503 15.1495C7.84126 15.2457 7.97179 15.2998 8.10789 15.2998C8.24398 15.2998 8.37451 15.2457 8.47075 15.1495C8.56698 15.0532 8.62105 14.9227 8.62105 14.7866C8.62105 14.6505 8.56698 14.52 8.47075 14.4237C8.37451 14.3275 8.24398 14.2734 8.10789 14.2734C7.97179 14.2734 7.84126 14.3275 7.74503 14.4237C7.64879 14.52 7.59473 14.6505 7.59473 14.7866Z" fill="#333333" stroke="#333333" stroke-width="0.25"/>
<path d="M7.59473 16.2983C7.59473 16.4344 7.64879 16.5649 7.74503 16.6612C7.84126 16.7574 7.97179 16.8115 8.10789 16.8115C8.24398 16.8115 8.37451 16.7574 8.47075 16.6612C8.56698 16.5649 8.62105 16.4344 8.62105 16.2983C8.62105 16.1622 8.56698 16.0317 8.47075 15.9355C8.37451 15.8392 8.24398 15.7852 8.10789 15.7852C7.97179 15.7852 7.84126 15.8392 7.74503 15.9355C7.64879 16.0317 7.59473 16.1622 7.59473 16.2983Z" fill="#333333" stroke="#333333" stroke-width="0.25"/>
<path d="M9.42334 13.2788C9.42334 13.4149 9.4774 13.5454 9.57364 13.6416C9.66988 13.7379 9.8004 13.7919 9.9365 13.7919C10.0726 13.7919 10.2031 13.7379 10.2994 13.6416C10.3956 13.5454 10.4497 13.4149 10.4497 13.2788C10.4497 13.1427 10.3956 13.0122 10.2994 12.9159C10.2031 12.8197 10.0726 12.7656 9.9365 12.7656C9.8004 12.7656 9.66988 12.8197 9.57364 12.9159C9.4774 13.0122 9.42334 13.1427 9.42334 13.2788Z" fill="#333333" stroke="#333333" stroke-width="0.25"/>
<path d="M9.42334 14.7866C9.42334 14.9227 9.4774 15.0532 9.57364 15.1495C9.66988 15.2457 9.8004 15.2998 9.9365 15.2998C10.0726 15.2998 10.2031 15.2457 10.2994 15.1495C10.3956 15.0532 10.4497 14.9227 10.4497 14.7866C10.4497 14.6505 10.3956 14.52 10.2994 14.4237C10.2031 14.3275 10.0726 14.2734 9.9365 14.2734C9.8004 14.2734 9.66988 14.3275 9.57364 14.4237C9.4774 14.52 9.42334 14.6505 9.42334 14.7866Z" fill="#333333" stroke="#333333" stroke-width="0.25"/>
<path d="M9.42334 16.2983C9.42334 16.4344 9.4774 16.5649 9.57364 16.6612C9.66988 16.7574 9.8004 16.8115 9.9365 16.8115C10.0726 16.8115 10.2031 16.7574 10.2994 16.6612C10.3956 16.5649 10.4497 16.4344 10.4497 16.2983C10.4497 16.1622 10.3956 16.0317 10.2994 15.9355C10.2031 15.8392 10.0726 15.7852 9.9365 15.7852C9.8004 15.7852 9.66988 15.8392 9.57364 15.9355C9.4774 16.0317 9.42334 16.1622 9.42334 16.2983Z" fill="#333333" stroke="#333333" stroke-width="0.25"/>
<path d="M11.2515 13.2788C11.2515 13.4149 11.3055 13.5454 11.4018 13.6416C11.498 13.7379 11.6285 13.7919 11.7646 13.7919C11.9007 13.7919 12.0312 13.7379 12.1275 13.6416C12.2237 13.5454 12.2778 13.4149 12.2778 13.2788C12.2778 13.1427 12.2237 13.0122 12.1275 12.9159C12.0312 12.8197 11.9007 12.7656 11.7646 12.7656C11.6285 12.7656 11.498 12.8197 11.4018 12.9159C11.3055 13.0122 11.2515 13.1427 11.2515 13.2788Z" fill="#333333" stroke="#333333" stroke-width="0.25"/>
<path d="M11.2515 14.7866C11.2515 14.9227 11.3055 15.0532 11.4018 15.1495C11.498 15.2457 11.6285 15.2998 11.7646 15.2998C11.9007 15.2998 12.0312 15.2457 12.1275 15.1495C12.2237 15.0532 12.2778 14.9227 12.2778 14.7866C12.2778 14.6505 12.2237 14.52 12.1275 14.4237C12.0312 14.3275 11.9007 14.2734 11.7646 14.2734C11.6285 14.2734 11.498 14.3275 11.4018 14.4237C11.3055 14.52 11.2515 14.6505 11.2515 14.7866Z" fill="#333333" stroke="#333333" stroke-width="0.25"/>
<path d="M11.2515 16.2983C11.2515 16.4344 11.3055 16.5649 11.4018 16.6612C11.498 16.7574 11.6285 16.8115 11.7646 16.8115C11.9007 16.8115 12.0312 16.7574 12.1275 16.6612C12.2237 16.5649 12.2778 16.4344 12.2778 16.2983C12.2778 16.1622 12.2237 16.0317 12.1275 15.9355C12.0312 15.8392 11.9007 15.7852 11.7646 15.7852C11.6285 15.7852 11.498 15.8392 11.4018 15.9355C11.3055 16.0317 11.2515 16.1622 11.2515 16.2983Z" fill="#333333" stroke="#333333" stroke-width="0.25"/>
</svg>
