<svg width="20" height="20" viewBox="0 0 20 20" fill="none" xmlns="http://www.w3.org/2000/svg">
<path d="M14.5236 3.38862H13.1736V1.34653C13.1736 1.06317 12.944 0.833374 12.6605 0.833374C12.5783 0.833374 12.5018 0.854482 12.4329 0.888704C12.4187 0.893981 12.4072 0.902776 12.3941 0.909812C12.3824 0.917008 12.371 0.924204 12.36 0.9322C12.3395 0.946592 12.3197 0.960664 12.3031 0.979214C12.2271 1.05316 12.176 1.14888 12.1568 1.25314C12.0802 1.30432 11.9326 1.36396 11.7212 1.36396C11.425 1.36396 11.2473 1.24675 11.2288 1.21365C11.2288 1.02447 11.0756 0.871593 10.8867 0.871593C10.8807 0.871593 10.8755 0.874791 10.8695 0.875111C10.853 0.872553 10.8381 0.864877 10.821 0.864877C10.632 0.864877 10.4799 1.0112 10.4799 1.20005C10.4591 1.24691 10.2816 1.36412 9.98546 1.36412C9.6893 1.36412 9.5118 1.24691 9.49325 1.21381C9.49325 1.02463 9.34005 0.871753 9.1512 0.871753C9.14512 0.871753 9.14 0.874951 9.13393 0.875271C9.11746 0.872713 9.10258 0.865037 9.08547 0.865037C8.89646 0.865037 8.74438 1.01136 8.74438 1.20021C8.72359 1.24707 8.54609 1.36428 8.24993 1.36428C8.06091 1.36428 7.92691 1.31695 7.84503 1.27377C7.8204 1.15768 7.75516 1.05773 7.66641 0.985131C7.60388 0.916529 7.51577 0.871753 7.41551 0.871753C7.41167 0.871753 7.40847 0.873832 7.40479 0.873992C7.38448 0.871593 7.36449 0.867755 7.34339 0.867755C7.05986 0.867755 6.83023 1.09755 6.83023 1.38091V3.38862H5.48024C4.66709 3.38862 4.00537 4.05017 4.00537 4.86333V8.64942C4.00537 9.17985 4.00617 10.4209 4.91383 10.8754C4.83756 11.0892 4.79486 11.3156 4.79486 11.5504V17.2329C4.79486 18.2993 5.62401 19.1667 6.64313 19.1667H13.3611C14.3802 19.1667 15.2093 18.2993 15.2093 17.2329V11.5506C15.2093 11.316 15.1666 11.0894 15.0903 10.8756C15.998 10.4211 15.9988 9.18001 15.9988 8.64958V4.86349C15.9985 4.05017 15.3368 3.38862 14.5236 3.38862ZM9.11746 1.78501C9.32934 1.94764 9.63317 2.04823 9.9853 2.04823C10.3373 2.04823 10.6413 1.94764 10.8533 1.78501C11.0652 1.94764 11.3692 2.04823 11.7213 2.04823C11.8737 2.04823 12.016 2.02744 12.1475 1.99322V5.40239H7.85623V2.00026C7.97888 2.02936 8.10937 2.04823 8.24945 2.04823C8.60158 2.04823 8.90557 1.94764 9.11746 1.78501ZM14.1825 17.233C14.1825 17.7336 13.8138 18.1405 13.3606 18.1405H6.64265C6.18946 18.1405 5.8207 17.7336 5.8207 17.233V11.5506C5.8207 11.3401 5.88402 11.1429 6.00364 10.9803C6.01291 10.9677 6.01899 10.9539 6.02699 10.9406C6.15012 10.8469 6.23087 10.7001 6.23087 10.5335C6.23087 10.2501 6.00124 10.0203 5.71771 10.0203C5.31569 10.0203 5.03105 9.92216 5.03105 8.64958V4.86349C5.03105 4.61627 5.23222 4.41509 5.4796 4.41509H6.82959V5.40255H6.77889C6.49553 5.40255 6.26573 5.63235 6.26573 5.91571C6.26573 6.19908 6.49553 6.42887 6.77889 6.42887H13.2239C13.5072 6.42887 13.737 6.19908 13.737 5.91571C13.737 5.63235 13.5072 5.40255 13.2239 5.40255H13.1732V4.41509H14.5231C14.7705 4.41509 14.9717 4.61627 14.9717 4.86349V8.64958C14.9717 9.92216 14.6872 10.0203 14.285 10.0203C14.0015 10.0203 13.7719 10.2501 13.7719 10.5335C13.7719 10.6998 13.8523 10.8463 13.9751 10.94C13.983 10.9528 13.9889 10.9662 13.998 10.9785C14.1186 11.142 14.1822 11.3398 14.1822 11.5506V17.233H14.1825Z" fill="#333333" stroke="#333333" stroke-width="0.25"/>
<path d="M12.5749 7.7705H7.42938C6.96627 7.7705 6.58936 8.14742 6.58936 8.61052V10.8694C6.58936 11.3326 6.96627 11.709 7.42938 11.709H12.5747C13.0378 11.709 13.4144 11.3324 13.4144 10.8694V8.61036C13.4146 8.14726 13.0378 7.7705 12.5749 7.7705ZM12.3883 10.6825H7.61583V8.79682H12.3883V10.6825ZM8.69284 3.89806H10.9407C11.1769 3.89806 11.3683 3.70664 11.3683 3.47045C11.3683 3.23426 11.1769 3.04285 10.9407 3.04285H8.69284C8.45665 3.04285 8.26524 3.23426 8.26524 3.47045C8.26524 3.70664 8.45665 3.89806 8.69284 3.89806ZM8.69284 5.04303H10.0092C10.2454 5.04303 10.4369 4.85162 10.4369 4.61543C10.4369 4.37924 10.2454 4.18782 10.0092 4.18782H8.69284C8.45665 4.18782 8.26524 4.3794 8.26524 4.61543C8.26524 4.85162 8.45665 5.04303 8.69284 5.04303Z" fill="#333333" stroke="#333333" stroke-width="0.25"/>
<path d="M7.59473 13.2781C7.59473 13.4142 7.64879 13.5447 7.74503 13.6409C7.84126 13.7371 7.97179 13.7912 8.10789 13.7912C8.24398 13.7912 8.37451 13.7371 8.47075 13.6409C8.56698 13.5447 8.62105 13.4142 8.62105 13.2781C8.62105 13.142 8.56698 13.0114 8.47075 12.9152C8.37451 12.819 8.24398 12.7649 8.10789 12.7649C7.97179 12.7649 7.84126 12.819 7.74503 12.9152C7.64879 13.0114 7.59473 13.142 7.59473 13.2781Z" fill="#333333" stroke="#333333" stroke-width="0.25"/>
<path d="M7.59473 14.7884C7.59473 14.9245 7.64879 15.0551 7.74503 15.1513C7.84126 15.2475 7.97179 15.3016 8.10789 15.3016C8.24398 15.3016 8.37451 15.2475 8.47075 15.1513C8.56698 15.0551 8.62105 14.9245 8.62105 14.7884C8.62105 14.6523 8.56698 14.5218 8.47075 14.4256C8.37451 14.3293 8.24398 14.2753 8.10789 14.2753C7.97179 14.2753 7.84126 14.3293 7.74503 14.4256C7.64879 14.5218 7.59473 14.6523 7.59473 14.7884Z" fill="#333333" stroke="#333333" stroke-width="0.25"/>
<path d="M7.59473 16.2989C7.59473 16.435 7.64879 16.5655 7.74503 16.6618C7.84126 16.758 7.97179 16.8121 8.10789 16.8121C8.24398 16.8121 8.37451 16.758 8.47075 16.6618C8.56698 16.5655 8.62105 16.435 8.62105 16.2989C8.62105 16.1628 8.56698 16.0323 8.47075 15.9361C8.37451 15.8398 8.24398 15.7858 8.10789 15.7858C7.97179 15.7858 7.84126 15.8398 7.74503 15.9361C7.64879 16.0323 7.59473 16.1628 7.59473 16.2989Z" fill="#333333" stroke="#333333" stroke-width="0.25"/>
<path d="M9.42334 13.2781C9.42334 13.4142 9.4774 13.5447 9.57364 13.6409C9.66988 13.7371 9.8004 13.7912 9.9365 13.7912C10.0726 13.7912 10.2031 13.7371 10.2994 13.6409C10.3956 13.5447 10.4497 13.4142 10.4497 13.2781C10.4497 13.142 10.3956 13.0114 10.2994 12.9152C10.2031 12.819 10.0726 12.7649 9.9365 12.7649C9.8004 12.7649 9.66988 12.819 9.57364 12.9152C9.4774 13.0114 9.42334 13.142 9.42334 13.2781Z" fill="#333333" stroke="#333333" stroke-width="0.25"/>
<path d="M9.42334 14.7884C9.42334 14.9245 9.4774 15.0551 9.57364 15.1513C9.66988 15.2475 9.8004 15.3016 9.9365 15.3016C10.0726 15.3016 10.2031 15.2475 10.2994 15.1513C10.3956 15.0551 10.4497 14.9245 10.4497 14.7884C10.4497 14.6523 10.3956 14.5218 10.2994 14.4256C10.2031 14.3293 10.0726 14.2753 9.9365 14.2753C9.8004 14.2753 9.66988 14.3293 9.57364 14.4256C9.4774 14.5218 9.42334 14.6523 9.42334 14.7884Z" fill="#333333" stroke="#333333" stroke-width="0.25"/>
<path d="M9.42334 16.2989C9.42334 16.435 9.4774 16.5655 9.57364 16.6618C9.66988 16.758 9.8004 16.8121 9.9365 16.8121C10.0726 16.8121 10.2031 16.758 10.2994 16.6618C10.3956 16.5655 10.4497 16.435 10.4497 16.2989C10.4497 16.1628 10.3956 16.0323 10.2994 15.9361C10.2031 15.8398 10.0726 15.7858 9.9365 15.7858C9.8004 15.7858 9.66988 15.8398 9.57364 15.9361C9.4774 16.0323 9.42334 16.1628 9.42334 16.2989Z" fill="#333333" stroke="#333333" stroke-width="0.25"/>
<path d="M11.2515 13.2781C11.2515 13.4142 11.3055 13.5447 11.4018 13.6409C11.498 13.7371 11.6285 13.7912 11.7646 13.7912C11.9007 13.7912 12.0312 13.7371 12.1275 13.6409C12.2237 13.5447 12.2778 13.4142 12.2778 13.2781C12.2778 13.142 12.2237 13.0114 12.1275 12.9152C12.0312 12.819 11.9007 12.7649 11.7646 12.7649C11.6285 12.7649 11.498 12.819 11.4018 12.9152C11.3055 13.0114 11.2515 13.142 11.2515 13.2781Z" fill="#333333" stroke="#333333" stroke-width="0.25"/>
<path d="M11.2515 14.7884C11.2515 14.9245 11.3055 15.0551 11.4018 15.1513C11.498 15.2475 11.6285 15.3016 11.7646 15.3016C11.9007 15.3016 12.0312 15.2475 12.1275 15.1513C12.2237 15.0551 12.2778 14.9245 12.2778 14.7884C12.2778 14.6523 12.2237 14.5218 12.1275 14.4256C12.0312 14.3293 11.9007 14.2753 11.7646 14.2753C11.6285 14.2753 11.498 14.3293 11.4018 14.4256C11.3055 14.5218 11.2515 14.6523 11.2515 14.7884Z" fill="#333333" stroke="#333333" stroke-width="0.25"/>
<path d="M11.2515 16.2989C11.2515 16.435 11.3055 16.5655 11.4018 16.6618C11.498 16.758 11.6285 16.8121 11.7646 16.8121C11.9007 16.8121 12.0312 16.758 12.1275 16.6618C12.2237 16.5655 12.2778 16.435 12.2778 16.2989C12.2778 16.1628 12.2237 16.0323 12.1275 15.9361C12.0312 15.8398 11.9007 15.7858 11.7646 15.7858C11.6285 15.7858 11.498 15.8398 11.4018 15.9361C11.3055 16.0323 11.2515 16.1628 11.2515 16.2989Z" fill="#333333" stroke="#333333" stroke-width="0.25"/>
</svg>
