<svg width="28" height="28" viewBox="0 0 28 28" fill="none" xmlns="http://www.w3.org/2000/svg">
<path d="M6.99927 16.625V15.875C6.58505 15.875 6.24927 16.2108 6.24927 16.625H6.99927ZM20.9993 16.625H21.7493C21.7493 16.2108 21.4135 15.875 20.9993 15.875V16.625ZM20.9993 24.0625V24.8125C21.4135 24.8125 21.7493 24.4767 21.7493 24.0625H20.9993ZM6.99927 24.0625H6.24927C6.24927 24.4767 6.58505 24.8125 6.99927 24.8125V24.0625ZM6.99927 20C7.41348 20 7.74927 19.6642 7.74927 19.25C7.74927 18.8358 7.41348 18.5 6.99927 18.5V20ZM3.06177 19.25H2.31177C2.31177 19.6642 2.64755 20 3.06177 20V19.25ZM24.9368 19.25V20C25.351 20 25.6868 19.6642 25.6868 19.25H24.9368ZM20.9993 18.5C20.5851 18.5 20.2493 18.8358 20.2493 19.25C20.2493 19.6642 20.5851 20 20.9993 20V18.5ZM6.24925 8.75C6.24925 9.16421 6.58504 9.5 6.99925 9.5C7.41347 9.5 7.74925 9.16421 7.74925 8.75H6.24925ZM6.99925 4.375V3.625C6.58504 3.625 6.24925 3.96079 6.24925 4.375H6.99925ZM20.9993 4.375H21.7493C21.7493 3.96079 21.4135 3.625 20.9993 3.625V4.375ZM20.2493 8.75C20.2493 9.16421 20.585 9.5 20.9993 9.5C21.4135 9.5 21.7493 9.16421 21.7493 8.75H20.2493ZM6.99927 17.375H20.9993V15.875H6.99927V17.375ZM20.2493 16.625V24.0625H21.7493V16.625H20.2493ZM20.9993 23.3125H6.99927V24.8125H20.9993V23.3125ZM7.74927 24.0625V16.625H6.24927V24.0625H7.74927ZM6.99927 18.5H3.06177V20H6.99927V18.5ZM3.81177 19.25V10.5H2.31177V19.25H3.81177ZM3.81177 10.5C3.81177 10.0031 4.26712 9.5 4.9576 9.5V8C3.554 8 2.31177 9.06389 2.31177 10.5H3.81177ZM4.9576 9.5H23.0409V8H4.9576V9.5ZM23.0409 9.5C23.7314 9.5 24.1868 10.0031 24.1868 10.5H25.6868C25.6868 9.06389 24.4445 8 23.0409 8V9.5ZM24.1868 10.5V19.25H25.6868V10.5H24.1868ZM24.9368 18.5H20.9993V20H24.9368V18.5ZM20.5624 14.75C21.7015 14.75 22.6249 13.8266 22.6249 12.6875H21.1249C21.1249 12.9982 20.8731 13.25 20.5624 13.25V14.75ZM22.6249 12.6875C22.6249 11.5484 21.7015 10.625 20.5624 10.625V12.125C20.8731 12.125 21.1249 12.3768 21.1249 12.6875H22.6249ZM20.5624 10.625C19.4233 10.625 18.4999 11.5484 18.4999 12.6875H19.9999C19.9999 12.3768 20.2517 12.125 20.5624 12.125V10.625ZM18.4999 12.6875C18.4999 13.8266 19.4233 14.75 20.5624 14.75V13.25C20.2517 13.25 19.9999 12.9982 19.9999 12.6875H18.4999ZM7.74925 8.75V4.375H6.24925V8.75H7.74925ZM6.99925 5.125H20.9993V3.625H6.99925V5.125ZM20.2493 4.375V8.75H21.7493V4.375H20.2493Z" fill="#5E718D"/>
</svg>
