<svg width="24" height="24" viewBox="0 0 24 24" fill="none" xmlns="http://www.w3.org/2000/svg">
<path d="M5.99951 14.25V13.5C5.5853 13.5 5.24951 13.8358 5.24951 14.25H5.99951ZM17.9995 14.25H18.7495C18.7495 13.8358 18.4137 13.5 17.9995 13.5V14.25ZM17.9995 20.625V21.375C18.4137 21.375 18.7495 21.0392 18.7495 20.625H17.9995ZM5.99951 20.625H5.24951C5.24951 21.0392 5.5853 21.375 5.99951 21.375V20.625ZM5.99951 17.25C6.41373 17.25 6.74951 16.9142 6.74951 16.5C6.74951 16.0858 6.41373 15.75 5.99951 15.75V17.25ZM2.62451 16.5H1.87451C1.87451 16.9142 2.2103 17.25 2.62451 17.25V16.5ZM21.3745 16.5V17.25C21.7887 17.25 22.1245 16.9142 22.1245 16.5H21.3745ZM17.9995 15.75C17.5853 15.75 17.2495 16.0858 17.2495 16.5C17.2495 16.9142 17.5853 17.25 17.9995 17.25V15.75ZM5.2495 7.5C5.2495 7.91421 5.58528 8.25 5.9995 8.25C6.41371 8.25 6.7495 7.91421 6.7495 7.5H5.2495ZM5.9995 3.75V3C5.58528 3 5.2495 3.33579 5.2495 3.75H5.9995ZM17.9995 3.75H18.7495C18.7495 3.33579 18.4137 3 17.9995 3V3.75ZM17.2495 7.5C17.2495 7.91421 17.5853 8.25 17.9995 8.25C18.4137 8.25 18.7495 7.91421 18.7495 7.5H17.2495ZM5.99951 15H17.9995V13.5H5.99951V15ZM17.2495 14.25V20.625H18.7495V14.25H17.2495ZM17.9995 19.875H5.99951V21.375H17.9995V19.875ZM6.74951 20.625V14.25H5.24951V20.625H6.74951ZM5.99951 15.75H2.62451V17.25H5.99951V15.75ZM3.37451 16.5V9H1.87451V16.5H3.37451ZM3.37451 9C3.37451 8.64118 3.70861 8.25 4.24951 8.25V6.75C2.99549 6.75 1.87451 7.70197 1.87451 9H3.37451ZM4.24951 8.25H19.7495V6.75H4.24951V8.25ZM19.7495 8.25C20.2904 8.25 20.6245 8.64118 20.6245 9H22.1245C22.1245 7.70197 21.0035 6.75 19.7495 6.75V8.25ZM20.6245 9V16.5H22.1245V9H20.6245ZM21.3745 15.75H17.9995V17.25H21.3745V15.75ZM17.6251 12.75C18.6606 12.75 19.5001 11.9105 19.5001 10.875H18.0001C18.0001 11.0821 17.8322 11.25 17.6251 11.25V12.75ZM19.5001 10.875C19.5001 9.83947 18.6606 9 17.6251 9V10.5C17.8322 10.5 18.0001 10.6679 18.0001 10.875H19.5001ZM17.6251 9C16.5895 9 15.7501 9.83947 15.7501 10.875H17.2501C17.2501 10.6679 17.418 10.5 17.6251 10.5V9ZM15.7501 10.875C15.7501 11.9105 16.5895 12.75 17.6251 12.75V11.25C17.418 11.25 17.2501 11.0821 17.2501 10.875H15.7501ZM6.7495 7.5V3.75H5.2495V7.5H6.7495ZM5.9995 4.5H17.9995V3H5.9995V4.5ZM17.2495 3.75V7.5H18.7495V3.75H17.2495Z" fill="#FF5C00"/>
</svg>
