<svg width="20" height="24" viewBox="0 0 20 24" fill="none" xmlns="http://www.w3.org/2000/svg">
<path d="M12.6249 1.5H2.12402C1.89196 1.5 1.6694 1.59219 1.5053 1.75628C1.34121 1.92038 1.24902 2.14294 1.24902 2.375V21.625C1.24902 21.8571 1.34121 22.0796 1.5053 22.2437C1.6694 22.4078 1.89196 22.5 2.12402 22.5H17.8749C17.9898 22.5 18.1036 22.4774 18.2097 22.4334C18.3159 22.3894 18.4123 22.325 18.4936 22.2437C18.5748 22.1625 18.6393 22.066 18.6833 21.9598C18.7272 21.8537 18.7499 21.7399 18.7499 21.625V7.625M12.6249 1.5L18.7499 7.625M12.6249 1.5V7.625H18.7499M6.93738 14.1875L9.99988 11.125M9.99988 11.125L13.0624 14.1875M9.99988 11.125V18.125" stroke="#5E718D" stroke-width="1.5" stroke-linecap="round" stroke-linejoin="round"/>
</svg>
