<svg width="324" height="280" viewBox="0 0 324 280" fill="none" xmlns="http://www.w3.org/2000/svg">
<path d="M297.438 238.187H58.8777C57.7649 238.184 56.6986 237.74 55.9117 236.953C55.1248 236.166 54.6812 235.1 54.6777 233.987C54.6812 232.874 55.1248 231.808 55.9117 231.021C56.6986 230.234 57.7649 229.791 58.8777 229.787H297.438C298.551 229.79 299.617 230.234 300.404 231.021C301.191 231.808 301.635 232.874 301.638 233.987C301.635 235.1 301.191 236.167 300.404 236.954C299.617 237.741 298.551 238.184 297.438 238.187Z" stroke="#F4DFD3" stroke-width="3.73333" stroke-miterlimit="10"/>
<path d="M229.398 245.839H243.375C247.766 245.839 252.268 245.525 256.629 245.998C258.006 246.145 259.63 246.268 260.89 246.948C262.074 247.584 261.902 248.598 261.435 249.66C260.767 251.179 260.054 252.585 260.17 254.299C260.295 256.128 261.799 256.858 263.436 257.203C268.29 258.228 273.397 257.562 278.301 257.412C280.459 257.347 280.468 253.985 278.301 254.052C273.856 254.189 269.32 254.726 264.892 254.067C264.745 254.045 262.981 253.507 262.996 253.492C262.914 253.565 263.713 254.146 263.53 254.299C263.537 254.157 263.533 254.014 263.517 253.873C263.518 253.512 263.581 253.154 263.703 252.815C264.174 251.366 265.074 250.13 265.182 248.564C265.458 244.579 261.364 243.269 258.197 242.837C253.832 242.246 249.414 242.479 245.02 242.479H229.394C227.232 242.479 227.229 245.839 229.394 245.839H229.398Z" fill="#F4DFD3"/>
<path d="M89.771 247.333H138.304C140.466 247.333 140.47 243.973 138.304 243.973H89.771C87.6094 243.973 87.6057 247.333 89.771 247.333Z" fill="#F4DFD3"/>
<path opacity="0.3" d="M237.555 154.771L231.429 151.241C230.979 150.974 231.026 150.511 231.558 150.203L237.372 146.843C237.904 146.537 238.72 146.503 239.17 146.77L245.291 150.298C245.754 150.565 245.694 151.03 245.162 151.338L239.349 154.698C238.823 154.995 238.018 155.036 237.555 154.771Z" fill="#C9CFE5"/>
<path d="M245.615 147.866C245.617 147.847 245.617 147.828 245.615 147.81V83.7832H231.132V147.873C231.138 147.969 231.171 148.062 231.225 148.141C231.28 148.22 231.354 148.283 231.442 148.323L237.562 151.851C238.025 152.116 238.83 152.077 239.36 151.777L245.173 148.417C245.283 148.366 245.38 148.291 245.456 148.197C245.532 148.103 245.585 147.993 245.612 147.875L245.615 147.866Z" fill="url(#paint0_linear_872_34676)"/>
<path d="M237.555 87.7981L231.429 84.2682C230.979 84.0013 231.026 83.5365 231.558 83.2304L237.372 79.8704C237.904 79.5624 238.72 79.5288 239.17 79.7938C239.469 79.9706 241.509 81.1478 245.291 83.3256C245.754 83.5907 245.694 84.0554 245.162 84.3616L239.349 87.7216C238.823 88.0314 238.018 88.0613 237.555 87.7981Z" fill="#FAFBFD"/>
<path d="M113.104 221.199C113.104 221.199 122.064 205.333 116.651 188.159C111.237 170.986 95.8393 125.999 89.1659 114.891C84.9688 107.834 81.2423 100.508 78.0107 92.9594L212.108 60.1621C212.108 60.1621 233.777 118.09 237.374 133.057C240.971 148.024 247.892 176.586 242.285 185.453C236.677 194.319 113.104 221.199 113.104 221.199Z" fill="url(#paint1_linear_872_34676)" stroke="#FF5C00" stroke-width="3.36" stroke-miterlimit="10"/>
<path d="M231.731 50.8673L235.278 32.9473L244.425 37.9873L231.731 51.6139" fill="#FFE0CA"/>
<path d="M234.158 53.4798L263.838 45.4531L265.705 56.6531L234.158 53.4798Z" fill="#FFE0CA"/>
<path d="M56.944 132.905C52.996 134.399 49.0535 136.079 45.5573 138.47C42.1151 140.814 38.8112 144.07 38.3744 148.423C38.001 152.156 39.8584 155.763 43.3752 157.185C46.8546 158.591 50.9594 158.055 54.5117 157.23C58.3682 156.334 62.2845 154.913 65.6856 152.86C66.6096 152.3 65.7658 150.848 64.8381 151.408C62.1631 153.024 59.1784 154.178 56.1861 155.052C52.8746 156.019 49.1618 156.791 45.716 156.121C42.4568 155.486 40.2466 153.232 40.0282 149.845C39.7706 145.838 42.6416 142.649 45.673 140.436C49.2197 137.848 53.3095 136.075 57.3957 134.526C58.3962 134.152 57.9557 132.523 56.9496 132.905H56.944Z" fill="#E1E5F2"/>
<path d="M64.4984 152.649C66.9942 156.316 70.5539 158.272 74.864 159.041C75.9206 159.228 76.3742 157.609 75.3102 157.421C71.448 156.732 68.2019 155.112 65.9507 151.802C65.3459 150.913 63.888 151.753 64.4984 152.649Z" fill="#E1E5F2"/>
<path d="M72.5977 147.747C72.1945 151.344 73.0756 154.681 74.1526 158.08C74.4774 159.107 76.0996 158.668 75.7729 157.634C74.735 154.358 73.8894 151.215 74.2796 147.741C74.4009 146.668 72.719 146.677 72.5996 147.741L72.5977 147.747Z" fill="#E1E5F2"/>
<path d="M57.4218 134.556C60.3076 133.603 63.2775 132.792 66.3015 132.425C68.8738 132.111 71.6122 132.038 74.0874 132.921C76.0735 133.629 77.9868 135.075 78.797 137.073C79.4839 138.771 79.2786 140.7 78.4591 142.314C77.326 144.541 75.3044 146.079 73.0458 147.052C72.0546 147.478 72.9095 148.919 73.8932 148.502C78.1026 146.692 81.7986 142.398 80.6991 137.547C79.454 132.059 73.197 130.327 68.2932 130.571C64.433 130.758 60.6306 131.728 56.9738 132.936C55.9527 133.274 56.3914 134.896 57.4218 134.556Z" fill="#E1E5F2"/>
<path d="M50.9444 145.848C49.9028 145.83 49.0423 146.149 48.3946 146.989C48.1219 147.353 47.9459 147.781 47.8829 148.232C47.8199 148.682 47.872 149.142 48.0343 149.567C48.3722 150.45 49.0236 151.146 49.957 151.394C50.3901 151.5 50.8402 151.518 51.2804 151.447C51.7207 151.376 52.1422 151.217 52.5199 150.98C54.086 149.949 54.0132 147.282 52.4247 146.313C51.7826 145.919 50.9015 145.888 50.1959 146.11C49.6543 146.263 49.1944 146.623 48.9151 147.111C48.6359 147.6 48.5595 148.179 48.7026 148.723C48.8245 149.15 49.1096 149.512 49.4961 149.731C49.8827 149.95 50.3398 150.009 50.769 149.893C51.1933 149.767 51.5524 149.481 51.7712 149.096C51.99 148.711 52.0516 148.256 51.9431 147.827C52.0196 148.126 51.9843 148.443 51.8437 148.718C51.7031 148.993 51.467 149.207 51.1796 149.32C51.4503 149.218 50.8679 149.341 51.049 149.333C51.2842 149.322 51.0359 149.333 50.9426 149.307C50.67 149.235 50.2594 148.897 50.265 148.604C50.2839 148.659 50.2982 148.716 50.3079 148.773C50.3315 148.898 50.3241 148.84 50.2855 148.6C50.3359 148.6 50.2127 149.044 50.3023 148.725C50.3266 148.579 50.321 148.579 50.2874 148.725L50.3639 148.523C50.403 148.428 50.4628 148.342 50.539 148.272C50.6152 148.203 50.7058 148.151 50.8044 148.12C50.9295 148.077 50.9127 148.079 50.7559 148.12C50.4311 148.187 50.9295 148.12 50.7242 148.12C50.5188 148.12 51.0284 148.212 50.7391 148.12C50.8384 148.144 50.9318 148.187 51.0139 148.248C51.096 148.309 51.1651 148.385 51.217 148.473C51.049 148.206 51.2487 148.785 51.1964 148.445L51.2207 148.66C51.2207 148.507 51.2207 148.503 51.2039 148.66C51.1496 148.816 51.0749 148.965 50.9818 149.102C51.1554 148.897 50.8548 149.13 50.7615 149.184L50.6178 149.208H50.9444C51.8236 149.225 52.6655 148.424 52.6244 147.528C52.6163 147.085 52.4367 146.663 52.1234 146.349C51.81 146.036 51.3874 145.857 50.9444 145.848Z" fill="#E1E5F2"/>
<path d="M60.0295 141.368C59.0495 141.368 58.049 141.594 57.4908 142.488C57.0167 143.244 56.9663 144.299 57.2594 145.137C57.4307 145.658 57.749 146.118 58.1758 146.461C58.6026 146.805 59.1198 147.018 59.6649 147.074C60.2099 147.13 60.7596 147.027 61.2477 146.778C61.7357 146.529 62.1411 146.144 62.4151 145.669C63.2906 144.092 62.4506 141.947 60.6511 141.596C58.9711 141.27 57.0484 142.283 57.4255 144.224C57.4984 144.507 57.6457 144.765 57.8522 144.972C58.0587 145.178 58.3168 145.326 58.5996 145.399L58.7116 145.419C59.5722 145.583 60.5652 145.18 60.778 144.247C60.9647 143.418 60.5279 142.354 59.6039 142.179L59.4919 142.158L60.666 143.332C60.7818 143.93 60.6212 144.516 60.0948 144.839C60.317 144.702 59.6823 144.932 59.9418 144.895C59.9902 144.879 60.0394 144.867 60.0892 144.857C60.261 144.827 60.19 144.837 59.8783 144.885C59.9596 144.895 60.0416 144.895 60.1228 144.885C59.813 144.835 59.7495 144.829 59.9175 144.865C60.0855 144.9 60.022 144.885 59.7308 144.775C59.9847 144.919 59.4546 144.486 59.6375 144.687C59.5037 144.557 59.4098 144.391 59.3668 144.21C59.4098 144.37 59.406 144.314 59.3668 144.038C59.4602 144 59.2324 144.611 59.3892 144.31C59.4807 144.137 59.4882 143.902 59.6898 143.788C59.7791 143.747 59.8776 143.73 59.9754 143.739C60.162 143.775 60.205 143.776 60.0874 143.739C59.9698 143.702 60.0052 143.719 60.2124 143.793C60.3991 143.954 60.4252 143.98 60.2964 143.853C60.442 144.058 60.47 144.084 60.3767 143.931C60.4626 144.152 60.4868 144.2 60.4495 144.079C60.4324 144.025 60.42 143.969 60.4122 143.913C60.4439 144.168 60.4551 144.198 60.4458 144.006C60.4364 143.814 60.4458 143.844 60.4234 144.073C60.3758 144.228 60.2745 144.36 60.1378 144.447C60.0896 144.52 60.0273 144.582 59.9545 144.63C59.8817 144.679 59.7999 144.712 59.714 144.728C59.8895 144.686 59.8447 144.686 59.5778 144.728C59.7291 144.736 59.8808 144.731 60.0314 144.714C60.9087 144.714 61.7524 143.943 61.7114 143.034C61.7032 142.59 61.5236 142.168 61.2103 141.855C60.897 141.541 60.4744 141.362 60.0314 141.354L60.0295 141.368Z" fill="#E1E5F2"/>
<path d="M69.6785 138.626C68.8721 137.795 67.6905 137.829 66.7123 138.305C66.3158 138.497 65.9683 138.776 65.6963 139.123C65.4242 139.469 65.2348 139.873 65.1425 140.304C64.8774 141.424 65.2545 142.544 66.2905 143.104C66.6962 143.316 67.1399 143.445 67.5958 143.484C68.0517 143.523 68.5109 143.471 68.9467 143.332C70.8526 142.703 71.8345 140.569 70.6267 138.835C69.9902 137.918 68.9467 137.386 67.8267 137.715C66.8262 138.006 65.9041 138.796 65.9433 139.923C65.9492 140.289 66.0719 140.643 66.2935 140.935C66.5152 141.226 66.8241 141.438 67.1753 141.542C67.3984 141.605 67.6304 141.632 67.8622 141.622C68.7339 141.543 69.5851 140.903 69.5422 139.942C69.503 139.098 68.7955 138.178 67.8622 138.262L68.0694 138.303L69.3033 139.923C69.2883 139.473 69.0326 141.185 68.6089 140.989C68.5995 140.989 69.0699 140.978 68.6985 140.95C68.4243 140.91 68.1539 140.848 67.8902 140.763C67.7931 140.625 67.7763 140.606 67.8398 140.709C67.9033 140.812 67.8921 140.789 67.8174 140.621C67.8529 140.974 67.8379 140.364 67.8379 140.343L67.9163 140.156C67.8342 140.285 67.8305 140.295 67.9033 140.186C67.9761 140.078 67.9723 140.084 67.8641 140.196L67.9966 140.084C67.5841 140.211 68.3513 140.035 67.9238 140.121C67.6027 140.186 68.1403 140.136 67.9331 140.121C67.7259 140.106 68.271 140.227 67.9593 140.134C67.8961 140.121 67.8338 140.104 67.7726 140.084C67.6531 140.048 67.6849 140.061 67.8678 140.125L68.4073 141.032C68.3681 141.23 68.3699 141.23 68.4166 141.032C68.1926 141.254 68.6033 140.952 68.3363 141.142C68.2598 141.198 67.9331 141.422 68.187 141.304C68.5118 141.153 67.8753 141.318 68.2393 141.276C68.0717 141.306 67.8995 141.295 67.7371 141.245C67.5747 141.194 67.4268 141.105 67.3059 140.985C67.6244 141.282 68.0456 141.444 68.4809 141.436C68.9161 141.428 69.3314 141.252 69.6392 140.944C69.947 140.636 70.1233 140.221 70.131 139.786C70.1386 139.351 69.9771 138.929 69.6803 138.611L69.6785 138.626Z" fill="#E1E5F2"/>
<path d="M130.838 122.078C135.167 122.078 138.678 118.568 138.678 114.238C138.678 109.909 135.167 106.398 130.838 106.398C126.508 106.398 122.998 109.909 122.998 114.238C122.998 118.568 126.508 122.078 130.838 122.078Z" fill="#FE9F39"/>
<path d="M141.851 149.52C146.181 149.52 149.691 146.01 149.691 141.68C149.691 137.35 146.181 133.84 141.851 133.84C137.521 133.84 134.011 137.35 134.011 141.68C134.011 146.01 137.521 149.52 141.851 149.52Z" fill="#FE9F39"/>
<path d="M151.931 177.147C156.261 177.147 159.771 173.637 159.771 169.307C159.771 164.977 156.261 161.467 151.931 161.467C147.601 161.467 144.091 164.977 144.091 169.307C144.091 173.637 147.601 177.147 151.931 177.147Z" fill="#FE9F39"/>
<path d="M192.12 90.9432L152.312 101.031C148.315 102.044 145.895 106.106 146.908 110.103C147.921 114.1 151.983 116.52 155.98 115.507L195.789 105.419C199.786 104.406 202.205 100.344 201.193 96.347C200.18 92.3496 196.118 89.9303 192.12 90.9432Z" fill="#FF5C00"/>
<path d="M194.11 136.033L166.062 143.313C164.142 143.793 162.111 143.495 160.411 142.483C158.711 141.471 157.481 139.827 156.99 137.91C156.509 135.991 156.807 133.96 157.82 132.26C158.833 130.56 160.477 129.33 162.394 128.838L190.44 121.558C192.359 121.078 194.391 121.376 196.091 122.388C197.79 123.4 199.021 125.044 199.512 126.961C199.993 128.88 199.695 130.911 198.683 132.611C197.67 134.311 196.026 135.541 194.11 136.033Z" fill="#FF5C00"/>
<path d="M212.095 146.01L172.287 156.097C168.289 157.11 165.87 161.172 166.883 165.17C167.896 169.167 171.958 171.586 175.955 170.573L215.763 160.485C219.761 159.472 222.18 155.411 221.167 151.413C220.154 147.416 216.092 144.997 212.095 146.01Z" fill="#FF5C00"/>
<path d="M83.2155 94.6728L86.6408 93.8141L95.9088 91.4901L109.668 88.0387L126.373 83.8461L144.758 79.2336L163.238 74.5987L180.545 70.2549L195.105 66.6019L205.63 63.9605C207.284 63.5461 208.96 63.1803 210.601 62.7136C210.673 62.6931 210.746 62.6781 210.819 62.6595C212.915 62.1331 212.027 58.8925 209.927 59.4189L206.501 60.2776L197.243 62.6016L183.485 66.0531L166.781 70.2456L148.379 74.8525L129.899 79.4875L112.589 83.8312L98.0294 87.4843L87.5088 90.1312C85.855 90.5456 84.1787 90.9115 82.5379 91.3781C82.4651 91.3987 82.3923 91.4136 82.3195 91.4323C80.2288 91.9587 81.1174 95.1992 83.2155 94.6728Z" fill="#FF5C00"/>
<path d="M80.5477 60.5377L83.8947 59.7705L93.06 57.6798L106.549 54.5812L123.098 50.7918L141.145 46.6665L159.439 42.4758L176.425 38.5857L190.849 35.2798L201.17 32.9166C202.799 32.5433 204.455 32.226 206.072 31.7966C206.143 31.7761 206.215 31.763 206.286 31.7462C208.394 31.2646 207.502 28.0241 205.394 28.5057L202.047 29.2729L192.882 31.3598L179.388 34.4585L162.838 38.2478L144.798 42.3732L126.505 46.5638L109.518 50.454L95.0928 53.7598L84.772 56.123C83.1424 56.4964 81.4867 56.8137 79.8701 57.243C79.7992 57.2636 79.7264 57.2766 79.6555 57.2934C77.548 57.775 78.4403 61.0156 80.5477 60.534V60.5377Z" fill="#FF5C00"/>
<path d="M71.1901 64.1872C73.5271 61.9248 76.7303 60.5006 79.9279 60.9318C83.3514 61.3928 86.0133 63.7859 87.5981 66.7483C89.237 69.8134 89.9351 73.3974 89.9351 76.8507C89.9351 80.304 89.2706 83.8731 87.4263 86.8374C85.8285 89.4134 83.2319 91.0672 80.4151 91.84C79.2358 92.1808 78.0023 92.2936 76.7807 92.1723C76.6743 92.1723 76.5661 92.1518 76.4615 92.1387C76.8349 92.1854 76.3122 92.1107 76.2749 92.1032C75.965 92.0416 75.6589 91.9763 75.3565 91.8923C75.1063 91.8232 74.8581 91.743 74.6098 91.6552C74.4642 91.603 74.3186 91.547 74.1749 91.4872C74.4903 91.6216 74.033 91.4163 74.0106 91.4051C73.5003 91.1516 73.0065 90.866 72.5322 90.5502C72.0802 90.2523 71.6604 89.9083 71.2797 89.5235C70.4162 88.7326 69.6718 87.821 69.0695 86.8168C67.6807 84.6086 66.8911 82.4022 66.4114 79.7347C65.9115 76.9024 66.0299 73.9956 66.7586 71.2134C67.5295 68.4264 68.9053 66.1024 71.1882 64.191C71.8845 63.6086 71.7893 62.4176 71.1882 61.8166C70.4994 61.1259 69.5082 61.2323 68.8119 61.8166C63.9997 65.843 62.2282 72.5088 62.8815 78.5774C63.5106 84.4238 66.1463 90.6286 71.3599 93.7888C77.0514 97.2366 85.0127 95.2915 89.1194 90.2198C94.2546 83.8731 94.3815 74.0694 91.3109 66.7931C89.6514 62.8619 86.7301 59.5131 82.6047 58.1299C78.8546 56.8662 74.6266 57.6203 71.3525 59.7688C70.443 60.372 69.5924 61.0595 68.8119 61.8222C67.257 63.3286 69.6351 65.703 71.1882 64.1966L71.1901 64.1872Z" fill="#FF5C00"/>
<path d="M205.785 31.8262C206.321 31.8639 206.851 31.9571 207.368 32.1043C207.636 32.1771 207.903 32.2574 208.165 32.3507C208.448 32.4343 208.721 32.5482 208.98 32.6904C209.472 32.9321 209.945 33.2085 210.397 33.5174C210.578 33.63 210.751 33.7547 210.914 33.8907C211.193 34.1184 211.461 34.3568 211.719 34.6056C213.399 36.2296 214.696 38.4304 215.471 40.5678C216.377 42.9852 216.811 45.5542 216.748 48.1352C216.708 50.4406 216.234 52.8878 215.211 54.8216C214.685 55.9011 213.934 56.8557 213.009 57.6216C212.932 57.6888 212.852 57.7523 212.773 57.8083C213.039 57.5974 212.546 57.967 212.495 57.995C212.238 58.1667 211.972 58.3266 211.698 58.4747C211.56 58.5475 211.42 58.6166 211.278 58.6856C210.819 58.9078 211.575 58.5811 211.092 58.7678C210.735 58.9058 210.371 59.0236 210.001 59.1206C207.916 59.6806 208.801 62.9248 210.894 62.3611C216.822 60.7614 219.641 54.9915 220.053 49.2627C220.475 43.4238 218.627 36.9987 214.562 32.6923C212.269 30.2323 209.14 28.7183 205.788 28.4475C204.883 28.3747 204.108 29.2726 204.108 30.1275C204.108 31.0982 204.881 31.7347 205.788 31.8075L205.785 31.8262Z" fill="#FF5C00"/>
<path d="M239.456 189.872C244.322 188.616 245.362 182.521 245.713 178.299C246.357 170.554 245.169 162.61 243.867 154.996C242.108 144.716 239.627 134.561 236.825 124.52C233.78 113.604 230.326 102.812 226.462 92.1449C222.932 82.3879 219.09 72.7316 214.672 63.3329C214.193 62.3112 213.704 61.2945 213.207 60.2828C212.256 58.3415 209.357 60.042 210.306 61.9777C214.634 70.8127 218.359 79.9351 221.793 89.1508C225.651 99.5183 229.13 110.02 232.23 120.655C235.155 130.699 237.764 140.852 239.756 151.126C241.302 159.102 242.599 166.92 242.498 175.103C242.484 176.567 242.396 178.029 242.235 179.484C242.216 179.649 242.162 180.026 242.218 179.634C242.196 179.789 242.173 179.945 242.149 180.099C242.097 180.435 242.039 180.769 241.963 181.101C241.851 181.661 241.716 182.221 241.552 182.781C241.477 183.027 241.399 183.274 241.311 183.516C241.27 183.632 241.223 183.748 241.18 183.864C241.012 184.33 241.285 183.677 241.143 183.961C240.947 184.376 240.728 184.781 240.488 185.172C240.432 185.258 240.366 185.342 240.312 185.43C240.101 185.764 240.518 185.209 240.344 185.392C240.171 185.575 240.059 185.727 239.9 185.881C239.741 186.036 239.243 186.378 239.758 186.035C239.594 186.143 239.439 186.259 239.269 186.356C239.039 186.486 238.631 186.595 239.114 186.455C238.927 186.509 238.741 186.585 238.554 186.641C236.461 187.183 237.348 190.423 239.446 189.882L239.456 189.872Z" fill="#FF5C00"/>
<path d="M77.5874 94.6401C80.63 100.584 83.4972 106.619 86.3066 112.674C91.0367 122.875 95.4402 132.968 99.5599 143.297C104.122 154.711 108.346 166.296 111.667 178.138C113.16 183.439 114.458 188.802 115.376 194.234C115.471 194.795 115.561 195.355 115.647 195.914C115.692 196.217 115.736 196.517 115.779 196.82C115.802 196.969 115.822 197.118 115.843 197.269C115.88 197.542 115.824 197.107 115.882 197.564C116.028 198.716 116.156 199.872 116.255 201.029C116.446 203.186 116.509 205.353 116.442 207.517C116.408 208.471 116.341 209.425 116.235 210.375C116.22 210.504 116.115 211.256 116.194 210.719C116.162 210.939 116.13 211.161 116.095 211.38C116.024 211.809 115.943 212.235 115.852 212.658C115.674 213.49 115.444 214.311 115.165 215.115C115.102 215.301 115.035 215.488 114.964 215.662C114.915 215.785 114.687 216.3 114.915 215.791C114.751 216.164 114.583 216.524 114.392 216.881C114.223 217.198 114.041 217.508 113.845 217.814C113.758 217.95 113.659 218.085 113.573 218.217C113.532 218.275 113.487 218.333 113.446 218.404C113.196 218.777 113.633 218.191 113.446 218.404C112.988 218.949 112.488 219.459 111.953 219.929C111.9 219.976 111.843 220.017 111.788 220.063C111.622 220.203 112.151 219.808 111.891 219.981C111.749 220.076 111.615 220.183 111.473 220.276C111.161 220.481 110.838 220.668 110.504 220.836C110.349 220.916 110.187 220.987 110.03 221.066C109.657 221.252 110.372 220.956 109.856 221.137C109.509 221.258 109.166 221.379 108.811 221.478C108.456 221.577 108.064 221.665 107.691 221.73C107.557 221.755 106.872 221.844 107.452 221.775C107.249 221.799 107.045 221.822 106.842 221.84C105.938 221.923 105.162 222.555 105.162 223.52C105.162 224.366 105.933 225.283 106.842 225.2C110.179 224.9 113.39 223.64 115.604 221.038C117.859 218.389 118.964 215.012 119.438 211.613C120.06 207.243 119.867 202.817 119.348 198.447C118.717 193.112 117.642 187.843 116.339 182.635C113.336 170.634 109.225 158.913 104.766 147.387C100.493 136.351 95.8322 125.464 90.9172 114.699C87.7644 107.793 84.5202 100.927 81.0986 94.151C80.8957 93.7453 80.6904 93.3415 80.4825 92.9396C79.4969 91.0132 76.5962 92.7118 77.5818 94.6345L77.5874 94.6401Z" fill="#FF5C00"/>
<path d="M239.257 187.765C239.189 187.492 239.189 187.207 239.259 186.934C239.329 186.662 239.467 186.412 239.659 186.206C239.508 186.363 239.864 185.915 239.929 186.005C239.869 186.046 239.807 186.084 239.743 186.118C239.648 186.158 239.556 186.212 239.463 186.257C239.019 186.479 239.663 186.188 239.444 186.268C238.668 186.555 237.897 186.848 237.113 187.113C234.483 188.004 231.821 188.806 229.161 189.604C221.642 191.855 214.087 193.981 206.527 196.088C199.751 197.977 192.969 199.844 186.181 201.688C177.848 203.949 169.524 206.237 161.227 208.627C146.647 212.823 132.029 217.027 117.075 219.685C115.208 220.02 113.332 220.331 111.447 220.618C110.549 220.754 110.052 221.886 110.273 222.685C110.538 223.646 111.439 223.991 112.339 223.859C127.73 221.533 142.766 217.422 157.699 213.142C167.08 210.454 176.475 207.825 185.886 205.256C192.546 203.454 199.199 201.628 205.846 199.779C213.598 197.623 221.339 195.446 229.058 193.152C231.875 192.314 234.692 191.472 237.48 190.539C238.343 190.251 239.207 189.96 240.053 189.63C240.7 189.376 241.46 189.133 241.979 188.64C242.212 188.418 242.382 188.139 242.473 187.83C242.563 187.522 242.571 187.194 242.494 186.882C242.323 185.99 241.253 185.482 240.428 185.708C239.495 185.965 239.082 186.88 239.254 187.774L239.257 187.765Z" fill="#FF5C00"/>
<path d="M91.7313 192.545C100.023 193.094 109.091 191.584 116.099 186.902C117.889 185.708 116.209 182.796 114.404 184.002C107.843 188.383 99.4855 189.699 91.7313 189.185C89.5735 189.042 89.5809 192.404 91.7313 192.545Z" fill="#FF5C00"/>
<path d="M90.3571 190.426C83.8835 197.258 79.9168 207.829 85.0968 216.559C89.0168 223.167 97.1051 225.781 104.445 225.404C107.991 225.217 111.841 224.448 114.792 222.363C115.538 221.84 115.882 220.896 115.395 220.065C114.967 219.333 113.842 218.945 113.097 219.462C111.015 220.931 108.464 221.644 105.933 221.924C102.786 222.295 99.5969 222.03 96.5544 221.146C93.592 220.261 90.7678 218.641 88.8563 216.158C86.4296 213.009 85.5784 208.878 86.2635 204.986C87.0774 200.37 89.5358 196.168 92.7315 192.793C94.2248 191.225 91.8467 188.845 90.3571 190.419V190.426Z" fill="#FF5C00"/>
<path d="M284.304 213.6L261.528 183.055C258.574 179.093 252.967 178.276 249.005 181.23L249.003 181.231C245.041 184.186 244.224 189.792 247.178 193.755L269.955 224.3C272.909 228.262 278.516 229.079 282.478 226.125L282.48 226.124C286.442 223.169 287.259 217.563 284.304 213.6Z" fill="#FF5C00"/>
<path d="M255.569 193.495C262.497 189.513 265.558 181.84 262.407 176.357C259.255 170.873 251.084 169.655 244.157 173.637C237.229 177.618 234.168 185.291 237.319 190.775C240.471 196.259 248.642 197.476 255.569 193.495Z" fill="#FE9F39"/>
<path d="M219.785 105.279C196.332 105.279 177.318 124.293 177.318 147.746C177.318 171.199 196.335 190.213 219.785 190.213C243.234 190.213 262.251 171.199 262.251 147.746C262.251 124.293 243.239 105.279 219.785 105.279ZM219.785 178.938C213.615 178.938 207.585 177.109 202.455 173.681C197.326 170.254 193.328 165.382 190.967 159.683C188.606 153.983 187.988 147.711 189.192 141.661C190.395 135.61 193.366 130.052 197.728 125.69C202.091 121.328 207.649 118.357 213.699 117.153C219.75 115.95 226.022 116.567 231.721 118.928C237.421 121.289 242.292 125.287 245.72 130.417C249.147 135.546 250.977 141.577 250.977 147.746C250.977 156.019 247.69 163.952 241.841 169.802C235.991 175.652 228.057 178.938 219.785 178.938Z" fill="#FF5C00"/>
<path d="M218.384 105.094C195.085 105.094 176.198 123.981 176.198 147.28C176.198 170.58 195.085 189.467 218.384 189.467C241.684 189.467 260.571 170.58 260.571 147.28C260.571 123.981 241.684 105.094 218.384 105.094ZM218.384 178.267C212.256 178.267 206.265 176.45 201.169 173.045C196.073 169.64 192.102 164.801 189.756 159.139C187.411 153.476 186.798 147.246 187.993 141.235C189.189 135.224 192.14 129.703 196.474 125.37C200.807 121.036 206.328 118.085 212.339 116.889C218.35 115.694 224.58 116.307 230.243 118.652C235.905 120.998 240.744 124.969 244.149 130.065C247.554 135.161 249.371 141.152 249.371 147.28C249.371 151.35 248.57 155.379 247.012 159.139C245.455 162.898 243.173 166.314 240.295 169.191C237.418 172.069 234.002 174.351 230.243 175.908C226.483 177.466 222.454 178.267 218.384 178.267Z" fill="#3A3A77"/>
<path opacity="0.64" d="M218.384 180.88C236.941 180.88 251.984 165.836 251.984 147.28C251.984 128.723 236.941 113.68 218.384 113.68C199.827 113.68 184.784 128.723 184.784 147.28C184.784 165.836 199.827 180.88 218.384 180.88Z" fill="url(#paint2_linear_872_34676)"/>
<path opacity="0.3" d="M142.4 237.143L129.707 229.829C128.747 229.28 128.867 228.317 129.974 227.679L142.031 220.733C143.136 220.096 144.806 220.029 145.764 220.578L158.457 227.892C159.413 228.452 159.293 229.405 158.188 230.044L146.13 236.988C145.03 237.626 143.358 237.693 142.4 237.143Z" fill="#A0B3F8"/>
<path d="M159.103 223.958C159.103 223.921 159.103 223.881 159.103 223.842V196.314H129.063V223.98C129.063 224.329 129.274 224.654 129.709 224.914L142.402 232.224C143.358 232.784 145.03 232.707 146.136 232.07L158.194 225.119C158.754 224.798 159.057 224.391 159.094 223.999L159.103 223.958Z" fill="url(#paint3_linear_872_34676)"/>
<path d="M142.4 204.642L129.707 197.321C128.747 196.761 128.867 195.805 129.974 195.17L142.031 188.211C143.136 187.577 144.808 187.506 145.764 188.058L158.457 195.37C159.413 195.93 159.293 196.886 158.19 197.52L146.13 204.479C145.03 205.123 143.358 205.194 142.4 204.642Z" fill="white"/>
<defs>
<linearGradient id="paint0_linear_872_34676" x1="231.149" y1="119.168" x2="245.597" y2="119.168" gradientUnits="userSpaceOnUse">
<stop stop-color="#EAEFF5"/>
<stop offset="0.99" stop-color="#DEE1F0"/>
</linearGradient>
<linearGradient id="paint1_linear_872_34676" x1="78.0107" y1="140.681" x2="244.399" y2="140.681" gradientUnits="userSpaceOnUse">
<stop stop-color="#FFF3EB"/>
<stop offset="1" stop-color="#FFE1E1"/>
</linearGradient>
<linearGradient id="paint2_linear_872_34676" x1="184.784" y1="147.28" x2="251.984" y2="147.28" gradientUnits="userSpaceOnUse">
<stop stop-color="#EBF4FF"/>
<stop offset="1" stop-color="#EBEBFF"/>
</linearGradient>
<linearGradient id="paint3_linear_872_34676" x1="133.671" y1="213.835" x2="163.417" y2="213.835" gradientUnits="userSpaceOnUse">
<stop stop-color="#FF9254"/>
<stop offset="1" stop-color="#FFCE94"/>
</linearGradient>
</defs>
</svg>
