<svg width="20" height="26" viewBox="0 0 20 26" fill="none" xmlns="http://www.w3.org/2000/svg">
<path d="M17.75 22.625V3.375C17.75 3.14294 17.6578 2.92038 17.4937 2.75628C17.3296 2.59219 17.1071 2.5 16.875 2.5H2.875C2.64294 2.5 2.42038 2.59219 2.25628 2.75628C2.09219 2.92038 2 3.14294 2 3.375V22.625C2 22.8571 2.09219 23.0796 2.25628 23.2437C2.42038 23.4078 2.64294 23.5 2.875 23.5H16.875C17.1071 23.5 17.3296 23.4078 17.4937 23.2437C17.6578 23.0796 17.75 22.8571 17.75 22.625ZM19.5 3.375V22.625C19.5 23.3212 19.2234 23.9889 18.7312 24.4812C18.2389 24.9734 17.5712 25.25 16.875 25.25H2.875C2.17881 25.25 1.51113 24.9734 1.01884 24.4812C0.526562 23.9889 0.25 23.3212 0.25 22.625V3.375C0.25 2.67881 0.526562 2.01113 1.01884 1.51884C1.51113 1.02656 2.17881 0.75 2.875 0.75H16.875C17.5712 0.75 18.2389 1.02656 18.7312 1.51884C19.2234 2.01113 19.5 2.67881 19.5 3.375ZM7.71725 6C7.71725 5.76794 7.80944 5.54538 7.97353 5.38128C8.13763 5.21719 8.36019 5.125 8.59225 5.125H11.5077C11.7398 5.125 11.9624 5.21719 12.1265 5.38128C12.2906 5.54538 12.3827 5.76794 12.3827 6C12.3827 6.23206 12.2906 6.45462 12.1265 6.61872C11.9624 6.78281 11.7398 6.875 11.5077 6.875H8.59225C8.36019 6.875 8.13763 6.78281 7.97353 6.61872C7.80944 6.45462 7.71725 6.23206 7.71725 6ZM10.75 14.75C10.75 14.5179 10.6578 14.2954 10.4937 14.1313C10.3296 13.9672 10.1071 13.875 9.875 13.875C9.64294 13.875 9.42037 13.9672 9.25628 14.1313C9.09219 14.2954 9 14.5179 9 14.75V18.061L6.9525 16.255C6.77691 16.1136 6.55351 16.0454 6.32887 16.0646C6.10424 16.0839 5.8957 16.1891 5.74676 16.3584C5.59781 16.5277 5.51995 16.7479 5.5294 16.9731C5.53886 17.1984 5.6349 17.4113 5.7975 17.5675L9.29575 20.6562C9.45554 20.797 9.66118 20.8747 9.87413 20.8747C10.0871 20.8747 10.2927 20.797 10.4525 20.6562L13.9525 17.5675C14.1151 17.4113 14.2111 17.1984 14.2206 16.9731C14.2301 16.7479 14.1522 16.5277 14.0032 16.3584C13.8543 16.1891 13.6458 16.0839 13.4211 16.0646C13.1965 16.0454 12.9731 16.1136 12.7975 16.255L10.75 18.061V14.75Z" fill="#1A1A1A"/>
</svg>
