<svg width="18" height="18" viewBox="0 0 18 18" fill="none" xmlns="http://www.w3.org/2000/svg">
<path d="M14.625 13.5V14.625M12.375 11.25H14.625M10.125 10.125V12.375M10.125 14.625H12.375V10.125M3.9375 10.125H7.3125C7.62316 10.125 7.875 10.3768 7.875 10.6875V14.0625C7.875 14.3732 7.62316 14.625 7.3125 14.625H3.9375C3.62684 14.625 3.375 14.3732 3.375 14.0625V10.6875C3.375 10.3768 3.62684 10.125 3.9375 10.125ZM10.6875 3.375H14.0625C14.3732 3.375 14.625 3.62684 14.625 3.9375V7.3125C14.625 7.62316 14.3732 7.875 14.0625 7.875H10.6875C10.3768 7.875 10.125 7.62316 10.125 7.3125V3.9375C10.125 3.62684 10.3768 3.375 10.6875 3.375ZM3.9375 3.375H7.3125C7.62316 3.375 7.875 3.62684 7.875 3.9375V7.3125C7.875 7.62316 7.62316 7.875 7.3125 7.875H3.9375C3.62684 7.875 3.375 7.62316 3.375 7.3125V3.9375C3.375 3.62684 3.62684 3.375 3.9375 3.375Z" stroke="#FF5C00" strokeWidth="1.5" strokeLinecap="round" strokeLinejoin="round"/>
</svg>
