<svg width="52" height="52" viewBox="0 0 52 52" fill="none" xmlns="http://www.w3.org/2000/svg">
<rect width="52" height="52" rx="26" fill="#E50000" fill-opacity="0.15"/>
<path d="M25.9997 23.1875V27.875M24.3769 15.6857L14.0672 33.4973C13.9022 33.7823 13.8152 34.1057 13.8149 34.435C13.8147 34.7644 13.9011 35.0879 14.0656 35.3732C14.2301 35.6585 14.4669 35.8954 14.752 36.0601C15.0371 36.2249 15.3606 36.3116 15.6899 36.3116H36.3094C36.6387 36.3116 36.9622 36.2249 37.2473 36.0601C37.5325 35.8954 37.7692 35.6585 37.9337 35.3732C38.0982 35.0879 38.1847 34.7644 38.1844 34.435C38.1841 34.1057 38.0971 33.7823 37.9321 33.4973L27.6224 15.6857C27.4577 15.4012 27.2211 15.1649 26.9363 15.0007C26.6514 14.8365 26.3284 14.75 25.9997 14.75C25.6709 14.75 25.3479 14.8365 25.0631 15.0007C24.7782 15.1649 24.5416 15.4012 24.3769 15.6857Z" stroke="#E50000" strokeWidth="2" strokeLinecap="round" strokeLinejoin="round"/>
<path d="M26 33.5C26.7767 33.5 27.4062 32.8704 27.4062 32.0938C27.4062 31.3171 26.7767 30.6875 26 30.6875C25.2233 30.6875 24.5938 31.3171 24.5938 32.0938C24.5938 32.8704 25.2233 33.5 26 33.5Z" fill="#E50000"/>
</svg>
