<svg width="32" height="32" viewBox="0 0 32 32" fill="none" xmlns="http://www.w3.org/2000/svg">
<path d="M19.0002 13V21M13.0002 13V21M26.9997 7L4.99969 7.00001M25.0002 7V26C25.0002 26.2652 24.8948 26.5196 24.7073 26.7071C24.5198 26.8946 24.2654 27 24.0002 27H8.00018C7.73497 27 7.48061 26.8946 7.29308 26.7071C7.10554 26.5196 7.00018 26.2652 7.00018 26V7M21.0002 7V5C21.0002 4.46957 20.7895 3.96086 20.4144 3.58579C20.0393 3.21071 19.5306 3 19.0002 3H13.0002C12.4698 3 11.961 3.21071 11.586 3.58579C11.2109 3.96086 11.0002 4.46957 11.0002 5V7" stroke="#E92215" strokeWidth="2.5" strokeLinecap="round" strokeLinejoin="round"/>
</svg>
