<svg width="20" height="20" viewBox="0 0 20 20" fill="none" xmlns="http://www.w3.org/2000/svg">
<path d="M12.2544 3.59458H7.74444C7.19924 3.59437 6.65935 3.70157 6.1556 3.91008C5.65185 4.1186 5.19413 4.42432 4.80858 4.8098C4.42302 5.19527 4.11721 5.65293 3.90859 6.15664C3.69998 6.66035 3.59266 7.20022 3.59277 7.74542V12.2554C3.59255 12.8007 3.69979 13.3406 3.90835 13.8445C4.11692 14.3483 4.42272 14.806 4.80828 15.1916C5.19384 15.5771 5.65161 15.8829 6.15541 16.0915C6.65921 16.3001 7.19917 16.4073 7.74444 16.4071H12.2544C12.7997 16.4073 13.3397 16.3001 13.8435 16.0915C14.3473 15.8829 14.805 15.5771 15.1906 15.1916C15.5762 14.806 15.882 14.3483 16.0905 13.8445C16.2991 13.3406 16.4063 12.8007 16.4061 12.2554V7.74542C16.4063 7.20015 16.2991 6.66019 16.0905 6.15638C15.882 5.65258 15.5762 5.19482 15.1906 4.80926C14.805 4.4237 14.3473 4.11789 13.8435 3.90933C13.3397 3.70077 12.7997 3.59353 12.2544 3.59375V3.59458Z" stroke="#666666" stroke-width="1.5"/>
<path d="M16.338 12.9909H17.6872C17.9137 12.9909 18.131 12.9009 18.2912 12.7407C18.4514 12.5805 18.5413 12.3633 18.5413 12.1367V7.86589C18.5413 7.63935 18.4514 7.42209 18.2912 7.2619C18.131 7.10171 17.9137 7.01172 17.6872 7.01172H16.3372M3.66217 12.9909H2.31217C2.2 12.9909 2.08893 12.9688 1.9853 12.9259C1.88167 12.8829 1.7875 12.82 1.70819 12.7407C1.62887 12.6614 1.56595 12.5672 1.52303 12.4636C1.4801 12.36 1.45801 12.2489 1.45801 12.1367V7.86589C1.45801 7.63935 1.548 7.42209 1.70819 7.2619C1.86837 7.10171 2.08564 7.01172 2.31217 7.01172H3.66217" stroke="#666666" stroke-width="1.5"/>
<path d="M2.30371 7.01042V3.59375M17.687 7.01042L17.6787 3.59375M7.42871 7.30208V9.55042M12.5537 7.30208V9.55042M8.28288 12.9896H11.6995" stroke="#666666" stroke-width="1.5" stroke-linecap="round" stroke-linejoin="round"/>
</svg>
