<svg width="81" height="74" viewBox="0 0 81 74" fill="none" xmlns="http://www.w3.org/2000/svg">
<path d="M24.1076 14.3856C27.7731 12.1765 28.9523 7.4141 26.7428 3.74854C24.5337 0.0836693 19.771 -1.09547 16.1065 1.11399C14.4912 2.08748 13.3596 3.55701 12.7871 5.2098L18.577 15.3453C20.4097 15.7149 22.3804 15.4269 24.1076 14.3856Z" fill="url(#paint0_linear_2982_55500)"/>
<path d="M31.3088 37.9183H54.782C59.0425 37.9183 62.5275 41.3 62.6974 45.5198L75.8177 54.7814C75.8484 54.7421 75.8828 54.7077 75.9125 54.667C77.3159 52.7469 76.897 50.0528 74.9772 48.6494L66.0873 42.1512C66.1886 39.9362 65.7095 37.6885 64.6316 35.7777C62.6657 32.2937 59.1327 30.5238 54.6832 30.8056C50.3621 31.0739 47.5567 30.2086 46.3448 28.2282C45.5291 26.8948 45.5305 25.2092 45.8439 23.6329L49.67 20.605C50.8636 19.6604 51.0655 17.9274 50.1209 16.7338C50.0965 16.7028 50.0693 16.6752 50.0434 16.6456L53.6625 11.4168L51.9453 10.228L48.1588 15.6986C47.495 15.6504 46.8126 15.8378 46.2497 16.2832L35.8359 24.5248L28.0539 18.5664C26.1396 16.4579 23.2767 15.3755 21.1699 16.6018C20.7131 16.8678 20.2777 17.214 19.8809 17.6273L30.7422 36.641C30.9764 37.0513 31.1645 37.4794 31.3088 37.9183ZM45.0334 24.275C44.8456 25.7597 44.9686 27.2978 45.7568 28.5868C47.1119 30.8032 50.1309 31.7808 54.7266 31.4935C58.8971 31.2338 62.2034 32.8748 64.0319 36.1167C64.9719 37.7833 65.4232 39.722 65.4101 41.6562L57.9543 36.2063C57.2168 35.6675 56.3266 35.3768 55.4134 35.3768H41.4381C41.1146 35.014 40.725 34.6241 40.2596 34.1987C38.9589 33.1763 37.7436 31.9637 36.6051 30.6623C36.9492 30.5662 37.2803 30.4101 37.5741 30.1776L45.0334 24.275Z" fill="url(#paint1_linear_2982_55500)"/>
<path d="M28.2593 37.9186H30.2032C30.1009 37.6592 29.9862 37.403 29.8439 37.1539L11.0494 4.25137C9.44482 1.44287 5.86779 0.466629 3.05929 2.07119C1.35104 3.04709 0.325881 4.75362 0.141931 6.57279C0.139864 6.57141 0.137798 6.56969 0.135731 6.56866C0.135731 6.56866 0.133319 6.60552 0.12953 6.67338C0.124019 6.73814 0.122985 6.8029 0.11954 6.86801C0.0926713 7.43742 0.0482341 8.81085 0.111273 10.8005C0.402354 19.9908 3.00245 42.2852 20.3368 58.8617V45.8426C20.3368 41.4736 23.8907 37.9186 28.2593 37.9186Z" fill="url(#paint2_linear_2982_55500)"/>
<path d="M78.4472 57.9034L62.7051 46.791V61.1274L71.6824 67.4643C74.3222 69.3321 77.977 68.7062 79.8451 66.0665C81.7132 63.4261 81.0873 59.7712 78.4472 57.9034Z" fill="url(#paint3_linear_2982_55500)"/>
<path d="M30.0228 50.4616C31.9015 50.4616 33.4245 48.9386 33.4245 47.0599C33.4245 45.1812 31.9015 43.6582 30.0228 43.6582C28.1441 43.6582 26.6211 45.1812 26.6211 47.0599C26.6211 48.9386 28.1441 50.4616 30.0228 50.4616Z" fill="url(#paint4_linear_2982_55500)"/>
<path d="M61.6452 66.0771C61.6579 65.9059 61.6713 65.7347 61.6713 65.5604V45.8416C61.6713 42.0366 58.5869 38.9521 54.7818 38.9521H28.2593C24.4543 38.9521 21.3698 42.0366 21.3698 45.8416V65.5604C21.3698 65.7347 21.3833 65.9059 21.396 66.0771H20.8521C20.6843 66.0771 20.52 66.0909 20.3578 66.1112C18.4036 66.3551 16.8906 68.0186 16.8906 70.0386C16.8906 72.2267 18.664 74.0001 20.8521 74.0001H62.1891C64.3772 74.0001 66.1505 72.2267 66.1505 70.0386C66.1505 68.0186 64.6376 66.3551 62.6837 66.1112C62.5212 66.0909 62.3568 66.0771 62.1891 66.0771H61.6452ZM56.0099 42.1151V44.0731H54.0519V42.1151H56.0099ZM52.2241 42.1151V44.0731H50.2661V42.1151H52.2241ZM48.4387 42.1151V44.0731H46.4807V42.1151H48.4387ZM30.0224 41.8926C32.876 41.8926 35.1895 44.2061 35.1895 47.0597C35.1895 49.9133 32.876 52.2268 30.0224 52.2268C27.1684 52.2268 24.8552 49.9133 24.8552 47.0597C24.8552 44.2061 27.1684 41.8926 30.0224 41.8926Z" fill="url(#paint5_linear_2982_55500)"/>
<defs>
<linearGradient id="paint0_linear_2982_55500" x1="28.6103" y1="-1.23992" x2="8.89169" y2="22.8032" gradientUnits="userSpaceOnUse">
<stop stop-color="#F38820"/>
<stop offset="1" stop-color="#FF5C00"/>
</linearGradient>
<linearGradient id="paint1_linear_2982_55500" x1="79.5855" y1="6.66376" x2="27.6368" y2="89.8074" gradientUnits="userSpaceOnUse">
<stop stop-color="#F38820"/>
<stop offset="1" stop-color="#FF5C00"/>
</linearGradient>
<linearGradient id="paint2_linear_2982_55500" x1="31.7094" y1="-3.3062" x2="-36.8023" y2="41.6566" gradientUnits="userSpaceOnUse">
<stop stop-color="#F38820"/>
<stop offset="1" stop-color="#FF5C00"/>
</linearGradient>
<linearGradient id="paint3_linear_2982_55500" x1="81.832" y1="45.0511" x2="53.65" y2="74.6518" gradientUnits="userSpaceOnUse">
<stop stop-color="#F38820"/>
<stop offset="1" stop-color="#FF5C00"/>
</linearGradient>
<linearGradient id="paint4_linear_2982_55500" x1="33.7646" y1="43.1139" x2="25.1598" y2="53.9049" gradientUnits="userSpaceOnUse">
<stop stop-color="#F38820"/>
<stop offset="1" stop-color="#FF5C00"/>
</linearGradient>
<linearGradient id="paint5_linear_2982_55500" x1="68.6135" y1="36.1483" x2="29.5831" y2="104.942" gradientUnits="userSpaceOnUse">
<stop stop-color="#F38820"/>
<stop offset="1" stop-color="#FF5C00"/>
</linearGradient>
</defs>
</svg>
