<svg width="101" height="100" viewBox="0 0 101 100" fill="none" xmlns="http://www.w3.org/2000/svg">
<path d="M86.4945 17.8733L81.8569 22.833C81.688 23.0144 81.4848 23.1595 81.2595 23.2599C81.0342 23.3602 80.7913 23.4136 80.5452 23.4171H80.5196C80.0312 23.4171 79.5628 23.2205 79.2171 22.8701L75.2839 18.8856C75.1099 18.7092 74.9726 18.4992 74.8801 18.2681C74.7875 18.037 74.7416 17.7894 74.745 17.5401C74.7484 17.2907 74.8011 17.0445 74.8999 16.8161C74.9987 16.5877 75.1417 16.3816 75.3204 16.2101L80.2159 11.5118C80.5641 11.1772 81.0275 10.9936 81.5072 11.0002C81.987 11.0068 82.4453 11.203 82.7844 11.5471L86.4597 15.2701C87.1658 15.9858 87.1823 17.139 86.4945 17.8733ZM76.7876 28.2544L23.9105 84.8047C23.2646 85.493 22.4877 86.0414 21.6268 86.4168C20.7659 86.7922 19.8388 86.9868 18.9016 86.9889H18.8997C17.9932 86.9911 17.0953 86.8112 16.2579 86.4595C15.4204 86.1079 14.66 85.5914 14.0207 84.9401C13.3661 84.2816 12.8497 83.4957 12.5026 82.6296C12.1555 81.7635 11.9849 80.8353 12.0011 79.9006C12.0098 78.9662 12.205 78.0432 12.5751 77.1873C12.9451 76.3315 13.4823 75.5603 14.1543 74.9205L69.9694 21.346C70.3176 21.0114 70.7809 20.8278 71.2607 20.8344C71.7405 20.8409 72.1988 21.0372 72.5379 21.3812L76.7529 25.6513C77.459 26.3651 77.4755 27.5202 76.7876 28.2544ZM79.6817 57.3435H61.4042C59.9501 57.346 58.5564 57.9327 57.5287 58.9751C56.5009 60.0175 55.9229 61.4304 55.9214 62.904V81.4395C55.9229 82.9132 56.5009 84.3261 57.5287 85.3684C58.5564 86.4108 59.9501 86.9976 61.4042 87H79.6817C81.1361 86.998 82.5302 86.4115 83.5584 85.3691C84.5866 84.3267 85.1648 82.9135 85.1663 81.4395V62.904C85.1648 61.43 84.5866 60.0169 83.5584 58.9744C82.5302 57.932 81.1361 57.3455 79.6817 57.3435ZM70.5439 79.5724C69.5828 79.5725 68.6312 79.3808 67.7433 79.0081C66.8554 78.6355 66.0486 78.0892 65.369 77.4005C64.6895 76.7118 64.1504 75.8942 63.7826 74.9943C63.4148 74.0945 63.2255 73.13 63.2255 72.156C63.2255 71.182 63.4148 70.2175 63.7826 69.3177C64.1504 68.4178 64.6895 67.6002 65.369 66.9115C66.0486 66.2228 66.8554 65.6766 67.7433 65.3039C68.6312 64.9312 69.5828 64.7395 70.5439 64.7396C72.4845 64.7398 74.3456 65.5212 75.7177 66.9121C77.0899 68.3029 77.8607 70.1892 77.8607 72.156C77.8607 74.1228 77.0899 76.0091 75.7177 77.4C74.3456 78.7908 72.4845 79.5722 70.5439 79.5724Z" fill="url(#paint0_linear_2982_55468)"/>
<defs>
<linearGradient id="paint0_linear_2982_55468" x1="90.75" y1="4.91999" x2="-5.64984" y2="124.22" gradientUnits="userSpaceOnUse">
<stop stop-color="#F38820"/>
<stop offset="1" stop-color="#FF5C00"/>
</linearGradient>
</defs>
</svg>
