<svg width="84" height="74" viewBox="0 0 84 74" fill="none" xmlns="http://www.w3.org/2000/svg">
<path d="M81.6667 9.25C82.9558 9.25 84 8.21516 84 6.9375V2.3125C84 1.03484 82.9558 0 81.6667 0H2.33333C1.04417 0 0 1.03484 0 2.3125V6.9375C0 8.21516 1.04417 9.25 2.33333 9.25H4.66375V64.75H2.33333C1.04417 64.75 0 65.7848 0 67.0625V71.6875C0 72.9652 1.04417 74 2.33333 74H37.3333V62.4375C37.3333 61.1656 38.3833 60.125 39.6667 60.125H44.3333C45.6167 60.125 46.6667 61.1656 46.6667 62.4375V74H81.6667C82.9558 74 84 72.9652 84 71.6875V67.0625C84 65.7848 82.9558 64.75 81.6667 64.75H79.3333V9.25H81.6667ZM37.3333 15.725C37.3333 14.8 38.2667 13.875 39.2 13.875H44.8C45.7333 13.875 46.6667 14.8 46.6667 15.725V21.275C46.6667 22.2 45.7333 23.125 44.8 23.125H39.2C38.2667 23.125 37.3333 22.2 37.3333 21.275V15.725ZM37.3333 29.6C37.3333 28.675 38.2667 27.75 39.2 27.75H44.8C45.7333 27.75 46.6667 28.675 46.6667 29.6V35.15C46.6667 36.075 45.7333 37 44.8 37H39.2C38.2667 37 37.3333 36.075 37.3333 35.15V29.6ZM18.6667 15.725C18.6667 14.8 19.6 13.875 20.5333 13.875H26.1333C27.0667 13.875 28 14.8 28 15.725V21.275C28 22.2 27.0667 23.125 26.1333 23.125H20.5333C19.6 23.125 18.6667 22.2 18.6667 21.275V15.725ZM26.1333 37H20.5333C19.6 37 18.6667 36.075 18.6667 35.15V29.6C18.6667 28.675 19.6 27.75 20.5333 27.75H26.1333C27.0667 27.75 28 28.675 28 29.6V35.15C28 36.075 27.0667 37 26.1333 37ZM28 55.5C28 47.837 34.2679 41.625 42 41.625C49.7321 41.625 56 47.837 56 55.5H28ZM65.3333 35.15C65.3333 36.075 64.4 37 63.4667 37H57.8667C56.9333 37 56 36.075 56 35.15V29.6C56 28.675 56.9333 27.75 57.8667 27.75H63.4667C64.4 27.75 65.3333 28.675 65.3333 29.6V35.15ZM65.3333 21.275C65.3333 22.2 64.4 23.125 63.4667 23.125H57.8667C56.9333 23.125 56 22.2 56 21.275V15.725C56 14.8 56.9333 13.875 57.8667 13.875H63.4667C64.4 13.875 65.3333 14.8 65.3333 15.725V21.275Z" fill="url(#paint0_linear_2982_55459)"/>
<defs>
<linearGradient id="paint0_linear_2982_55459" x1="88.2" y1="-5.92001" x2="-2.11312" y2="122.643" gradientUnits="userSpaceOnUse">
<stop stop-color="#F38820"/>
<stop offset="1" stop-color="#FF5C00"/>
</linearGradient>
</defs>
</svg>
