<svg width="101" height="100" viewBox="0 0 101 100" fill="none" xmlns="http://www.w3.org/2000/svg">
<path d="M28.5813 63.3735C27.7635 64.2636 27.259 65.3965 27.1445 66.5998C27.03 67.8031 27.3117 69.0108 27.9469 70.0392L25.5 72.4829L27.0859 74.0688L29.5297 71.622C30.5581 72.2571 31.7658 72.5389 32.9691 72.4244C34.1723 72.3099 35.3052 71.8053 36.1953 70.9876L52.6016 56.2485L43.3125 46.9595L28.5813 63.3735Z" fill="url(#paint0_linear_2982_55443)"/>
<path d="M70.2279 50.8828C73.0509 48.0199 74.6273 44.1568 74.6132 40.1362C74.5991 36.1156 72.9956 32.2637 70.1526 29.4206C67.3096 26.5776 63.4577 24.9742 59.437 24.9601C55.4164 24.9459 51.5533 26.5223 48.6904 29.3453C48.4686 29.5672 48.2701 29.8047 48.0654 30.0375L69.5373 51.5094C69.7686 51.3031 70.0061 51.1031 70.2279 50.8828Z" fill="url(#paint1_linear_2982_55443)"/>
<path d="M44.7676 44.0765L55.4926 54.8046C59.3851 55.8528 63.5344 55.3157 67.0317 53.3108L46.2566 32.5405C44.2538 36.0374 43.7183 40.1856 44.7676 44.0765Z" fill="url(#paint2_linear_2982_55443)"/>
<path d="M75.2143 59.4264H73.8877C73.3692 59.182 72.9061 58.8342 72.5269 58.4043C72.1478 57.9743 71.8606 57.4714 71.683 56.9264V55.0623C71.683 55.0248 71.6756 54.9876 71.6612 54.9529C71.6469 54.9182 71.6258 54.8867 71.5993 54.8601C71.5727 54.8336 71.5412 54.8125 71.5065 54.7981C71.4718 54.7838 71.4346 54.7764 71.3971 54.7764C71.3595 54.7764 71.3223 54.7838 71.2876 54.7981C71.253 54.8125 71.2214 54.8336 71.1949 54.8601C71.1683 54.8867 71.1473 54.9182 71.1329 54.9529C71.1185 54.9876 71.1111 55.0248 71.1111 55.0623V56.9904C70.9419 57.5225 70.6642 58.0137 70.2954 58.433C69.9267 58.8523 69.475 59.1905 68.9689 59.4264H67.5799C67.504 59.4264 67.4313 59.4565 67.3777 59.5101C67.3241 59.5637 67.2939 59.6365 67.2939 59.7123C67.2939 59.7881 67.3241 59.8609 67.3777 59.9145C67.4313 59.9681 67.504 59.9982 67.5799 59.9982H68.8986C69.9157 60.6495 70.6929 61.6143 71.1127 62.7467V64.3592C71.1127 64.435 71.1428 64.5077 71.1964 64.5614C71.2501 64.615 71.3228 64.6451 71.3986 64.6451C71.4745 64.6451 71.5472 64.615 71.6008 64.5614C71.6544 64.5077 71.6846 64.435 71.6846 64.3592V62.6529C71.8515 62.0857 72.1314 61.558 72.5073 61.1016C72.8832 60.6451 73.3474 60.2693 73.8721 59.9967H75.2111C75.287 59.9967 75.3597 59.9666 75.4133 59.9129C75.4669 59.8593 75.4971 59.7866 75.4971 59.7107C75.4971 59.6349 75.4669 59.5622 75.4133 59.5086C75.3597 59.4549 75.287 59.4248 75.2111 59.4248L75.2143 59.4264Z" fill="url(#paint3_linear_2982_55443)"/>
<path d="M27.4051 38.4811H28.7238C29.7403 39.1337 30.5173 40.0987 30.9379 41.2311V42.8436C30.9379 42.9194 30.968 42.9921 31.0216 43.0457C31.0753 43.0994 31.148 43.1295 31.2238 43.1295C31.2997 43.1295 31.3724 43.0994 31.426 43.0457C31.4796 42.9921 31.5098 42.9194 31.5098 42.8436V41.1342C31.6774 40.5672 31.9575 40.0399 32.3333 39.5835C32.7091 39.1272 33.173 38.7512 33.6973 38.4779H35.0379C35.1137 38.4779 35.1865 38.4478 35.2401 38.3942C35.2937 38.3406 35.3238 38.2678 35.3238 38.192C35.3238 38.1162 35.2937 38.0434 35.2401 37.9898C35.1865 37.9362 35.1137 37.9061 35.0379 37.9061H33.7082C33.1893 37.6623 32.7259 37.3146 32.3467 36.8846C31.9675 36.4546 31.6805 35.9514 31.5035 35.4061V33.5389C31.5035 33.463 31.4734 33.3903 31.4198 33.3367C31.3661 33.2831 31.2934 33.2529 31.2176 33.2529C31.1417 33.2529 31.069 33.2831 31.0154 33.3367C30.9618 33.3903 30.9316 33.463 30.9316 33.5389V35.4686C30.7626 36.0004 30.4849 36.4912 30.1162 36.9101C29.7474 37.3289 29.2956 37.6664 28.7895 37.9014H27.4051C27.3292 37.9014 27.2565 37.9315 27.2029 37.9851C27.1493 38.0387 27.1191 38.1115 27.1191 38.1873C27.1191 38.2631 27.1493 38.3359 27.2029 38.3895C27.2565 38.4431 27.3292 38.4732 27.4051 38.4732V38.4811Z" fill="url(#paint4_linear_2982_55443)"/>
<path d="M32.7046 27.0107H33.6062C34.301 27.4548 34.8325 28.113 35.1203 28.8857V29.992C35.1203 30.0438 35.1408 30.0935 35.1775 30.1301C35.2141 30.1667 35.2638 30.1873 35.3156 30.1873C35.3674 30.1873 35.417 30.1667 35.4537 30.1301C35.4903 30.0935 35.5109 30.0438 35.5109 29.992V28.8217C35.6262 28.4336 35.8186 28.0728 36.0766 27.7608C36.3346 27.4488 36.6529 27.1921 37.0124 27.0061H37.9281C37.9553 27.0085 37.9827 27.0052 38.0086 26.9965C38.0345 26.9877 38.0583 26.9737 38.0785 26.9552C38.0986 26.9368 38.1147 26.9143 38.1258 26.8893C38.1368 26.8643 38.1425 26.8373 38.1425 26.81C38.1425 26.7826 38.1368 26.7556 38.1258 26.7306C38.1147 26.7056 38.0986 26.6831 38.0785 26.6647C38.0583 26.6462 38.0345 26.6322 38.0086 26.6234C37.9827 26.6147 37.9553 26.6114 37.9281 26.6139H37.0187C36.6637 26.4473 36.3468 26.2097 36.0874 25.9156C35.8281 25.6216 35.6318 25.2775 35.5109 24.9045V23.6279C35.5109 23.5761 35.4903 23.5265 35.4537 23.4898C35.417 23.4532 35.3674 23.4326 35.3156 23.4326C35.2638 23.4326 35.2141 23.4532 35.1775 23.4898C35.1408 23.5265 35.1203 23.5761 35.1203 23.6279V24.9482C35.0046 25.3125 34.8144 25.6486 34.5619 25.9354C34.3093 26.2221 33.9998 26.4532 33.6531 26.6139H32.7046C32.6774 26.6114 32.65 26.6147 32.6241 26.6234C32.5982 26.6322 32.5744 26.6462 32.5542 26.6647C32.5341 26.6831 32.518 26.7056 32.5069 26.7306C32.4959 26.7556 32.4902 26.7826 32.4902 26.81C32.4902 26.8373 32.4959 26.8643 32.5069 26.8893C32.518 26.9143 32.5341 26.9368 32.5542 26.9552C32.5744 26.9737 32.5982 26.9877 32.6241 26.9965C32.65 27.0052 32.6774 27.0085 32.7046 27.0061V27.0107Z" fill="url(#paint5_linear_2982_55443)"/>
<defs>
<linearGradient id="paint0_linear_2982_55443" x1="53.9566" y1="44.7907" x2="19.6668" y2="87.7797" gradientUnits="userSpaceOnUse">
<stop stop-color="#F38820"/>
<stop offset="1" stop-color="#FF5C00"/>
</linearGradient>
<linearGradient id="paint1_linear_2982_55443" x1="75.9407" y1="22.836" x2="42.3608" y2="64.9445" gradientUnits="userSpaceOnUse">
<stop stop-color="#F38820"/>
<stop offset="1" stop-color="#FF5C00"/>
</linearGradient>
<linearGradient id="paint2_linear_2982_55443" x1="68.1711" y1="30.7175" x2="39.3492" y2="66.8637" gradientUnits="userSpaceOnUse">
<stop stop-color="#F38820"/>
<stop offset="1" stop-color="#FF5C00"/>
</linearGradient>
<linearGradient id="paint3_linear_2982_55443" x1="75.9072" y1="53.9869" x2="63.1151" y2="67.3213" gradientUnits="userSpaceOnUse">
<stop stop-color="#F38820"/>
<stop offset="1" stop-color="#FF5C00"/>
</linearGradient>
<linearGradient id="paint4_linear_2982_55443" x1="35.7341" y1="32.4628" x2="22.9315" y2="45.8001" gradientUnits="userSpaceOnUse">
<stop stop-color="#F38820"/>
<stop offset="1" stop-color="#FF5C00"/>
</linearGradient>
<linearGradient id="paint5_linear_2982_55443" x1="38.4251" y1="22.8922" x2="29.6721" y2="32.0774" gradientUnits="userSpaceOnUse">
<stop stop-color="#F38820"/>
<stop offset="1" stop-color="#FF5C00"/>
</linearGradient>
</defs>
</svg>
