<svg width="32" height="32" viewBox="0 0 32 32" fill="none" xmlns="http://www.w3.org/2000/svg">
<path d="M16 1.33325C15.8185 1.33349 15.6389 1.37078 15.4723 1.44285C15.3057 1.51493 15.1556 1.62026 15.0311 1.75239C14.9067 1.88453 14.8105 2.04069 14.7485 2.2113C14.6865 2.38191 14.66 2.56338 14.6707 2.74459C8.67867 3.40925 4 8.50059 4 14.6666V15.3333H3C2.73478 15.3333 2.48043 15.4386 2.29289 15.6261C2.10536 15.8137 2 16.068 2 16.3333C2 16.5985 2.10536 16.8528 2.29289 17.0404C2.48043 17.2279 2.73478 17.3333 3 17.3333H6.15333C6.04506 17.6629 5.99322 18.0084 6 18.3553C6.01533 19.0213 6.26867 19.5046 6.43067 19.8673C6.86133 20.8266 6.924 21.5539 7.05333 22.3466C7.152 22.9499 7.34667 23.6599 7.824 24.2693L6.92867 26.8073C6.88238 26.9316 6.86132 27.064 6.86669 27.1965C6.87207 27.3291 6.90378 27.4593 6.95998 27.5795C7.01618 27.6998 7.09575 27.8076 7.19404 27.8967C7.29233 27.9859 7.40738 28.0546 7.53249 28.0988C7.6576 28.1431 7.79027 28.162 7.92275 28.1544C8.05524 28.1469 8.1849 28.113 8.30417 28.0549C8.42345 27.9967 8.52995 27.9154 8.61748 27.8156C8.70501 27.7159 8.77182 27.5997 8.814 27.4739L9.58333 25.2926L14.8473 27.1526L14.0767 29.3333C14.0304 29.4576 14.0093 29.59 14.0147 29.7225C14.0201 29.8551 14.0518 29.9853 14.108 30.1055C14.1642 30.2258 14.2437 30.3336 14.342 30.4227C14.4403 30.5119 14.5554 30.5806 14.6805 30.6248C14.8056 30.6691 14.9383 30.688 15.0708 30.6804C15.2032 30.6729 15.3329 30.639 15.4522 30.5809C15.5714 30.5227 15.678 30.4414 15.7655 30.3416C15.853 30.2419 15.9198 30.1257 15.962 29.9999L17.044 26.9386C17.1927 26.6206 17.8487 25.8046 18.6173 25.0693C19.3933 24.3259 20.2887 23.5933 20.914 23.1473C23.1973 21.5166 25.3527 20.2973 25.3607 20.2926L25.3673 20.2906L25.3727 20.2866C26.39 19.6759 26.8627 18.4606 26.5713 17.3333H29C29.2652 17.3333 29.5196 17.2279 29.7071 17.0404C29.8946 16.8528 30 16.5985 30 16.3333C30 16.068 29.8946 15.8137 29.7071 15.6261C29.5196 15.4386 29.2652 15.3333 29 15.3333H28V14.6666C28 8.49992 23.3213 3.40925 17.3293 2.74459C17.34 2.56338 17.3135 2.38191 17.2515 2.2113C17.1895 2.04069 17.0933 1.88453 16.9689 1.75239C16.8444 1.62026 16.6943 1.51493 16.5277 1.44285C16.3611 1.37078 16.1815 1.33349 16 1.33325ZM16 4.66658C21.5347 4.66658 26 9.13192 26 14.6666V15.3333H6V14.6666C6 9.13192 10.4653 4.66658 16 4.66658ZM8.896 17.3333H9.034C9.274 17.3559 9.50067 17.4686 9.67333 17.6526L9.78667 17.8393C9.902 18.0306 10.0607 18.2906 10.2487 18.5793C10.624 19.1573 11.0927 19.8399 11.626 20.3739C12.542 21.2893 13.704 21.3333 14.3333 21.3333C15.3567 21.3333 16.2573 20.8612 17.4027 20.3153C18.5473 19.7686 19.7873 19.0953 20.8073 18.5466C21.0827 18.3986 21.614 18.0959 22.2447 17.8199C22.8753 17.5446 23.598 17.3333 23.986 17.3333C24.266 17.3333 24.5193 17.4953 24.6227 17.7599C24.681 17.9063 24.6848 18.0687 24.6334 18.2176C24.582 18.3665 24.4788 18.492 24.3427 18.5713C24.3247 18.5819 22.1307 19.8206 19.7527 21.5193C18.8668 22.1632 18.0255 22.8663 17.2347 23.6239C16.6433 24.1893 16.1053 24.7446 15.69 25.3293L9.49067 23.1393C9.17467 22.8606 9.12667 22.6392 9.026 22.0233C8.91467 21.3426 8.81533 20.2986 8.25533 19.0499H8.25667C8.092 18.6826 8.002 18.4079 8 18.3113C7.99333 17.9913 8.082 17.7646 8.288 17.5859C8.47733 17.4213 8.68867 17.3446 8.896 17.3333ZM11.828 17.3333H18.836C18.0799 17.7426 17.3148 18.1351 16.5413 18.5106C15.4687 19.0226 14.3913 19.3333 14.3333 19.3333C13.704 19.3333 13.458 19.3773 13.04 18.9599C12.7193 18.6386 12.268 18.0166 11.926 17.4893C11.8867 17.4293 11.8647 17.3906 11.828 17.3333ZM11.6667 27.4793C11.4015 27.4793 11.1471 27.5846 10.9596 27.7721C10.772 27.9597 10.6667 28.214 10.6667 28.4793C10.6667 28.7445 10.772 28.9988 10.9596 29.1864C11.1471 29.3739 11.4015 29.4793 11.6667 29.4793C11.9319 29.4793 12.1862 29.3739 12.3738 29.1864C12.5613 28.9988 12.6667 28.7445 12.6667 28.4793C12.6667 28.214 12.5613 27.9597 12.3738 27.7721C12.1862 27.5846 11.9319 27.4793 11.6667 27.4793Z" fill="#666666"/>
</svg>
