<svg width="82" height="82" viewBox="0 0 82 82" fill="none" xmlns="http://www.w3.org/2000/svg">
<path d="M40.625 0.137695C18.1875 0.137695 0 18.3314 0 40.7627C0 63.1939 18.1875 81.3877 40.625 81.3877C63.0563 81.3877 81.25 63.1939 81.25 40.7627C81.25 18.3314 63.0563 0.137695 40.625 0.137695ZM33.8125 37.2002H32.05V38.9127H31.8938C31.9938 39.1877 32.0563 39.4814 32.0563 39.7814V65.5439C32.0563 66.9502 30.8813 68.1377 29.425 68.1377C27.9813 68.1377 26.7875 66.9564 26.7875 65.5439V39.7689C26.7875 39.4564 26.85 39.1814 26.9563 38.9064H26.775V37.2002H25.0187C22.1062 37.2002 19.7437 34.8939 19.7437 32.0502V21.7377C19.7437 19.4814 21.2063 17.5877 23.2625 16.8814V31.0814C23.2625 31.6189 23.6562 32.0439 24.15 32.0439C24.625 32.0439 25.0187 31.6127 25.0187 31.0814V16.5752H28.5437V31.0814C28.5437 31.6189 28.9438 32.0439 29.4313 32.0439C29.9188 32.0439 30.3 31.6127 30.3 31.0814V16.5752H33.8187V31.0814C33.8187 31.6189 34.2062 32.0439 34.6938 32.0439C35.1813 32.0439 35.5625 31.6127 35.5625 31.0814V16.8877C37.6063 17.5939 39.0938 19.4939 39.0938 21.7502V32.0502H39.1063C39.1 34.8939 36.725 37.2002 33.8125 37.2002ZM52.1938 38.2627V38.8002H51.9813C52.125 39.1002 52.1938 39.4314 52.1938 39.7814V65.5439C52.1938 66.9502 51.0063 68.1377 49.5375 68.1377C48.1 68.1377 46.9062 66.9564 46.9062 65.5439V39.7689C46.9062 39.4189 46.9875 39.0939 47.1188 38.7939H46.9062V38.2627C43.8375 36.7189 41.6375 32.6064 41.6375 27.7439C41.6375 21.5877 45.1688 16.5877 49.5375 16.5877C53.9062 16.5877 57.4625 21.5877 57.4625 27.7439C57.4688 32.6064 55.2563 36.7189 52.1938 38.2627Z" fill="url(#paint0_linear_2982_55413)"/>
<defs>
<linearGradient id="paint0_linear_2982_55413" x1="85.3125" y1="-6.36231" x2="-17.4517" y2="122.51" gradientUnits="userSpaceOnUse">
<stop stop-color="#F38820"/>
<stop offset="1" stop-color="#FF5C00"/>
</linearGradient>
</defs>
</svg>
