<svg width="101" height="100" viewBox="0 0 101 100" fill="none" xmlns="http://www.w3.org/2000/svg">
<path d="M63.6093 75.9582H37.4061C35.8232 75.9582 34.5322 77.2634 34.5322 78.8637V85.0944C34.5322 86.6948 35.8232 88 37.4061 88C38.9891 88 40.28 86.6948 40.28 85.0944V81.7849H47.6261V85.0944C47.6261 86.6948 49.6855 88 51.2838 88C52.8667 88 54.9261 86.6948 54.9261 85.0944V81.7849H60.7354V85.0944C60.7354 86.6948 62.0263 88 63.6093 88C65.1922 88 66.4832 86.6948 66.4832 85.0944V78.8637C66.4832 77.2634 65.1922 75.9582 63.6093 75.9582ZM84.1261 42.8781H79.0084C77.4255 42.8781 76.1345 44.1833 76.1345 45.7837V51.5171H54.9261V48.6892H68.2505C69.8335 48.6892 71.1244 47.3841 71.1244 45.7837V17.8466C71.1244 13.5116 67.6358 10 63.3634 10H37.652C33.3642 10 29.8909 13.5271 29.8909 17.8466V45.7837C29.8909 47.3841 31.1819 48.6892 32.7648 48.6892H46.0893V51.5171H24.8808V45.7837C24.8808 44.1833 23.5899 42.8781 22.0069 42.8781H16.8739C15.2909 42.8781 14 44.1833 14 45.7837C14 47.3841 15.2909 48.6892 16.8739 48.6892H19.1177V54.4382C19.1177 56.0386 20.4086 57.3438 21.9916 57.3438H25.3419C25.2343 58.012 25.2651 58.2761 25.2651 60.4203C25.2651 64.2116 28.308 67.2881 32.0579 67.2881H46.0893V72.6486C46.0893 73.7207 46.9499 74.5908 48.0103 74.5908H53.0051C54.0655 74.5908 54.9261 73.7207 54.9261 72.6486V67.2881H68.9421C72.692 67.2881 75.735 64.2116 75.735 60.4203C75.735 58.2295 75.7503 57.9964 75.6581 57.3438H79.0084C80.5914 57.3438 81.8823 56.0386 81.8823 54.4382V48.7048H84.1261C85.7091 48.7048 87 47.3996 87 45.7992C87 44.1833 85.7091 42.8781 84.1261 42.8781Z" fill="url(#paint0_linear_2982_55483)"/>
<defs>
<linearGradient id="paint0_linear_2982_55483" x1="90.65" y1="3.75999" x2="-9.25872" y2="121.019" gradientUnits="userSpaceOnUse">
<stop stop-color="#F38820"/>
<stop offset="1" stop-color="#FF5C00"/>
</linearGradient>
</defs>
</svg>
