<svg width="101" height="100" viewBox="0 0 101 100" fill="none" xmlns="http://www.w3.org/2000/svg">
<path d="M64.5167 33.4783C65.6814 34.6418 67.0776 35.575 68.5973 36.2057C70.1196 36.8366 71.7656 37.1653 73.414 37.1653C75.0624 37.1653 76.7084 36.8366 78.2308 36.2057C79.7531 35.5749 81.149 34.6418 82.3138 33.4783C83.4785 32.3146 84.412 30.9203 85.0403 29.3963C85.6713 27.8748 85.9999 26.2286 85.9999 24.5826C85.9999 22.9367 85.6713 21.2878 85.0403 19.769C84.412 18.245 83.4786 16.8506 82.3138 15.687C81.149 14.5233 79.753 13.5903 78.2308 12.9594C76.7084 12.3286 75.0624 12 73.414 12C71.7656 12 70.1196 12.3287 68.5973 12.9594C67.0776 13.5903 65.6814 14.5233 64.5167 15.687C63.3521 16.8507 62.4186 18.245 61.7876 19.769C61.1565 21.2878 60.8306 22.9367 60.8306 24.5826C60.8306 26.2286 61.1565 27.8748 61.7876 29.3963C62.4186 30.9203 63.3521 32.3146 64.5167 33.4783ZM82.3139 66.524C81.1491 65.3603 79.7531 64.43 78.2309 63.7993C76.7085 63.1683 75.0625 62.8397 73.4141 62.8397C71.7657 62.8397 70.1197 63.1683 68.5974 63.7993C67.0777 64.4301 65.6815 65.3603 64.5168 66.524C63.3521 67.6903 62.4187 69.0848 61.7877 70.6062C61.1566 72.1277 60.8307 73.7762 60.8307 75.4197C60.8307 77.0686 61.1566 78.7145 61.7877 80.2359C62.4187 81.7574 63.3521 83.1545 64.5168 84.3155C65.6815 85.4817 67.0777 86.4148 68.5974 87.0456C70.1197 87.6766 71.7657 88 73.4141 88C75.0625 88 76.7084 87.6766 78.2309 87.0456C79.7532 86.4148 81.1491 85.4818 82.3139 84.3155C83.4786 83.1545 84.4121 81.7575 85.0404 80.2359C85.6714 78.7145 86 77.0686 86 75.4197C86 73.7763 85.6714 72.1278 85.0404 70.6062C84.412 69.0848 83.4786 67.6904 82.3139 66.524ZM47.3244 37.2925C45.626 35.5961 43.5909 34.2363 41.3719 33.3166C39.1502 32.3995 36.7498 31.9223 34.3493 31.9223C31.9463 31.9223 29.5457 32.3995 27.3266 33.3166C25.1076 34.2363 23.0726 35.5961 21.3741 37.2925C19.6756 38.9917 18.3137 41.0273 17.3961 43.2459C16.476 45.4645 16 47.8633 16 50.2648C16 52.6664 16.4759 55.0678 17.3961 57.2837C18.3138 59.5051 19.6756 61.5408 21.3741 63.2372C23.0726 64.9336 25.1075 66.2935 27.3266 67.2132C29.5457 68.1301 31.9462 68.6075 34.3493 68.6075C36.7498 68.6075 39.1502 68.1301 41.3719 67.2132C43.5908 66.2934 45.6259 64.9336 47.3244 63.2372C49.0229 61.5407 50.3822 59.505 51.3024 57.2837C52.22 55.0678 52.6985 52.6664 52.6985 50.2648C52.6985 47.8633 52.22 45.4645 51.3024 43.2459C50.3822 41.0274 49.0229 38.9917 47.3244 37.2925Z" fill="url(#paint0_linear_2982_55488)"/>
<defs>
<linearGradient id="paint0_linear_2982_55488" x1="89.5" y1="5.91999" x2="-8.08222" y2="118.632" gradientUnits="userSpaceOnUse">
<stop stop-color="#F38820"/>
<stop offset="1" stop-color="#FF5C00"/>
</linearGradient>
</defs>
</svg>
