<svg width="101" height="100" viewBox="0 0 101 100" fill="none" xmlns="http://www.w3.org/2000/svg">
<path d="M66.2877 39.2658C59.9471 39.2658 57.7814 43.1314 52.8377 44.5158C53.5533 38.8846 57.1096 33.2939 67.0096 33.2939C81.1346 33.2939 84.6814 23.7939 84.6814 18.8783C84.6814 17.1158 83.2408 15.6846 81.8502 15.6846C80.0752 15.6846 79.0158 17.1158 79.0158 18.8783C79.0158 19.2158 78.6783 27.2846 67.0096 27.2846C51.1033 27.2846 47.5533 38.1721 46.8314 44.5158C41.5471 43.4658 39.4314 39.2658 32.7033 39.2658C25.6439 39.2658 14.3096 52.9689 14.3096 69.8252C14.3096 78.2721 18.5377 82.8096 22.8096 82.8096C31.9877 82.8096 33.7627 68.4377 49.6658 68.4377C65.2252 68.4377 67.0096 82.8096 76.1783 82.8096C80.4502 82.8096 84.6814 78.6064 84.6814 69.8252C84.6814 52.9689 73.7283 39.2658 66.2877 39.2658ZM67.0096 49.7721C69.1252 49.7721 70.8939 51.5377 70.8939 53.6408C70.8939 55.7846 69.1252 57.5064 67.0096 57.5064C65.2252 57.5064 63.4502 55.7814 63.4502 53.6408C63.4533 51.5408 65.2252 49.7721 67.0096 49.7721ZM40.8283 62.4221H34.8221V68.4408H29.1564V62.4221H23.1502V56.4564H29.1564V50.8252H34.8221V56.4564H40.8283V62.4221ZM57.4471 59.6064C57.4471 57.5064 59.2252 55.7814 61.3408 55.7814C63.4533 55.7814 65.2252 57.5064 65.2252 59.6064C65.2252 61.3721 63.4533 63.1408 61.3408 63.1408C59.2252 63.1408 57.4471 61.3752 57.4471 59.6064ZM67.0096 69.1064C65.2252 69.1064 63.4502 67.3408 63.4502 65.2408C63.4502 63.1408 65.2221 61.3752 67.0096 61.3752C69.1252 61.3752 70.8939 63.1408 70.8939 65.2408C70.8939 67.3408 69.1252 69.1064 67.0096 69.1064ZM76.9033 59.6064C76.9033 61.3721 75.1252 63.1408 73.0127 63.1408C70.8939 63.1408 69.1252 61.3752 69.1252 59.6064C69.1252 57.5064 70.8939 55.7814 73.0127 55.7814C75.1252 55.7846 76.9033 57.5064 76.9033 59.6064Z" fill="url(#paint0_linear_2982_55473)"/>
<defs>
<linearGradient id="paint0_linear_2982_55473" x1="88.2" y1="10.3146" x2="4.27736" y2="120.649" gradientUnits="userSpaceOnUse">
<stop stop-color="#F38820"/>
<stop offset="1" stop-color="#FF5C00"/>
</linearGradient>
</defs>
</svg>
