<svg width="60" height="60" viewBox="0 0 60 60" fill="none" xmlns="http://www.w3.org/2000/svg">
<g clip-path="url(#clip0_801_24789)">
<path d="M59.8144 15.0342C59.9362 15.278 60 15.5475 60 15.8203V54.7266C60 57.6342 57.6342 60 54.7266 60C51.8189 60 49.4531 57.6342 49.4531 54.7266V15.8203C49.4531 15.5475 49.5164 15.2784 49.6388 15.0342L53.1544 8.00297C53.3004 7.71101 53.5248 7.46547 53.8025 7.29387C54.0802 7.12226 54.4001 7.03137 54.7266 7.03137C55.053 7.03137 55.373 7.12226 55.6507 7.29387C55.9283 7.46547 56.1527 7.71101 56.2987 8.00297L59.8144 15.0342ZM56.4844 54.7266V52.9688H52.9688V54.7266C52.9692 55.1926 53.1546 55.6394 53.4841 55.969C53.8137 56.2985 54.2605 56.4839 54.7266 56.4844C55.1926 56.4839 55.6394 56.2985 55.969 55.969C56.2985 55.6394 56.4839 55.1926 56.4844 54.7266ZM56.4844 49.4531V45.9375H52.9688V49.4531H56.4844ZM56.4844 42.4219V21.0938H52.9688V42.4219H56.4844ZM56.4844 17.5781V16.2352L54.7266 12.7195L52.9688 16.2352V17.5781H56.4844ZM44.1797 7.03125C44.6459 7.03125 45.093 7.21645 45.4226 7.5461C45.7523 7.87575 45.9375 8.32286 45.9375 8.78906V58.2422C45.9375 58.7084 45.7523 59.1555 45.4226 59.4851C45.093 59.8148 44.6459 60 44.1797 60H1.75781C1.29161 60 0.844505 59.8148 0.514851 59.4851C0.185198 59.1555 0 58.7084 0 58.2422L0 8.78906C0 8.32286 0.185198 7.87575 0.514851 7.5461C0.844505 7.21645 1.29161 7.03125 1.75781 7.03125H14.243C15.0586 3.09844 18.6328 0 22.9688 0C27.2128 0 30.7622 3.02484 31.5792 7.03125H44.1797ZM14.0625 12.3047V14.0625H31.875V12.3047C31.875 11.3681 30.9984 10.5469 30 10.5469C29.5338 10.5469 29.0867 10.3617 28.757 10.032C28.4274 9.70237 28.2422 9.25526 28.2422 8.78906C28.2422 5.88141 25.8764 3.51562 22.9688 3.51562C20.0466 3.51562 17.5781 5.93062 17.5781 8.78906C17.5781 9.25526 17.3929 9.70237 17.0633 10.032C16.7336 10.3617 16.2865 10.5469 15.8203 10.5469C15.3543 10.5474 14.9074 10.7327 14.5779 11.0623C14.2484 11.3918 14.063 11.8386 14.0625 12.3047ZM22.9688 31.7578C25.8764 31.7578 28.2422 34.1236 28.2422 37.0312C28.2425 38.1295 27.9054 39.2014 27.2767 40.1019C26.6479 41.0024 25.7577 41.688 24.7266 42.0661V44.1797C24.7266 44.6459 24.5414 45.093 24.2117 45.4226C23.8821 45.7523 23.435 45.9375 22.9688 45.9375C22.5025 45.9375 22.0554 45.7523 21.7258 45.4226C21.3961 45.093 21.2109 44.6459 21.2109 44.1797V42.1186C20.2964 41.8195 19.4137 41.28 18.622 40.5131C18.2872 40.1887 18.0949 39.7446 18.0875 39.2784C18.0801 38.8122 18.2582 38.3622 18.5827 38.0273C18.9071 37.6925 19.3512 37.5002 19.8174 37.4928C20.2836 37.4855 20.7336 37.6636 21.0684 37.988C21.9098 38.8036 22.8052 39.0689 23.5903 38.7366C24.27 38.4487 24.7266 37.7634 24.7266 37.0312C24.7261 36.5652 24.5407 36.1184 24.2112 35.7888C23.8816 35.4593 23.4348 35.2739 22.9688 35.2734C21.5522 35.2734 20.2177 34.6941 19.2122 33.6422C18.2339 32.6189 17.6953 31.2839 17.6953 29.8828C17.6953 27.6741 19.0894 25.6828 21.1641 24.9267L21.2109 24.9108V22.8516C21.2109 22.3854 21.3961 21.9383 21.7258 21.6086C22.0554 21.2789 22.5025 21.0938 22.9688 21.0938C23.435 21.0938 23.8821 21.2789 24.2117 21.6086C24.5414 21.9383 24.7266 22.3854 24.7266 22.8516V24.8934C25.8862 25.2839 26.9925 26.0616 27.9427 27.1931C28.0941 27.3695 28.209 27.5741 28.2808 27.7952C28.3526 28.0163 28.3798 28.2494 28.3609 28.4811C28.342 28.7128 28.2773 28.9384 28.1706 29.1449C28.0639 29.3514 27.9174 29.5347 27.7394 29.6842C27.5614 29.8337 27.3555 29.9464 27.1336 30.0158C26.9118 30.0852 26.6784 30.1099 26.4469 30.0885C26.2155 30.067 25.9906 29.9999 25.7852 29.891C25.5799 29.7821 25.3982 29.6335 25.2506 29.4539C24.3211 28.3477 23.2702 27.9014 22.3669 28.2305C22.0284 28.3547 21.7362 28.5797 21.5295 28.8752C21.3228 29.1706 21.2116 29.5223 21.2109 29.8828C21.2109 30.8813 22.0322 31.7578 22.9688 31.7578ZM35.3906 17.5781H10.5469V49.4531H35.3906V17.5781ZM42.4219 56.4844V10.5469H35.0784C35.2833 11.1047 35.3906 11.6967 35.3906 12.3047V14.0625H37.1484C37.6146 14.0625 38.0617 14.2477 38.3914 14.5774C38.7211 14.907 38.9062 15.3541 38.9062 15.8203V51.2109C38.9062 51.6771 38.7211 52.1242 38.3914 52.4539C38.0617 52.7836 37.6146 52.9688 37.1484 52.9688H8.78906C8.32286 52.9688 7.87575 52.7836 7.5461 52.4539C7.21645 52.1242 7.03125 51.6771 7.03125 51.2109V15.8203C7.03125 15.3541 7.21645 14.907 7.5461 14.5774C7.87575 14.2477 8.32286 14.0625 8.78906 14.0625H10.5469V12.3047C10.5469 11.6883 10.6538 11.0972 10.8492 10.5469H3.51562V56.4844H42.4219ZM22.9688 10.5469C22.5025 10.5469 22.0554 10.3617 21.7258 10.032C21.3961 9.70237 21.2109 9.25526 21.2109 8.78906C21.2109 8.32286 21.3961 7.87575 21.7258 7.5461C22.0554 7.21645 22.5025 7.03125 22.9688 7.03125C23.435 7.03125 23.8821 7.21645 24.2117 7.5461C24.5414 7.87575 24.7266 8.32286 24.7266 8.78906C24.7266 9.25526 24.5414 9.70237 24.2117 10.032C23.8821 10.3617 23.435 10.5469 22.9688 10.5469Z" fill="#F38820"/>
</g>
<defs>
<clipPath id="clip0_801_24789">
<rect width="60" height="60" fill="white"/>
</clipPath>
</defs>
</svg>
