<svg width="60" height="60" viewBox="0 0 60 60" fill="none" xmlns="http://www.w3.org/2000/svg">
<g clip-path="url(#clip0_801_24773)">
<path d="M54.7266 0H5.27344C2.36578 0 0 2.36578 0 5.27344V40.6641C0 43.5717 2.36578 45.9375 5.27344 45.9375H20.0072L18.2494 49.4531H15.8203C12.9127 49.4531 10.5469 51.8189 10.5469 54.7266V58.2422C10.5469 58.7084 10.7321 59.1555 11.0617 59.4851C11.3914 59.8148 11.8385 60 12.3047 60H47.6953C48.1615 60 48.6086 59.8148 48.9383 59.4851C49.2679 59.1555 49.4531 58.7084 49.4531 58.2422V54.7266C49.4531 51.8189 47.0873 49.4531 44.1797 49.4531H41.7506L39.9928 45.9375H54.7266C57.6342 45.9375 60 43.5717 60 40.6641V5.27344C60 2.36578 57.6342 0 54.7266 0ZM44.1797 52.9688C44.6457 52.9692 45.0926 53.1546 45.4221 53.4841C45.7516 53.8137 45.937 54.2605 45.9375 54.7266V56.4844H14.0625V54.7266C14.063 54.2605 14.2484 53.8137 14.5779 53.4841C14.9074 53.1546 15.3543 52.9692 15.8203 52.9688H44.1797ZM22.1803 49.4531L23.9381 45.9375H36.0619L37.8197 49.4531H22.1803ZM56.4844 40.6641C56.4839 41.1301 56.2985 41.5769 55.969 41.9065C55.6394 42.236 55.1926 42.4214 54.7266 42.4219H5.27344C4.80739 42.4214 4.36057 42.236 4.03102 41.9065C3.70148 41.5769 3.51612 41.1301 3.51562 40.6641V38.9062H56.4844V40.6641ZM56.4844 35.3906H3.51562V5.27344C3.51612 4.80739 3.70148 4.36057 4.03102 4.03102C4.36057 3.70148 4.80739 3.51612 5.27344 3.51562H54.7266C55.1926 3.51612 55.6394 3.70148 55.969 4.03102C56.2985 4.36057 56.4839 4.80739 56.4844 5.27344V35.3906ZM44.1797 7.03125H43.4091C42.3183 7.03021 41.2542 7.36789 40.3636 7.99765C39.4731 8.6274 38.8 9.51816 38.4375 10.5469H15.8203C15.5428 10.5469 15.2692 10.6126 15.022 10.7387C14.7748 10.8648 14.5609 11.0476 14.3979 11.2722C14.2349 11.4968 14.1274 11.7568 14.0841 12.0309C14.0409 12.305 14.0632 12.5855 14.1492 12.8494L17.6648 23.6306C17.7798 23.9833 18.0033 24.2905 18.3035 24.5084C18.6036 24.7263 18.965 24.8437 19.3359 24.8438H37.1484C37.5419 24.8437 37.9239 24.7117 38.2334 24.4688C38.543 24.2259 38.762 23.8862 38.8556 23.5041L41.7038 11.8781C41.7985 11.4977 42.0179 11.1599 42.327 10.9186C42.636 10.6773 43.017 10.5465 43.4091 10.5469H44.1797C44.6459 10.5469 45.093 10.3617 45.4226 10.032C45.7523 9.70237 45.9375 9.25526 45.9375 8.78906C45.9375 8.32286 45.7523 7.87575 45.4226 7.5461C45.093 7.21645 44.6459 7.03125 44.1797 7.03125ZM35.7694 21.3281H20.6119L18.2423 14.0625H37.5487L35.7694 21.3281ZM33.6328 31.875C34.099 31.875 34.5461 31.6898 34.8758 31.3601C35.2054 31.0305 35.3906 30.5834 35.3906 30.1172C35.3906 29.651 35.2054 29.2039 34.8758 28.8742C34.5461 28.5446 34.099 28.3594 33.6328 28.3594C33.1666 28.3594 32.7195 28.5446 32.3899 28.8742C32.0602 29.2039 31.875 29.651 31.875 30.1172C31.875 30.5834 32.0602 31.0305 32.3899 31.3601C32.7195 31.6898 33.1666 31.875 33.6328 31.875ZM22.7344 31.875C23.2006 31.875 23.6477 31.6898 23.9773 31.3601C24.307 31.0305 24.4922 30.5834 24.4922 30.1172C24.4922 29.651 24.307 29.2039 23.9773 28.8742C23.6477 28.5446 23.2006 28.3594 22.7344 28.3594C22.2682 28.3594 21.8211 28.5446 21.4914 28.8742C21.1618 29.2039 20.9766 29.651 20.9766 30.1172C20.9766 30.5834 21.1618 31.0305 21.4914 31.3601C21.8211 31.6898 22.2682 31.875 22.7344 31.875Z" fill="#F38820"/>
</g>
<defs>
<clipPath id="clip0_801_24773">
<rect width="60" height="60" fill="white"/>
</clipPath>
</defs>
</svg>
