<svg width="60" height="60" viewBox="0 0 60 60" fill="none" xmlns="http://www.w3.org/2000/svg">
<path d="M37.5323 4.39453C40.6279 4.39453 42.4944 5.5323 43.8767 8.41348C46.1345 8.00684 48.4095 8.51543 49.9521 10.0579C52.017 12.1229 52.516 15.1497 51.4487 17.6794C52.2453 18.0202 52.9295 18.4278 53.5261 18.935C54.9207 20.1205 55.664 21.7523 55.664 23.7767C55.664 26.0268 54.39 27.651 52.3521 28.5427C51.6095 28.8676 50.781 29.0919 49.9006 29.2298C50.0815 30.3915 50.1711 31.5884 50.1711 32.8252C50.1711 39.1185 48.0688 44.6546 43.8613 48.8622L43.8442 48.8791C39.4939 53.119 33.2423 55.6639 27.2812 55.6639L27.3131 55.6638C27.3026 55.6639 27.2919 55.6641 27.2813 55.6641C24.211 55.6641 21.2046 55.0206 18.3651 53.7544L18.1672 53.7916L17.8775 53.8453C17.7938 53.8606 17.7096 53.8759 17.6249 53.8912L17.3689 53.937L17.1096 53.9827C16.9793 54.0054 16.8478 54.0281 16.7154 54.0506L16.4493 54.0954C16.182 54.14 15.9113 54.184 15.6382 54.2269C14.8037 54.3582 13.993 54.4728 13.2214 54.566L13.0664 54.5845L12.9129 54.6023L12.761 54.6196L12.6106 54.6362L12.4618 54.6521L12.3879 54.6598L12.2414 54.6748L12.0965 54.689L11.9532 54.7026L11.8115 54.7155L11.6715 54.7278L11.5331 54.7393L11.3963 54.7502L11.2612 54.7603L11.1277 54.7697L10.9959 54.7785L10.8658 54.7865L10.8014 54.7903L10.6739 54.7972L10.5481 54.8034L10.4858 54.8062L10.3626 54.8113L10.2411 54.8157L10.1213 54.8193L10.0034 54.8221L9.8872 54.8242L9.77283 54.8255C9.69712 54.8261 9.62265 54.8262 9.54941 54.8258C8.93154 54.8223 8.39529 54.7819 7.93076 54.6943C7.23273 54.5624 6.66068 54.3296 6.19533 53.8642C5.71164 53.3806 5.47849 52.7834 5.35035 52.0454C5.26539 51.5561 5.22976 50.987 5.2331 50.3289C5.23357 50.2332 5.23486 50.1355 5.23703 50.036L5.23996 49.9156L5.24171 49.8547L5.24582 49.7316L5.25068 49.6066L5.2563 49.4799L5.26269 49.3514L5.26984 49.2212L5.27769 49.0891L5.2863 48.9554L5.29087 48.8879L5.3006 48.7516L5.31103 48.6135L5.32216 48.4738L5.32802 48.4033L5.34021 48.261L5.34654 48.1893L5.35984 48.0446L5.37378 47.8982L5.38099 47.8244L5.39599 47.6756L5.41164 47.5252L5.42798 47.3732L5.44498 47.2197L5.46261 47.0645L5.48095 46.9078L5.49994 46.7495L5.51951 46.5898L5.53978 46.4285C5.68767 45.2626 5.87693 44.0405 6.08845 42.8272L6.10269 42.746L6.13093 42.5854L6.17294 42.3499L6.21443 42.1208L6.26869 41.8261L6.30039 41.6548C6.24106 41.5227 6.18309 41.39 6.12648 41.2567L6.10597 41.208C6.07796 41.1417 6.05031 41.0752 6.023 41.0087L6.00132 40.9556C5.96653 40.8702 5.93235 40.7845 5.89878 40.6986C5.86538 40.6136 5.83258 40.5282 5.80041 40.4427C5.76754 40.3557 5.73531 40.2685 5.70373 40.181C5.67295 40.0963 5.6428 40.0113 5.61326 39.9261C5.58275 39.8388 5.55289 39.7512 5.52367 39.6635C5.49416 39.5753 5.46531 39.4868 5.43712 39.3982C5.40938 39.3116 5.38227 39.2247 5.3558 39.1377C5.32952 39.0519 5.30385 38.966 5.2788 38.8799C5.25306 38.7919 5.22794 38.7038 5.20345 38.6155C5.17812 38.5247 5.15345 38.4338 5.12945 38.3426C5.10709 38.2583 5.08531 38.1737 5.06412 38.089C5.04159 37.9997 5.0197 37.9102 4.99843 37.8205C4.9771 37.7311 4.95639 37.6415 4.93632 37.5517C4.91602 37.4617 4.89635 37.3716 4.87732 37.2813C4.85858 37.193 4.84046 37.1046 4.82294 37.016C4.805 36.9259 4.78767 36.8357 4.77097 36.7453C4.7535 36.6516 4.7367 36.5578 4.72058 36.4638C4.70542 36.3762 4.69084 36.2885 4.67687 36.2006C4.66402 36.1205 4.65165 36.0403 4.63978 35.9601C4.54063 35.7853 4.47009 35.5958 4.43083 35.3988C4.37052 35.0995 4.38453 34.79 4.47162 34.4974C4.45889 34.344 4.44783 34.1904 4.43845 34.0366C4.43016 33.9004 4.42305 33.7641 4.41712 33.6278C4.40927 33.4476 4.40362 33.2672 4.40019 33.0869C4.3958 32.8619 4.39478 32.6368 4.39714 32.4117C4.40083 32.0467 4.41327 31.6818 4.43447 31.3174C4.44497 31.1349 4.4577 30.9525 4.47267 30.7703C4.48425 30.6282 4.4972 30.4861 4.51152 30.3442C4.52041 30.256 4.52977 30.168 4.53958 30.0799C4.54956 29.9912 4.56001 29.9026 4.57093 29.814C4.58734 29.6821 4.60478 29.5504 4.62326 29.4188C4.6341 29.3419 4.64535 29.2649 4.65695 29.1881L4.66316 29.1478C4.67458 29.0728 4.68642 28.998 4.69861 28.9232L4.70658 28.8747C4.83228 28.1138 4.99561 27.3595 5.19595 26.6147C5.22034 26.5238 5.24534 26.4329 5.27095 26.3423C5.29509 26.2563 5.31977 26.1705 5.34501 26.0849C5.37006 25.9996 5.39565 25.9144 5.42177 25.8294C5.44902 25.7402 5.47685 25.6512 5.50527 25.5623C5.53366 25.4733 5.56265 25.3845 5.59222 25.2959C5.62182 25.2067 5.65201 25.1176 5.68281 25.0288C5.71301 24.9413 5.74382 24.854 5.77521 24.7669C5.8057 24.6819 5.83676 24.597 5.86837 24.5123C5.90029 24.4264 5.93277 24.3407 5.96582 24.2552C5.99891 24.1693 6.03256 24.0836 6.06677 23.9981C6.10129 23.9115 6.13639 23.8252 6.17207 23.739C6.20705 23.6542 6.2426 23.5696 6.27871 23.4853C6.30314 23.4279 6.32792 23.3706 6.35283 23.3134L6.3888 23.2317C6.41429 23.1738 6.44007 23.1159 6.46609 23.0583C6.50819 22.9647 6.55097 22.8715 6.59441 22.7785L6.61896 22.7262C6.65705 22.645 6.69566 22.564 6.73474 22.4832L6.73749 22.4777C6.90089 22.1401 7.07243 21.8065 7.25195 21.4772L7.28628 21.4146C7.31915 21.3546 7.35249 21.2946 7.38601 21.2347L7.42562 21.1645C7.47424 21.0783 7.52348 20.9924 7.57334 20.907C7.60444 20.8534 7.63579 20.8 7.66738 20.7467L7.70769 20.6791C7.75894 20.5932 7.81082 20.5076 7.86331 20.4224C7.91221 20.3428 7.96167 20.2635 8.01167 20.1846C8.06138 20.1057 8.11164 20.0272 8.16244 19.9491C8.21345 19.8704 8.26501 19.792 8.31712 19.7139C8.36911 19.6357 8.42165 19.5579 8.47474 19.4804C8.5274 19.4032 8.58061 19.3264 8.63435 19.25C8.68906 19.1719 8.74434 19.0942 8.80017 19.0168C8.85624 18.9389 8.91289 18.8613 8.97009 18.7842C9.02589 18.7085 9.08224 18.6333 9.13914 18.5585C9.19535 18.4842 9.25209 18.4104 9.30935 18.337C9.34574 18.29 9.38247 18.2432 9.41933 18.1965L9.48261 18.117C9.54222 18.0421 9.60238 17.9677 9.66308 17.8937C9.70202 17.846 9.74118 17.7984 9.78056 17.7511C9.80048 17.7272 9.82041 17.7033 9.84044 17.6795C9.88427 17.6272 9.92833 17.575 9.97275 17.523L10.0259 17.4612C10.0726 17.4068 10.1196 17.3527 10.1669 17.2987L10.2095 17.2504C10.2595 17.1935 10.3099 17.1369 10.3606 17.0805L10.4017 17.0351C10.4611 16.9692 10.521 16.9037 10.5813 16.8386L10.5945 16.8245C10.7253 16.6832 10.8579 16.5437 10.9923 16.4058L11.1973 16.1982C15.4294 11.9662 21.0902 9.78738 27.3893 9.78738C28.6033 9.78738 29.7868 9.87996 30.9395 10.0648C31.2406 8.82287 31.7769 7.7117 32.5265 6.79898C33.7866 5.26465 35.5706 4.39453 37.5323 4.39453ZM27.3893 13.5374C22.0528 13.5374 17.3522 15.3466 13.849 18.8498L13.8538 18.8451L13.849 18.85C13.5077 19.1912 13.1795 19.5451 12.8649 19.9111L12.905 19.8648C12.7868 20.0013 12.6706 20.1395 12.5564 20.2792L12.5853 20.2441C12.4742 20.3793 12.365 20.5161 12.2577 20.6543L12.2919 20.6104C12.2424 20.6738 12.1933 20.7375 12.1446 20.8015L12.2577 20.6543C12.2092 20.7167 12.1612 20.7794 12.1135 20.8424L12.1446 20.8015C12.1018 20.8578 12.0593 20.9142 12.0171 20.9709L12.1135 20.8424C12.0643 20.9074 12.0155 20.9726 11.9672 21.0382L12.0171 20.9708C11.9735 21.0295 11.9302 21.0883 11.8873 21.1475L11.9672 21.0382C11.9207 21.1013 11.8746 21.1646 11.8289 21.2282L11.8873 21.1475C11.8325 21.2229 11.7783 21.2987 11.7246 21.3749L11.8289 21.2282C11.783 21.292 11.7376 21.356 11.6925 21.4204L11.7246 21.3749C11.6827 21.4343 11.6412 21.4939 11.6 21.5538L11.6925 21.4204C11.6464 21.4862 11.6008 21.5523 11.5555 21.6186L11.6 21.5538C11.5569 21.6164 11.5142 21.6793 11.4719 21.7424L11.5555 21.6186C11.5106 21.6844 11.4662 21.7505 11.4221 21.8169L11.4719 21.7424C11.425 21.8123 11.3786 21.8824 11.3327 21.9529L11.4221 21.8169C11.3787 21.8822 11.3357 21.9478 11.293 22.0137L11.3327 21.9529C11.291 22.0168 11.2497 22.081 11.2087 22.1454L11.293 22.0138C11.2495 22.0811 11.2064 22.1486 11.1638 22.2163L11.2087 22.1454C11.168 22.2095 11.1276 22.2738 11.0877 22.3384L11.1638 22.2163C11.1214 22.2837 11.0794 22.3514 11.0377 22.4193L11.0877 22.3384C11.0476 22.4031 11.0079 22.468 10.9686 22.5332L11.0377 22.4193C10.9965 22.4867 10.9556 22.5543 10.9152 22.6222L10.9686 22.5332C10.9281 22.6004 10.888 22.6678 10.8483 22.7355L10.9152 22.6222C10.8746 22.6902 10.8345 22.7585 10.7948 22.8271L10.8483 22.7355C10.808 22.8041 10.7681 22.8729 10.7287 22.942L10.7948 22.8271C10.7559 22.8941 10.7174 22.9614 10.6793 23.0289L10.7287 22.942C10.6884 23.0127 10.6486 23.0836 10.6091 23.1548L10.6794 23.0289C10.6411 23.0969 10.6032 23.1651 10.5657 23.2335L10.6091 23.1548C10.5689 23.2274 10.5291 23.3003 10.4898 23.3735L10.5657 23.2335C10.5277 23.3027 10.4902 23.3721 10.4532 23.4418L10.4898 23.3735C10.4547 23.4387 10.42 23.5042 10.3856 23.5699L10.4532 23.4418C10.4153 23.5128 10.378 23.5841 10.341 23.6556L10.3856 23.5699C10.3511 23.6359 10.3169 23.7021 10.2832 23.7684L10.341 23.6556C10.3049 23.7254 10.2692 23.7955 10.234 23.8658L10.2832 23.7684C10.2479 23.8379 10.213 23.9075 10.1785 23.9774L10.234 23.8658C10.1988 23.9359 10.164 24.0063 10.1297 24.0769L10.1785 23.9774C10.1432 24.0489 10.1083 24.1206 10.0739 24.1925L10.1297 24.0769C10.0954 24.1473 10.0616 24.2179 10.0282 24.2886L10.0739 24.1925C10.0385 24.2665 10.0036 24.3405 9.96923 24.4148L10.0282 24.2886C9.99565 24.3576 9.9634 24.4269 9.93162 24.4963L9.96923 24.4148C9.93859 24.481 9.9083 24.5473 9.87841 24.6137L9.93162 24.4963C9.89766 24.5705 9.86416 24.6448 9.83113 24.7194L9.87841 24.6137C9.84518 24.6875 9.81241 24.7616 9.78009 24.8358L9.83113 24.7194C9.80009 24.7895 9.76947 24.8598 9.73925 24.9302L9.78009 24.8358C9.74794 24.9097 9.71624 24.9838 9.685 25.0581L9.73925 24.9302C9.70861 25.0016 9.6784 25.0732 9.64861 25.145L9.68494 25.0581C9.65448 25.1305 9.62446 25.2031 9.59488 25.2759L9.64861 25.145C9.61845 25.2177 9.58872 25.2905 9.55943 25.3635L9.59488 25.2759C9.56655 25.3455 9.53862 25.4153 9.51109 25.4852L9.55943 25.3636C9.52982 25.4374 9.50066 25.5113 9.47195 25.5855L9.51115 25.4853C9.48263 25.5577 9.45455 25.6304 9.42689 25.7031L9.47195 25.5855C9.44382 25.658 9.41622 25.7307 9.38904 25.8036L9.42689 25.7031C9.39912 25.7764 9.37181 25.8496 9.34486 25.9231L9.38904 25.8036C9.3615 25.8773 9.33443 25.9511 9.30777 26.0251L9.34486 25.9231C9.31824 25.9958 9.29205 26.0687 9.26628 26.1417L9.30777 26.0251C9.2814 26.0983 9.2555 26.1716 9.23007 26.2451L9.26628 26.1417C9.2401 26.2158 9.21436 26.2901 9.18906 26.3646L9.23007 26.2451C9.20464 26.3183 9.17968 26.3917 9.15513 26.4653L9.18906 26.3646C9.16377 26.4391 9.13898 26.5137 9.11458 26.5884L9.15513 26.4653C9.13052 26.539 9.10644 26.6128 9.08271 26.6866L9.11458 26.5884C9.09039 26.6625 9.06665 26.7367 9.04339 26.811L9.08271 26.6866C9.05911 26.7603 9.03595 26.834 9.01322 26.9079L9.04339 26.811C9.01959 26.887 8.99625 26.9631 8.97337 27.0394L9.01322 26.9079C8.99072 26.9812 8.96869 27.0544 8.94701 27.1278L8.97337 27.0394C8.95158 27.112 8.93025 27.1846 8.90933 27.2575L8.94701 27.1278C8.92472 27.2033 8.90288 27.279 8.8815 27.3548L8.90933 27.2575C8.88753 27.3332 8.86615 27.4092 8.84529 27.4852L8.8815 27.3548C8.86041 27.4297 8.83977 27.5046 8.81957 27.5797L8.84535 27.4852C8.82455 27.5607 8.80433 27.6364 8.78441 27.7121L8.81957 27.5797C8.79936 27.6547 8.77959 27.7299 8.76027 27.8053L8.78447 27.7121C8.76507 27.7862 8.74611 27.8604 8.72757 27.9347L8.76027 27.8052C8.74085 27.8809 8.72189 27.9567 8.70337 28.0327L8.72757 27.9347C8.70903 28.009 8.69093 28.0834 8.67326 28.1579L8.70337 28.0327C8.68545 28.1061 8.66795 28.1796 8.65087 28.2533L8.67326 28.1579C8.65509 28.2345 8.63746 28.3111 8.62023 28.3878L8.65087 28.2533C8.63286 28.331 8.61532 28.4088 8.59826 28.4868L8.62023 28.3878C8.60388 28.4607 8.588 28.5335 8.57247 28.6065L8.59826 28.4868C8.58141 28.5637 8.56502 28.6406 8.5491 28.7177L8.57247 28.6064C8.55626 28.6827 8.5405 28.7592 8.52519 28.8357L8.5491 28.7177C8.53339 28.794 8.51804 28.8704 8.50322 28.9468L8.52519 28.8357C8.5096 28.9136 8.49449 28.9915 8.47984 29.0695L8.50322 28.9468C8.48887 29.0207 8.475 29.0946 8.4615 29.1686L8.47984 29.0695C8.46533 29.1469 8.45129 29.2244 8.43771 29.302L8.4615 29.1686C8.44744 29.2458 8.43384 29.3232 8.42072 29.4006L8.43771 29.302C8.42482 29.3754 8.41246 29.4489 8.40044 29.5223L8.42072 29.4006C8.40751 29.4783 8.39478 29.556 8.38251 29.6338L8.40044 29.5223C8.38787 29.5993 8.37576 29.6763 8.36412 29.7534L8.38251 29.6338C8.37054 29.7099 8.35902 29.786 8.34794 29.8622L8.36412 29.7534C8.3524 29.8307 8.34121 29.9082 8.33042 29.9857L8.34794 29.8622C8.33702 29.9374 8.32659 30.0126 8.31654 30.0878L8.33042 29.9857C8.31976 30.0627 8.30951 30.1397 8.29978 30.2169L8.31654 30.0878C8.30628 30.1646 8.2965 30.2415 8.28712 30.3184L8.29978 30.2169C8.29032 30.2915 8.2813 30.3661 8.27271 30.4408L8.28712 30.3183C8.27758 30.3971 8.26852 30.4759 8.25994 30.5548L8.27271 30.4408C8.26378 30.5185 8.25533 30.5963 8.24734 30.6742L8.25994 30.5548C8.25173 30.6304 8.24388 30.706 8.2365 30.7817L8.24734 30.6742C8.23949 30.7506 8.2321 30.827 8.22507 30.9035L8.23656 30.7817C8.22884 30.861 8.22161 30.9404 8.21488 31.0198L8.22507 30.9035C8.21814 30.9798 8.21171 31.0562 8.20568 31.1326L8.21494 31.0198C8.20849 31.0961 8.20246 31.1724 8.19689 31.2488L8.20568 31.1326C8.19958 31.21 8.19396 31.2875 8.1888 31.3649L8.19689 31.2488C8.19162 31.3219 8.18669 31.395 8.18218 31.4682L8.1888 31.3649C8.18353 31.4433 8.17884 31.5217 8.17457 31.6001L8.18218 31.4682C8.17732 31.5473 8.17298 31.6264 8.16912 31.7056L8.17457 31.6001C8.17039 31.6769 8.16668 31.7537 8.16343 31.8306L8.16912 31.7056C8.16541 31.7811 8.16215 31.8567 8.15933 31.9322L8.16343 31.8306C8.16021 31.9052 8.15746 31.9799 8.15523 32.0545L8.15933 31.9322C8.15634 32.0129 8.15386 32.0935 8.15189 32.1741L8.15517 32.0545C8.15273 32.1335 8.15078 32.2125 8.14931 32.2915L8.15189 32.1741C8.15001 32.2502 8.14859 32.3262 8.14761 32.4023L8.14937 32.2915C8.14796 32.3677 8.14703 32.4438 8.1465 32.52L8.14767 32.4022C8.14665 32.4817 8.14612 32.5612 8.14609 32.6407L8.1465 32.52C8.14601 32.596 8.14597 32.6721 8.14638 32.7481L8.14609 32.6407C8.14609 32.7188 8.14656 32.7968 8.1475 32.8748L8.14632 32.7481C8.14679 32.8249 8.14767 32.9017 8.14902 32.9785L8.15007 33.018C8.32749 33.0203 8.50785 33.0264 8.69078 33.0364C9.74459 33.0943 10.7817 33.2805 11.7737 33.6277C13.8995 34.3717 15.621 35.7858 16.7001 37.9441C17.1632 38.8703 16.7878 39.9966 15.8616 40.4597C14.9446 40.9182 13.8316 40.5548 13.3601 39.6488L13.346 39.6212C12.7252 38.3796 11.7797 37.6029 10.5348 37.1672C9.91533 36.9504 9.25925 36.8296 8.60816 36.7846C8.62591 36.8641 8.64449 36.9434 8.66371 37.0225L8.62761 36.8708C8.6449 36.9449 8.66259 37.019 8.68082 37.093L8.66371 37.0225C8.68187 37.0978 8.70062 37.1729 8.71978 37.248L8.68082 37.093C8.69945 37.1686 8.71855 37.244 8.73812 37.3194L8.71978 37.248C8.7383 37.3205 8.75728 37.3928 8.77673 37.4651L8.73812 37.3194C8.75746 37.3935 8.7772 37.4675 8.79742 37.5414L8.77673 37.4651C8.79589 37.5362 8.8154 37.6072 8.83544 37.6781L8.79742 37.5414C8.81791 37.6162 8.83883 37.6909 8.86029 37.7654L8.83544 37.6781C8.85595 37.7508 8.87699 37.8234 8.89843 37.896L8.86029 37.7654C8.88191 37.8405 8.904 37.9154 8.92656 37.9903L8.89843 37.896C8.92269 37.978 8.94753 38.0597 8.97296 38.1414L8.92656 37.9903C8.94835 38.0624 8.97056 38.1344 8.9933 38.2062L8.97296 38.1414C8.99699 38.2182 9.02142 38.295 9.04644 38.3716L8.9933 38.2062C9.01685 38.2808 9.04087 38.3553 9.06548 38.4296L9.04644 38.3716C9.0714 38.448 9.09683 38.5243 9.12291 38.6004L9.06548 38.4296C9.08986 38.5034 9.1147 38.5771 9.14007 38.6507L9.12291 38.6004C9.1433 38.6602 9.1641 38.7199 9.18513 38.7795L9.14007 38.6507C9.16562 38.7247 9.19164 38.7986 9.21824 38.8723L9.18513 38.7795C9.21373 38.8602 9.24285 38.9408 9.27261 39.0211L9.21824 38.8723C9.24431 38.9448 9.27091 39.0172 9.29792 39.0894L9.27261 39.0211C9.30228 39.1013 9.33254 39.1813 9.36337 39.261L9.29792 39.0894C9.32517 39.162 9.35283 39.2344 9.38101 39.3066L9.36337 39.261C9.53818 39.7132 9.73171 40.1579 9.94345 40.594L9.95769 40.6239C9.9646 40.6389 9.97134 40.6538 9.97785 40.6689L9.98224 40.6792L9.98798 40.6928C10.1332 41.0402 10.1699 41.4235 10.0933 41.7922L10.047 42.0283L9.98089 42.3756L9.94257 42.5813L9.90349 42.794L9.87712 42.9396L9.83699 43.1634L9.79638 43.3933L9.75402 43.6371C9.56335 44.7424 9.39308 45.8507 9.25996 46.9005L9.23394 47.1087L9.21724 47.2458L9.20107 47.3814L9.17792 47.5823L9.15595 47.7797L9.14201 47.9096L9.12208 48.1015L9.10955 48.2276L9.09759 48.352L9.08617 48.4749L9.07533 48.5962L9.06507 48.7158L9.0554 48.8339L9.04632 48.9502L9.03783 49.0649L9.02992 49.1779L9.02259 49.2891L9.01591 49.3986L9.00982 49.5063L9.00431 49.6123L8.99945 49.7164L8.99722 49.7678L8.9933 49.8691L8.99001 49.9687L8.98732 50.0663L8.98527 50.1621L8.9838 50.2559C8.98345 50.2869 8.98322 50.3174 8.98304 50.3478L8.98287 50.3965C8.98287 50.461 8.98328 50.5236 8.98421 50.584L8.98597 50.6732C8.98703 50.7171 8.98831 50.7596 8.98996 50.8011L8.99347 50.8823C8.99611 50.9354 8.99921 50.9863 9.00273 51.0349L9.00419 51.0552L9.06162 51.0593C9.11236 51.0626 9.16544 51.0654 9.22087 51.0678L9.30572 51.071C9.37779 51.0733 9.45349 51.0749 9.53247 51.0756L9.61421 51.0761L9.70281 51.0759L9.74787 51.0756L9.83939 51.0745L9.88585 51.0737L9.98031 51.0717L10.0766 51.069L10.1748 51.0657L10.2749 51.0618L10.3257 51.0596L10.4285 51.0547L10.5331 51.0493L10.6396 51.0432L10.6935 51.04L10.8026 51.033L10.9135 51.0255L11.026 51.0173L11.1403 51.0086L11.2563 50.9993L11.3739 50.9894L11.5534 50.9735L11.6751 50.9621L11.7984 50.9502L11.9863 50.9313L12.1776 50.9111L12.3723 50.8897L12.5704 50.867L12.7717 50.8431C13.3347 50.7751 13.924 50.6943 14.531 50.6031L14.7923 50.5634C15.3336 50.48 15.8741 50.3913 16.4137 50.2974L16.6774 50.2511L16.9376 50.2046C17.0669 50.1813 17.1947 50.158 17.3209 50.1347L17.5291 50.096L17.7715 50.0501L17.9933 50.0074L18.2278 49.9612C18.2383 49.959 18.2487 49.957 18.2592 49.955L18.2626 49.9544C18.2733 49.9524 18.2841 49.9505 18.2949 49.9487L18.2986 49.9481C18.3084 49.9465 18.3181 49.945 18.3279 49.9435L18.3311 49.9431C18.6427 49.8971 18.9608 49.9307 19.2558 50.0409L19.2582 50.0419C19.2741 50.0477 19.2898 50.0538 19.3054 50.0602L19.3269 50.0691L19.3314 50.0709C19.3588 50.0825 19.3859 50.0947 19.4128 50.1076C19.9039 50.3432 20.405 50.5575 20.9146 50.7498C20.9916 49.947 20.9849 49.1381 20.8619 48.4005C20.7154 47.5217 20.4175 46.8421 19.9729 46.3847L19.9498 46.3613C19.2176 45.6291 19.2176 44.4419 19.9498 43.7096C20.682 42.9774 21.8692 42.9774 22.6015 43.7096C23.6724 44.7807 24.2931 46.177 24.5608 47.784C24.7773 49.0825 24.753 50.42 24.578 51.7102C25.4727 51.8461 26.3763 51.9142 27.2812 51.9139C32.264 51.9139 37.5765 49.7513 41.2268 46.1936L41.2166 46.2035L41.3134 46.106C44.6838 42.68 46.3865 38.1992 46.4206 32.9851L46.4211 32.8252C46.4211 31.3188 46.2654 29.8905 45.9461 28.5219C45.7475 28.205 45.6487 27.8358 45.6626 27.4621C44.8006 24.6131 43.1889 22.012 40.7518 19.4806C38.3529 16.9887 35.7343 15.2914 32.86 14.3681C32.7511 14.3875 32.6408 14.3972 32.5302 14.3971C32.0861 14.3978 31.6562 14.2401 31.3179 13.9524C30.0567 13.6751 28.7481 13.5374 27.3893 13.5374ZM47.4059 22.0396L47.3861 22.0533C48.0355 23.1923 48.5694 24.3622 48.9898 25.5691C49.7034 25.4821 50.3443 25.3279 50.849 25.1071C51.6201 24.7697 51.914 24.395 51.914 23.7767C51.914 22.8447 51.6476 22.26 51.0972 21.7921C50.8558 21.5869 50.5543 21.399 50.1861 21.2249L50.1163 21.1925C50.0315 21.1538 49.9459 21.1167 49.8595 21.0814L49.7826 21.0504L49.704 21.0197C49.5804 20.9722 49.4557 20.9273 49.3302 20.885L49.2425 20.8559L49.1532 20.827C49.1081 20.8127 49.0624 20.7984 49.0161 20.7843L49.0102 20.7826C48.4677 21.2595 47.9305 21.6775 47.4059 22.0396ZM42.475 12.9454C42.3617 13.0207 42.233 13.1337 42.0945 13.2791L42.0547 13.3215L42.0144 13.3657L41.9941 13.3884L41.953 13.4351L41.9324 13.4591L41.8907 13.5083L41.8486 13.5591C41.8275 13.585 41.8063 13.6114 41.7849 13.6384L41.742 13.6932C41.7348 13.7024 41.7276 13.7118 41.7204 13.7211L41.6771 13.7782C41.6698 13.7878 41.6626 13.7975 41.6553 13.8073L41.6116 13.8666L41.5677 13.9273L41.5458 13.9582L41.5016 14.0211C41.4869 14.0422 41.4721 14.0637 41.4573 14.0853C41.3239 14.2815 41.1968 14.4819 41.0763 14.6863C41.8925 15.3504 42.6849 16.0816 43.4533 16.8797C44.1099 17.5618 44.7171 18.2525 45.2755 18.9537C45.9193 18.5091 46.603 17.9441 47.3004 17.2468C47.5995 16.9495 47.8368 16.5961 47.9988 16.2067C48.1608 15.8174 48.2442 15.3999 48.2442 14.9782C48.2442 14.5565 48.1608 14.139 47.9988 13.7497C47.8368 13.3604 47.5995 13.0069 47.3004 12.7096C46.3444 11.7536 44.2187 11.7868 42.475 12.9454ZM37.5323 8.14453C36.138 8.14453 34.986 9.19781 34.5709 10.9877C35.745 11.403 36.8823 11.9256 37.9825 12.5551C38.1036 12.3573 38.2296 12.1625 38.3602 11.9709C38.9839 11.0575 39.6443 10.3253 40.3944 9.82547L40.3753 9.78785L40.3438 9.72738L40.3124 9.66844L40.281 9.61096C40.2706 9.59203 40.2602 9.57334 40.2497 9.55494L40.2185 9.50039C40.2134 9.49147 40.2082 9.48256 40.203 9.47367L40.1718 9.42123L40.1407 9.37025L40.1097 9.32068L40.0787 9.27246L40.0632 9.24891L40.0323 9.20273L40.0014 9.15797L39.9706 9.11449C39.9407 9.07295 39.9099 9.03208 39.8782 8.99191L39.8474 8.95359L39.8167 8.91656C39.8013 8.89834 39.7859 8.88059 39.7706 8.86324L39.7399 8.82926C39.658 8.74031 39.5761 8.66402 39.4938 8.59934L39.463 8.57561C39.4528 8.56793 39.4425 8.56037 39.4321 8.55293C39.1844 8.37527 38.8701 8.25727 38.42 8.19562L38.3592 8.18771C38.3488 8.18645 38.3385 8.18522 38.3281 8.18402L38.2649 8.17717L38.1998 8.17096C38.1662 8.16796 38.1327 8.16527 38.099 8.16287L38.0297 8.1583C37.9945 8.15613 37.9586 8.15426 37.9221 8.15268L37.8481 8.14975C37.8106 8.1484 37.7723 8.1474 37.7334 8.14658L37.6544 8.14523C37.6145 8.14477 37.5738 8.14453 37.5323 8.14453Z" fill="#F38820"/>
</svg>
