<svg width="60" height="60" viewBox="0 0 60 60" fill="none" xmlns="http://www.w3.org/2000/svg">
<g clip-path="url(#clip0_801_24769)">
<path d="M54.7266 0C57.6342 0 60 2.36578 60 5.27344V12.3047C60 15.2123 57.6342 17.5781 54.7266 17.5781H49.3359V45.9375H54.6094C55.0756 45.9375 55.5227 46.1227 55.8523 46.4524C56.182 46.782 56.3672 47.2291 56.3672 47.6953V54.7266C56.3672 57.6342 54.0014 60 51.0938 60H15.9375C13.0298 60 10.6641 57.6342 10.6641 54.7266V17.5781H5.27344C2.36578 17.5781 0 15.2123 0 12.3047V5.27344C0 2.36578 2.36578 0 5.27344 0H54.7266ZM30 24.7266C32.9077 24.7266 35.2734 27.0923 35.2734 30C35.2738 31.0984 34.9368 32.1703 34.308 33.0709C33.6793 33.9715 32.7891 34.6572 31.7578 35.0353V37.1484C31.7578 37.6146 31.5726 38.0617 31.243 38.3914C30.9133 38.7211 30.4662 38.9062 30 38.9062C29.5338 38.9062 29.0867 38.7211 28.757 38.3914C28.4274 38.0617 28.2422 37.6146 28.2422 37.1484V35.0869C27.3277 34.7878 26.445 34.2487 25.6533 33.4819C25.4855 33.3217 25.3512 33.1299 25.2579 32.9176C25.1646 32.7053 25.1142 32.4766 25.1097 32.2447C25.1052 32.0128 25.1466 31.7823 25.2316 31.5665C25.3166 31.3507 25.4434 31.1539 25.6048 30.9873C25.7662 30.8207 25.959 30.6878 26.172 30.596C26.385 30.5043 26.6141 30.4556 26.846 30.4529C27.0779 30.4501 27.3081 30.4932 27.5232 30.5797C27.7384 30.6663 27.9343 30.7946 28.0997 30.9572C28.9411 31.7719 29.8364 32.0381 30.6216 31.7053C31.3012 31.4175 31.7578 30.7322 31.7578 30C31.7573 29.534 31.572 29.0871 31.2424 28.7576C30.9129 28.428 30.466 28.2427 30 28.2422C28.5834 28.2422 27.2489 27.6628 26.2434 26.6109C25.2652 25.5877 24.7266 24.2527 24.7266 22.8516C24.7266 20.6428 26.1206 18.6516 28.1953 17.8955L28.2422 17.8795V15.8203C28.2422 15.3541 28.4274 14.907 28.757 14.5774C29.0867 14.2477 29.5338 14.0625 30 14.0625C30.4662 14.0625 30.9133 14.2477 31.243 14.5774C31.5726 14.907 31.7578 15.3541 31.7578 15.8203V17.8622C32.9175 18.2527 34.0238 19.0303 34.9739 20.1619C35.2677 20.5196 35.4086 20.9787 35.366 21.4396C35.3233 21.9006 35.1006 22.3261 34.7461 22.6238C34.3916 22.9214 33.934 23.0673 33.4726 23.0296C33.0113 22.992 32.5834 22.7739 32.2819 22.4227C31.3523 21.3164 30.3014 20.8702 29.3986 21.1992C29.0601 21.3234 28.7677 21.5484 28.5609 21.8438C28.3542 22.1393 28.2429 22.491 28.2422 22.8516C28.2422 23.85 29.0634 24.7266 30 24.7266ZM15.9375 56.4844H46.1227C45.9223 55.92 45.8201 55.3255 45.8203 54.7266V10.5469H14.1797V54.7266C14.1802 55.1926 14.3655 55.6394 14.6951 55.969C15.0246 56.2985 15.4715 56.4839 15.9375 56.4844ZM52.8516 49.4531H49.3359V54.7266C49.3364 55.1926 49.5218 55.6394 49.8513 55.969C50.1809 56.2985 50.6277 56.4839 51.0938 56.4844C51.5598 56.4839 52.0066 56.2985 52.3362 55.969C52.6657 55.6394 52.8511 55.1926 52.8516 54.7266V49.4531ZM56.4844 12.3047V5.27344C56.4839 4.80739 56.2985 4.36057 55.969 4.03102C55.6394 3.70148 55.1926 3.51612 54.7266 3.51562H5.27344C4.80739 3.51612 4.36057 3.70148 4.03102 4.03102C3.70148 4.36057 3.51612 4.80739 3.51562 5.27344V12.3047C3.51612 12.7707 3.70148 13.2176 4.03102 13.5471C4.36057 13.8766 4.80739 14.062 5.27344 14.0625H10.6641V10.5469H8.78906C8.32286 10.5469 7.87575 10.3617 7.5461 10.032C7.21645 9.70237 7.03125 9.25526 7.03125 8.78906C7.03125 8.32286 7.21645 7.87575 7.5461 7.5461C7.87575 7.21645 8.32286 7.03125 8.78906 7.03125H51.2109C51.6771 7.03125 52.1242 7.21645 52.4539 7.5461C52.7836 7.87575 52.9688 8.32286 52.9688 8.78906C52.9688 9.25526 52.7836 9.70237 52.4539 10.032C52.1242 10.3617 51.6771 10.5469 51.2109 10.5469H49.3359V14.0625H54.7266C55.1926 14.062 55.6394 13.8766 55.969 13.5471C56.2985 13.2176 56.4839 12.7707 56.4844 12.3047ZM40.5469 42.4219C41.0131 42.4219 41.4602 42.6071 41.7898 42.9367C42.1195 43.2664 42.3047 43.7135 42.3047 44.1797C42.3047 44.6459 42.1195 45.093 41.7898 45.4226C41.4602 45.7523 41.0131 45.9375 40.5469 45.9375H19.4531C18.9869 45.9375 18.5398 45.7523 18.2102 45.4226C17.8805 45.093 17.6953 44.6459 17.6953 44.1797C17.6953 43.7135 17.8805 43.2664 18.2102 42.9367C18.5398 42.6071 18.9869 42.4219 19.4531 42.4219H40.5469ZM40.5469 49.4531C41.0131 49.4531 41.4602 49.6383 41.7898 49.968C42.1195 50.2976 42.3047 50.7447 42.3047 51.2109C42.3047 51.6771 42.1195 52.1242 41.7898 52.4539C41.4602 52.7836 41.0131 52.9688 40.5469 52.9688H19.4531C18.9869 52.9688 18.5398 52.7836 18.2102 52.4539C17.8805 52.1242 17.6953 51.6771 17.6953 51.2109C17.6953 50.7447 17.8805 50.2976 18.2102 49.968C18.5398 49.6383 18.9869 49.4531 19.4531 49.4531H40.5469Z" fill="#F38820"/>
</g>
<defs>
<clipPath id="clip0_801_24769">
<rect width="60" height="60" fill="white"/>
</clipPath>
</defs>
</svg>
