<svg width="60" height="60" viewBox="0 0 60 60" fill="none" xmlns="http://www.w3.org/2000/svg">
<g clip-path="url(#clip0_801_24777)">
<path d="M54.7266 24.7266H52.5492C52.7442 24.1763 52.8516 23.5847 52.8516 22.9688C52.8516 20.677 51.382 18.7233 49.3359 17.9977V12.3047C49.3359 7.96969 46.1808 4.36031 42.0469 3.64641C41.3592 1.53234 39.3713 0 37.0312 0H22.9688C20.6287 0 18.6408 1.53281 17.9531 3.64641C13.8192 4.36031 10.6641 7.96969 10.6641 12.3047V17.9977C8.61797 18.7233 7.14844 20.677 7.14844 22.9688C7.14844 23.5847 7.25578 24.1763 7.45078 24.7266H5.27344C2.36578 24.7266 0 27.0923 0 30C0 32.3681 1.56938 34.3762 3.72234 35.0405L6.30375 52.4541C6.60327 54.5483 7.64803 56.4644 9.24629 57.8505C10.8446 59.2366 12.8891 59.9998 15.0047 60H44.9953C47.1094 59.9998 49.1526 59.2378 50.7505 57.8535C52.3484 56.4692 53.3939 54.5555 53.6953 52.463L56.2777 35.0405C58.4306 34.3762 60 32.3686 60 30C60 27.0923 57.6342 24.7266 54.7266 24.7266ZM47.5781 21.2109C48.0442 21.2114 48.491 21.3968 48.8205 21.7263C49.1501 22.0559 49.3354 22.5027 49.3359 22.9688C49.3354 23.4348 49.1501 23.8816 48.8205 24.2112C48.491 24.5407 48.0442 24.7261 47.5781 24.7266C47.1121 24.7261 46.6653 24.5407 46.3357 24.2112C46.0062 23.8816 45.8208 23.4348 45.8203 22.9688C45.8208 22.5027 46.0062 22.0559 46.3357 21.7263C46.6653 21.3968 47.1121 21.2114 47.5781 21.2109ZM22.9688 3.51562H37.0312C37.4973 3.51612 37.9441 3.70148 38.2737 4.03102C38.6032 4.36057 38.7886 4.80739 38.7891 5.27344C38.7886 5.73949 38.6032 6.1863 38.2737 6.51585C37.9441 6.8454 37.4973 7.03075 37.0312 7.03125H22.9688C22.5027 7.03075 22.0559 6.8454 21.7263 6.51585C21.3968 6.1863 21.2114 5.73949 21.2109 5.27344C21.2114 4.80739 21.3968 4.36057 21.7263 4.03102C22.0559 3.70148 22.5027 3.51612 22.9688 3.51562ZM14.1797 12.3047C14.1797 9.87656 15.8302 7.82719 18.068 7.21688C18.8438 9.16547 20.7473 10.5469 22.9688 10.5469H37.0312C39.2531 10.5469 41.1562 9.16547 41.932 7.21688C44.1698 7.82719 45.8203 9.87609 45.8203 12.3047V17.9977C43.7742 18.7233 42.3047 20.677 42.3047 22.9688C42.3047 23.5847 42.412 24.1763 42.607 24.7266H17.393C17.588 24.1763 17.6953 23.5847 17.6953 22.9688C17.6953 20.677 16.2258 18.7233 14.1797 17.9977V12.3047ZM12.4219 21.2109C12.8879 21.2114 13.3347 21.3968 13.6643 21.7263C13.9938 22.0559 14.1792 22.5027 14.1797 22.9688C14.1792 23.4348 13.9938 23.8816 13.6643 24.2112C13.3347 24.5407 12.8879 24.7261 12.4219 24.7266C11.9558 24.7261 11.509 24.5407 11.1795 24.2112C10.8499 23.8816 10.6646 23.4348 10.6641 22.9688C10.6646 22.5027 10.8499 22.0559 11.1795 21.7263C11.509 21.3968 11.9558 21.2114 12.4219 21.2109ZM50.2158 51.9567C49.8473 54.5377 47.603 56.4844 44.9958 56.4844H15.0047C12.397 56.4844 10.1531 54.5377 9.78281 51.9478L7.31063 35.2734H52.6884L50.2153 51.9567H50.2158ZM54.7266 31.7578H5.27344C4.80739 31.7573 4.36057 31.572 4.03102 31.2424C3.70148 30.9129 3.51612 30.466 3.51562 30C3.51612 29.534 3.70148 29.0871 4.03102 28.7576C4.36057 28.428 4.80739 28.2427 5.27344 28.2422H54.7266C55.1926 28.2427 55.6394 28.428 55.969 28.7576C56.2985 29.0871 56.4839 29.534 56.4844 30C56.4839 30.466 56.2985 30.9129 55.969 31.2424C55.6394 31.572 55.1926 31.7573 54.7266 31.7578ZM15.9375 38.7891C16.4037 38.7891 16.8508 38.9743 17.1805 39.3039C17.5101 39.6336 17.6953 40.0807 17.6953 40.5469V51.2109C17.6953 51.6771 17.5101 52.1242 17.1805 52.4539C16.8508 52.7836 16.4037 52.9688 15.9375 52.9688C15.4713 52.9688 15.0242 52.7836 14.6945 52.4539C14.3649 52.1242 14.1797 51.6771 14.1797 51.2109V40.5469C14.1797 40.0807 14.3649 39.6336 14.6945 39.3039C15.0242 38.9743 15.4713 38.7891 15.9375 38.7891ZM22.9688 38.7891C23.435 38.7891 23.8821 38.9743 24.2117 39.3039C24.5414 39.6336 24.7266 40.0807 24.7266 40.5469V51.2109C24.7266 51.6771 24.5414 52.1242 24.2117 52.4539C23.8821 52.7836 23.435 52.9688 22.9688 52.9688C22.5025 52.9688 22.0554 52.7836 21.7258 52.4539C21.3961 52.1242 21.2109 51.6771 21.2109 51.2109V40.5469C21.2109 40.0807 21.3961 39.6336 21.7258 39.3039C22.0554 38.9743 22.5025 38.7891 22.9688 38.7891ZM30 38.7891C30.4662 38.7891 30.9133 38.9743 31.243 39.3039C31.5726 39.6336 31.7578 40.0807 31.7578 40.5469V51.2109C31.7578 51.6771 31.5726 52.1242 31.243 52.4539C30.9133 52.7836 30.4662 52.9688 30 52.9688C29.5338 52.9688 29.0867 52.7836 28.757 52.4539C28.4274 52.1242 28.2422 51.6771 28.2422 51.2109V40.5469C28.2422 40.0807 28.4274 39.6336 28.757 39.3039C29.0867 38.9743 29.5338 38.7891 30 38.7891ZM37.0312 38.7891C37.4975 38.7891 37.9446 38.9743 38.2742 39.3039C38.6039 39.6336 38.7891 40.0807 38.7891 40.5469V51.2109C38.7891 51.6771 38.6039 52.1242 38.2742 52.4539C37.9446 52.7836 37.4975 52.9688 37.0312 52.9688C36.565 52.9688 36.1179 52.7836 35.7883 52.4539C35.4586 52.1242 35.2734 51.6771 35.2734 51.2109V40.5469C35.2734 40.0807 35.4586 39.6336 35.7883 39.3039C36.1179 38.9743 36.565 38.7891 37.0312 38.7891ZM44.0625 38.7891C44.5287 38.7891 44.9758 38.9743 45.3055 39.3039C45.6351 39.6336 45.8203 40.0807 45.8203 40.5469V51.2109C45.8203 51.6771 45.6351 52.1242 45.3055 52.4539C44.9758 52.7836 44.5287 52.9688 44.0625 52.9688C43.5963 52.9688 43.1492 52.7836 42.8195 52.4539C42.4899 52.1242 42.3047 51.6771 42.3047 51.2109V40.5469C42.3047 40.0807 42.4899 39.6336 42.8195 39.3039C43.1492 38.9743 43.5963 38.7891 44.0625 38.7891Z" fill="#F38820"/>
</g>
<defs>
<clipPath id="clip0_801_24777">
<rect width="60" height="60" fill="white"/>
</clipPath>
</defs>
</svg>
