<svg width="60" height="60" viewBox="0 0 60 60" fill="none" xmlns="http://www.w3.org/2000/svg">
<g clip-path="url(#clip0_801_24765)">
<path d="M54.7252 14.2978C57.6328 14.2978 59.9986 16.6636 59.9986 19.5713V54.7266C59.9986 57.6347 57.6328 60 54.7252 60H5.27344C2.36578 60 0 57.6347 0 54.7266V19.5713C0 16.6636 2.36578 14.2978 5.27344 14.2978H6.6525L19.3547 1.54828C19.844 1.0577 20.4253 0.668427 21.0653 0.402754C21.7053 0.13708 22.3914 0.000217955 23.0843 2.60112e-07C23.7772 -0.000217435 24.4634 0.136213 25.1035 0.401485C25.7436 0.666756 26.3252 1.05566 26.8148 1.54594L30.1523 4.88391L33.4055 1.55953L33.4195 1.54594C35.475 -0.509998 38.8205 -0.509998 40.8769 1.54594L40.89 1.56C41.978 2.67094 52.7522 13.6819 53.3555 14.2978H54.7256H54.7252ZM43.0922 8.83594L37.7887 14.2978H48.4364L43.0922 8.83594ZM35.91 4.02656L25.8586 14.2978H32.8889L40.6322 6.3225L38.385 4.02656C38.0556 3.70069 37.6109 3.51791 37.1475 3.51791C36.6841 3.51791 36.2394 3.70069 35.91 4.02656ZM21.8428 4.03172L11.6147 14.2978H20.94L27.6933 7.39688L24.3286 4.03219C23.9987 3.70289 23.5516 3.51795 23.0855 3.51795C22.6193 3.51795 22.1723 3.70289 21.8423 4.03219L21.8428 4.03172ZM3.51562 19.5713V21.3291H44.1787C44.645 21.3291 45.0921 21.5143 45.4217 21.8439C45.7514 22.1736 45.9366 22.6207 45.9366 23.0869V28.537C46.5151 28.4193 47.104 28.3601 47.6944 28.3603H49.4522V19.5713C49.4517 19.1052 49.2663 18.6584 48.9368 18.3288C48.6072 17.9993 48.1604 17.8139 47.6944 17.8134H5.27344C4.80739 17.8139 4.36057 17.9993 4.03102 18.3288C3.70148 18.6584 3.51612 19.1052 3.51562 19.5713ZM3.51562 24.8447V49.4531H42.4209V44.175C40.2877 42.57 38.9053 40.0177 38.9053 37.1484C38.9053 34.2797 40.2877 31.7273 42.4209 30.1219V24.8438H3.51562V24.8447ZM49.4517 54.7266V45.9375H47.6939C47.0925 45.9375 46.5047 45.8766 45.9361 45.7608V51.2109C45.9361 51.6771 45.7509 52.1242 45.4212 52.4539C45.0916 52.7836 44.6445 52.9688 44.1783 52.9688H3.51562V54.7266C3.51612 55.1926 3.70148 55.6394 4.03102 55.969C4.36057 56.2985 4.80739 56.4839 5.27344 56.4844H47.6939C48.16 56.4839 48.6068 56.2985 48.9363 55.969C49.2659 55.6394 49.4512 55.1926 49.4517 54.7266ZM56.483 54.7266V45.6356C55.9186 45.836 55.3241 45.9382 54.7252 45.938H52.9673V54.727C52.9673 55.343 52.86 55.9345 52.665 56.4848H54.7252C55.1912 56.4844 55.638 56.299 55.9676 55.9694C56.2971 55.6399 56.4825 55.1931 56.483 54.727V54.7266ZM47.6953 38.9063C47.2291 38.9063 46.782 38.7211 46.4524 38.3914C46.1227 38.0617 45.9375 37.6146 45.9375 37.1484C45.9375 36.6822 46.1227 36.2351 46.4524 35.9055C46.782 35.5758 47.2291 35.3906 47.6953 35.3906C48.1615 35.3906 48.6086 35.5758 48.9383 35.9055C49.2679 36.2351 49.4531 36.6822 49.4531 37.1484C49.4531 37.6146 49.2679 38.0617 48.9383 38.3914C48.6086 38.7211 48.1615 38.9063 47.6953 38.9063ZM56.4834 40.6645V33.6333C56.4829 33.1672 56.2976 32.7204 55.968 32.3909C55.6385 32.0613 55.1917 31.876 54.7256 31.8755H47.6944C44.7867 31.8755 42.4209 34.2413 42.4209 37.1489C42.4209 40.0566 44.7867 42.4223 47.6944 42.4223H54.7256C55.1917 42.4219 55.6385 42.2365 55.968 41.9069C56.2976 41.5774 56.4829 41.1306 56.4834 40.6645ZM56.4834 28.6627V19.5713C56.4829 19.1052 56.2976 18.6584 55.968 18.3288C55.6385 17.9993 55.1917 17.8139 54.7256 17.8134H52.6655C52.8605 18.3638 52.9678 18.9553 52.9678 19.5713V28.3603H54.7256C55.342 28.3603 55.9331 28.4677 56.4834 28.6627Z" fill="#F38820"/>
</g>
<defs>
<clipPath id="clip0_801_24765">
<rect width="60" height="60" fill="white"/>
</clipPath>
</defs>
</svg>
