<svg width="60" height="60" viewBox="0 0 60 60" fill="none" xmlns="http://www.w3.org/2000/svg">
<path d="M20 38.75V36.25H6.25V38.75H20ZM20 41.25H6.25V53.75H20V41.25ZM36.25 38.75V36.25H22.5V38.75H36.25ZM36.25 41.25H22.5V53.75H36.25V41.25ZM6.91875 33.75C6.33849 32.7403 6.12867 31.5599 6.32545 30.4121C6.52223 29.2643 7.11328 28.2211 7.99671 27.4624C8.88014 26.7037 10.0006 26.2769 11.1649 26.2557C12.3293 26.2345 13.4645 26.6202 14.375 27.3462C15.2849 26.6167 16.4211 26.2282 17.5872 26.2479C18.7532 26.2676 19.8757 26.6942 20.7604 27.4541C21.6452 28.2139 22.2364 29.2591 22.432 30.4088C22.6275 31.5585 22.415 32.7404 21.8312 33.75H55C55.3315 33.75 55.6495 33.8817 55.8839 34.1161C56.1183 34.3505 56.25 34.6685 56.25 35V55C56.25 55.3315 56.1183 55.6495 55.8839 55.8839C55.6495 56.1183 55.3315 56.25 55 56.25H5C4.66848 56.25 4.35054 56.1183 4.11612 55.8839C3.8817 55.6495 3.75 55.3315 3.75 55V35C3.75 34.6685 3.8817 34.3505 4.11612 34.1161C4.35054 33.8817 4.66848 33.75 5 33.75H6.91875ZM38.75 36.25V53.75H53.75V36.25H38.75ZM9.4825 29.4825C9.02612 29.9394 8.76425 30.5552 8.75175 31.2009C8.73925 31.8465 8.97709 32.472 9.41545 32.9462C9.8538 33.4205 10.4587 33.7067 11.1033 33.7449C11.748 33.7831 12.3824 33.5704 12.8738 33.1512C12.375 31.9328 12.375 30.5672 12.8738 29.3488C12.3953 28.9403 11.7805 28.7272 11.152 28.752C10.5234 28.7768 9.92726 29.0376 9.4825 29.4825ZM15.7325 33.0175C15.9631 33.2563 16.239 33.4467 16.544 33.5778C16.849 33.7088 17.177 33.7777 17.509 33.7806C17.8409 33.7835 18.1701 33.7203 18.4774 33.5946C18.7846 33.4689 19.0638 33.2832 19.2985 33.0485C19.5332 32.8138 19.7189 32.5346 19.8446 32.2274C19.9703 31.9201 20.0335 31.5909 20.0306 31.259C20.0277 30.927 19.9588 30.599 19.8278 30.294C19.6967 29.989 19.5063 29.7131 19.2675 29.4825C18.796 29.0271 18.1645 28.7751 17.509 28.7808C16.8535 28.7865 16.2265 29.0494 15.763 29.513C15.2994 29.9765 15.0365 30.6035 15.0308 31.259C15.0251 31.9145 15.2771 32.546 15.7325 33.0175ZM42.5 42.5H50C50.1642 42.5 50.3267 42.5323 50.4784 42.5951C50.63 42.658 50.7678 42.75 50.8839 42.8661C51 42.9822 51.092 43.12 51.1549 43.2716C51.2177 43.4233 51.25 43.5858 51.25 43.75V50C51.25 50.1642 51.2177 50.3267 51.1549 50.4784C51.092 50.63 51 50.7678 50.8839 50.8839C50.7678 51 50.63 51.092 50.4784 51.1549C50.3267 51.2177 50.1642 51.25 50 51.25H42.5C42.3358 51.25 42.1733 51.2177 42.0216 51.1549C41.87 51.092 41.7322 51 41.6161 50.8839C41.5 50.7678 41.408 50.63 41.3451 50.4784C41.2823 50.3267 41.25 50.1642 41.25 50V43.75C41.25 43.5858 41.2823 43.4233 41.3451 43.2716C41.408 43.12 41.5 42.9822 41.6161 42.8661C41.7322 42.75 41.87 42.658 42.0216 42.5951C42.1733 42.5323 42.3358 42.5 42.5 42.5ZM43.75 45V48.75H48.75V45H43.75ZM42.5 40C42.1685 40 41.8505 39.8683 41.6161 39.6339C41.3817 39.3995 41.25 39.0815 41.25 38.75C41.25 38.4185 41.3817 38.1005 41.6161 37.8661C41.8505 37.6317 42.1685 37.5 42.5 37.5H50C50.3315 37.5 50.6495 37.6317 50.8839 37.8661C51.1183 38.1005 51.25 38.4185 51.25 38.75C51.25 39.0815 51.1183 39.3995 50.8839 39.6339C50.6495 39.8683 50.3315 40 50 40H42.5ZM41.25 32.5C40.9185 32.5 40.6005 32.3683 40.3661 32.1339C40.1317 31.8995 40 31.5815 40 31.25C40 30.9185 40.1317 30.6005 40.3661 30.3661C40.6005 30.1317 40.9185 30 41.25 30H43.75C44.0815 30 44.3995 30.1317 44.6339 30.3661C44.8683 30.6005 45 30.9185 45 31.25C45 31.5815 44.8683 31.8995 44.6339 32.1339C44.3995 32.3683 44.0815 32.5 43.75 32.5H41.25ZM48.75 32.5C48.4185 32.5 48.1005 32.3683 47.8661 32.1339C47.6317 31.8995 47.5 31.5815 47.5 31.25C47.5 30.9185 47.6317 30.6005 47.8661 30.3661C48.1005 30.1317 48.4185 30 48.75 30H51.25C51.5815 30 51.8995 30.1317 52.1339 30.3661C52.3683 30.6005 52.5 30.9185 52.5 31.25C52.5 31.5815 52.3683 31.8995 52.1339 32.1339C51.8995 32.3683 51.5815 32.5 51.25 32.5H48.75ZM16.25 46.25C15.9185 46.25 15.6005 46.1183 15.3661 45.8839C15.1317 45.6495 15 45.3315 15 45C15 44.6685 15.1317 44.3505 15.3661 44.1161C15.6005 43.8817 15.9185 43.75 16.25 43.75C16.5815 43.75 16.8995 43.8817 17.1339 44.1161C17.3683 44.3505 17.5 44.6685 17.5 45C17.5 45.3315 17.3683 45.6495 17.1339 45.8839C16.8995 46.1183 16.5815 46.25 16.25 46.25ZM26.25 46.25C25.9185 46.25 25.6005 46.1183 25.3661 45.8839C25.1317 45.6495 25 45.3315 25 45C25 44.6685 25.1317 44.3505 25.3661 44.1161C25.6005 43.8817 25.9185 43.75 26.25 43.75C26.5815 43.75 26.8995 43.8817 27.1339 44.1161C27.3683 44.3505 27.5 44.6685 27.5 45C27.5 45.3315 27.3683 45.6495 27.1339 45.8839C26.8995 46.1183 26.5815 46.25 26.25 46.25ZM5 3.75H32.5C32.6642 3.75 32.8267 3.78233 32.9784 3.84515C33.13 3.90797 33.2678 4.00004 33.3839 4.11612C33.5 4.23219 33.592 4.36999 33.6549 4.52165C33.7177 4.6733 33.75 4.83585 33.75 5V20C33.75 20.1642 33.7177 20.3267 33.6549 20.4784C33.592 20.63 33.5 20.7678 33.3839 20.8839C33.2678 21 33.13 21.092 32.9784 21.1548C32.8267 21.2177 32.6642 21.25 32.5 21.25H5C4.83585 21.25 4.6733 21.2177 4.52165 21.1548C4.36999 21.092 4.23219 21 4.11612 20.8839C4.00004 20.7678 3.90797 20.63 3.84515 20.4784C3.78233 20.3267 3.75 20.1642 3.75 20V5C3.75 4.66848 3.8817 4.35054 4.11612 4.11612C4.35054 3.8817 4.66848 3.75 5 3.75ZM6.25 6.25V18.75H17.5V6.25H6.25ZM20 6.25V18.75H31.25V6.25H20ZM13.75 16.25C13.4185 16.25 13.1005 16.1183 12.8661 15.8839C12.6317 15.6495 12.5 15.3315 12.5 15C12.5 14.6685 12.6317 14.3505 12.8661 14.1161C13.1005 13.8817 13.4185 13.75 13.75 13.75C14.0815 13.75 14.3995 13.8817 14.6339 14.1161C14.8683 14.3505 15 14.6685 15 15C15 15.3315 14.8683 15.6495 14.6339 15.8839C14.3995 16.1183 14.0815 16.25 13.75 16.25ZM23.75 16.25C23.4185 16.25 23.1005 16.1183 22.8661 15.8839C22.6317 15.6495 22.5 15.3315 22.5 15C22.5 14.6685 22.6317 14.3505 22.8661 14.1161C23.1005 13.8817 23.4185 13.75 23.75 13.75C24.0815 13.75 24.3995 13.8817 24.6339 14.1161C24.8683 14.3505 25 14.6685 25 15C25 15.3315 24.8683 15.6495 24.6339 15.8839C24.3995 16.1183 24.0815 16.25 23.75 16.25ZM42.5 10.65V5C42.5 4.83585 42.5323 4.6733 42.5951 4.52165C42.658 4.36999 42.75 4.23219 42.8661 4.11612C42.9822 4.00004 43.12 3.90797 43.2716 3.84515C43.4233 3.78233 43.5858 3.75 43.75 3.75H48.75C49.0815 3.75 49.3995 3.8817 49.6339 4.11612C49.8683 4.35054 50 4.66848 50 5V10.65L55.7812 15.275C55.9274 15.392 56.0454 15.5404 56.1266 15.7092C56.2077 15.8779 56.2499 16.0628 56.25 16.25V20C56.25 20.1642 56.2177 20.3267 56.1549 20.4784C56.092 20.63 56 20.7678 55.8839 20.8839C55.7678 21 55.63 21.092 55.4784 21.1548C55.3267 21.2177 55.1642 21.25 55 21.25H37.5C37.3358 21.25 37.1733 21.2177 37.0216 21.1548C36.87 21.092 36.7322 21 36.6161 20.8839C36.5 20.7678 36.408 20.63 36.3451 20.4784C36.2823 20.3267 36.25 20.1642 36.25 20V16.25C36.2501 16.0628 36.2923 15.8779 36.3734 15.7092C36.4546 15.5404 36.5726 15.392 36.7188 15.275L42.5 10.65ZM45 6.25V11.25C44.9999 11.4372 44.9577 11.6221 44.8766 11.7908C44.7954 11.9596 44.6774 12.108 44.5312 12.225L38.75 16.85V18.75H53.75V16.85L47.9688 12.225C47.8226 12.108 47.7046 11.9596 47.6234 11.7908C47.5423 11.6221 47.5001 11.4372 47.5 11.25V6.25H45ZM45 17.5C44.6685 17.5 44.3505 17.3683 44.1161 17.1339C43.8817 16.8995 43.75 16.5815 43.75 16.25C43.75 15.9185 43.8817 15.6005 44.1161 15.3661C44.3505 15.1317 44.6685 15 45 15H47.5C47.8315 15 48.1495 15.1317 48.3839 15.3661C48.6183 15.6005 48.75 15.9185 48.75 16.25C48.75 16.5815 48.6183 16.8995 48.3839 17.1339C48.1495 17.3683 47.8315 17.5 47.5 17.5H45Z" fill="#F38820"/>
</svg>
