<svg width="60" height="60" viewBox="0 0 60 60" fill="none" xmlns="http://www.w3.org/2000/svg">
<g clip-path="url(#clip0_801_24808)">
<path d="M54.65 12.6H50.3V5.35C50.3 2.9517 48.3483 1 45.95 1H14.05C11.6517 1 9.7 2.9517 9.7 5.35V12.6H5.35C2.9517 12.6 1 14.5517 1 16.95V43.05C1 45.4483 2.9517 47.4 5.35 47.4H9.7V54.65C9.7 57.0483 11.6517 59 14.05 59H45.95C48.3483 59 50.3 57.0483 50.3 54.65V47.4H54.65C57.0483 47.4 59 45.4483 59 43.05V16.95C59 14.5517 57.0483 12.6 54.65 12.6ZM12.6 5.35C12.6 4.96544 12.7528 4.59662 13.0247 4.3247C13.2966 4.05277 13.6654 3.9 14.05 3.9H45.95C46.3346 3.9 46.7034 4.05277 46.9753 4.3247C47.2472 4.59662 47.4 4.96544 47.4 5.35V12.6H12.6V5.35ZM45.95 56.1H14.05C13.6654 56.1 13.2966 55.9472 13.0247 55.6753C12.7528 55.4034 12.6 55.0346 12.6 54.65V35.8H47.4V54.65C47.4 55.0346 47.2472 55.4034 46.9753 55.6753C46.7034 55.9472 46.3346 56.1 45.95 56.1ZM56.1 43.05C56.1 43.4346 55.9472 43.8034 55.6753 44.0753C55.4034 44.3472 55.0346 44.5 54.65 44.5H50.3V35.8H51.75C52.1346 35.8 52.5034 35.6472 52.7753 35.3753C53.0472 35.1034 53.2 34.7346 53.2 34.35C53.2 33.9654 53.0472 33.5966 52.7753 33.3247C52.5034 33.0528 52.1346 32.9 51.75 32.9H8.25C7.86544 32.9 7.49662 33.0528 7.2247 33.3247C6.95277 33.5966 6.8 33.9654 6.8 34.35C6.8 34.7346 6.95277 35.1034 7.2247 35.3753C7.49662 35.6472 7.86544 35.8 8.25 35.8H9.7V44.5H5.35C4.96544 44.5 4.59662 44.3472 4.3247 44.0753C4.05277 43.8034 3.9 43.4346 3.9 43.05V16.95C3.9 16.5654 4.05277 16.1966 4.3247 15.9247C4.59662 15.6528 4.96544 15.5 5.35 15.5H54.65C55.0346 15.5 55.4034 15.6528 55.6753 15.9247C55.9472 16.1966 56.1 16.5654 56.1 16.95V43.05Z" fill="#F38820" stroke="#F38820" strokeWidth="0.8"/>
<path d="M43.0385 41.3333H17.4231C17.0457 41.3333 16.6837 41.1797 16.4168 40.9062C16.1499 40.6327 16 40.2618 16 39.875C16 39.4882 16.1499 39.1173 16.4168 38.8438C16.6837 38.5703 17.0457 38.4167 17.4231 38.4167H43.0385C43.4159 38.4167 43.7779 38.5703 44.0447 38.8438C44.3116 39.1173 44.4615 39.4882 44.4615 39.875C44.4615 40.2618 44.3116 40.6327 44.0447 40.9062C43.7779 41.1797 43.4159 41.3333 43.0385 41.3333ZM43.0385 47.1667H17.4231C17.0457 47.1667 16.6837 47.013 16.4168 46.7395C16.1499 46.466 16 46.0951 16 45.7083C16 45.3216 16.1499 44.9506 16.4168 44.6771C16.6837 44.4036 17.0457 44.25 17.4231 44.25H43.0385C43.4159 44.25 43.7779 44.4036 44.0447 44.6771C44.3116 44.9506 44.4615 45.3216 44.4615 45.7083C44.4615 46.0951 44.3116 46.466 44.0447 46.7395C43.7779 47.013 43.4159 47.1667 43.0385 47.1667ZM43.0385 53H17.4231C17.0457 53 16.6837 52.8464 16.4168 52.5729C16.1499 52.2994 16 51.9284 16 51.5417C16 51.1549 16.1499 50.784 16.4168 50.5105C16.6837 50.237 17.0457 50.0833 17.4231 50.0833H43.0385C43.4159 50.0833 43.7779 50.237 44.0447 50.5105C44.3116 50.784 44.4615 51.1549 44.4615 51.5417C44.4615 51.9284 44.3116 52.2994 44.0447 52.5729C43.7779 52.8464 43.4159 53 43.0385 53ZM48.7308 26.75C46.377 26.75 44.4615 24.7871 44.4615 22.375C44.4615 19.9629 46.377 18 48.7308 18C51.0845 18 53 19.9629 53 22.375C53 24.7871 51.0845 26.75 48.7308 26.75ZM48.7308 20.9167C48.5439 20.9167 48.3588 20.9544 48.1862 21.0277C48.0135 21.101 47.8566 21.2084 47.7245 21.3438C47.5924 21.4792 47.4875 21.64 47.416 21.8169C47.3445 21.9939 47.3077 22.1835 47.3077 22.375C47.3077 22.5665 47.3445 22.7561 47.416 22.9331C47.4875 23.11 47.5924 23.2708 47.7245 23.4062C47.8566 23.5416 48.0135 23.649 48.1862 23.7223C48.3588 23.7956 48.5439 23.8333 48.7308 23.8333C49.1082 23.8333 49.4702 23.6797 49.737 23.4062C50.0039 23.1327 50.1539 22.7618 50.1539 22.375C50.1539 21.9882 50.0039 21.6173 49.737 21.3438C49.4702 21.0703 49.1082 20.9167 48.7308 20.9167Z" fill="#F38820"/>
</g>
<defs>
<clipPath id="clip0_801_24808">
<rect width="60" height="60" fill="white"/>
</clipPath>
</defs>
</svg>
