<svg width="60" height="60" viewBox="0 0 60 60" fill="none" xmlns="http://www.w3.org/2000/svg">
<g clip-path="url(#clip0_801_24753)">
<path d="M59.7145 18.6103L52.9688 8.26641V1.75781C52.9688 1.29161 52.7836 0.844505 52.4539 0.514851C52.1242 0.185198 51.6771 0 51.2109 0L8.78906 0C8.32286 0 7.87575 0.185198 7.5461 0.514851C7.21645 0.844505 7.03125 1.29161 7.03125 1.75781V8.26641L0.285469 18.6103C0.0999713 18.8962 0.000854923 19.2295 0 19.5703L0 58.2422C0 58.7084 0.185198 59.1555 0.514851 59.4851C0.844505 59.8148 1.29161 60 1.75781 60H58.2422C58.7084 60 59.1555 59.8148 59.4851 59.4851C59.8148 59.1555 60 58.7084 60 58.2422V19.5703C60 19.245 59.9062 18.9042 59.7145 18.6103ZM10.5469 3.51562H49.4531V7.03125H10.5469V3.51562ZM9.74109 10.5469H50.2584L54.9975 17.8125H5.0025L9.74063 10.5469H9.74109ZM42.4219 21.3281V23.0859C42.4219 25.9936 40.0561 28.3594 37.1484 28.3594C34.2408 28.3594 31.875 25.9936 31.875 23.0859V21.3281H42.4219ZM28.2422 21.3281V23.0859C28.2422 25.9936 25.8764 28.3594 22.9688 28.3594C19.9828 28.3594 17.4609 25.9444 17.4609 23.0859V21.3281H28.2422ZM3.51562 21.3281H13.9453V23.0859C13.9453 25.9936 11.5795 28.3594 8.67188 28.3594C5.78062 28.3594 3.51562 26.0428 3.51562 23.0859V21.3281ZM24.7266 45.9375H22.9688C22.5025 45.9375 22.0554 46.1227 21.7258 46.4524C21.3961 46.782 21.2109 47.2291 21.2109 47.6953C21.2109 48.1615 21.3961 48.6086 21.7258 48.9383C22.0554 49.2679 22.5025 49.4531 22.9688 49.4531H24.7266V56.4844H13.9453V38.9062H24.7266V45.9375ZM56.4844 56.4844H28.2422V37.1484C28.2422 36.6822 28.057 36.2351 27.7273 35.9055C27.3977 35.5758 26.9506 35.3906 26.4844 35.3906H12.1875C11.7213 35.3906 11.2742 35.5758 10.9445 35.9055C10.6149 36.2351 10.4297 36.6822 10.4297 37.1484V56.4844H3.51562V30.1739C4.99219 31.2778 6.78094 31.875 8.67188 31.875C11.5669 31.875 14.1384 30.4673 15.7406 28.3013C17.4323 30.4913 20.0667 31.875 22.9688 31.875C25.8764 31.875 28.4578 30.4547 30.0586 28.2722C31.6594 30.4547 34.2408 31.875 37.1484 31.875C40.0205 31.875 42.5747 30.4903 44.1797 28.3533C45.7847 30.4903 48.3389 31.875 51.2109 31.875C53.1881 31.875 55.0144 31.2188 56.4844 30.1125V56.4844ZM56.4844 23.0859C56.4844 25.9936 54.1186 28.3594 51.2109 28.3594C48.3033 28.3594 45.9375 25.9936 45.9375 23.0859V21.3281H56.4844V23.0859ZM51.2109 35.3906C51.6771 35.3906 52.1242 35.5758 52.4539 35.9055C52.7836 36.2351 52.9688 36.6822 52.9688 37.1484V47.6953C52.9688 48.1615 52.7836 48.6086 52.4539 48.9383C52.1242 49.2679 51.6771 49.4531 51.2109 49.4531H33.6328C33.1666 49.4531 32.7195 49.2679 32.3899 48.9383C32.0602 48.6086 31.875 48.1615 31.875 47.6953V37.1484C31.875 36.6822 32.0602 36.2351 32.3899 35.9055C32.7195 35.5758 33.1666 35.3906 33.6328 35.3906H51.2109ZM35.3906 45.9375H36.4205L43.4517 38.9062H35.3906V45.9375ZM49.4531 45.9375V38.9062H48.4233L41.392 45.9375H49.4531Z" fill="#F38820"/>
</g>
<defs>
<clipPath id="clip0_801_24753">
<rect width="60" height="60" fill="white"/>
</clipPath>
</defs>
</svg>
