<svg width="60" height="60" viewBox="0 0 60 60" fill="none" xmlns="http://www.w3.org/2000/svg">
<g clip-path="url(#clip0_801_24784)">
<path d="M59 29C55.14 29 52 32.14 52 36V43H47C43.14 43 40 46.14 40 50C40 50.2652 40.1054 50.5196 40.2929 50.7071C40.4804 50.8946 40.7348 51 41 51H42V59C42 59.2652 42.1054 59.5196 42.2929 59.7071C42.4804 59.8946 42.7348 60 43 60H47C47.2652 60 47.5196 59.8946 47.7071 59.7071C47.8946 59.5196 48 59.2652 48 59V51H54V59C54 59.2652 54.1054 59.5196 54.2929 59.7071C54.4804 59.8946 54.7348 60 55 60H59C59.2652 60 59.5196 59.8946 59.7071 59.7071C59.8946 59.5196 60 59.2652 60 59V30C60 29.7348 59.8946 29.4804 59.7071 29.2929C59.5196 29.1054 59.2652 29 59 29ZM54 36C54.0015 34.8479 54.4002 33.7316 55.1288 32.8392C55.8575 31.9468 56.8715 31.3329 58 31.101V43H54V36ZM47 45H58V49H42.101C42.3329 47.8715 42.9468 46.8575 43.8392 46.1288C44.7316 45.4002 45.8479 45.0015 47 45ZM46 58H44V51H46V58ZM58 58H56V51H58V58ZM1 29C0.734784 29 0.48043 29.1054 0.292893 29.2929C0.105357 29.4804 0 29.7348 0 30V59C0 59.2652 0.105357 59.5196 0.292893 59.7071C0.48043 59.8946 0.734784 60 1 60H5C5.26522 60 5.51957 59.8946 5.70711 59.7071C5.89464 59.5196 6 59.2652 6 59V51H12V59C12 59.2652 12.1054 59.5196 12.2929 59.7071C12.4804 59.8946 12.7348 60 13 60H17C17.2652 60 17.5196 59.8946 17.7071 59.7071C17.8946 59.5196 18 59.2652 18 59V51H19C19.2652 51 19.5196 50.8946 19.7071 50.7071C19.8946 50.5196 20 50.2652 20 50C20 46.14 16.86 43 13 43H8V36C8 32.14 4.86 29 1 29ZM4 58H2V51H4V58ZM16 58H14V51H16V58ZM17.899 49H2V45H13C14.1521 45.0015 15.2684 45.4002 16.1608 46.1288C17.0532 46.8575 17.6671 47.8715 17.899 49ZM6 43H2V31.101C4.279 31.565 6 33.585 6 36V43Z" fill="#F38820" stroke="#F38820"/>
<path d="M22.788 26.7455C22.6946 26.6232 22.5751 26.5243 22.4386 26.4562C22.302 26.3882 22.152 26.3529 22 26.3529H14C13.8479 26.3525 13.6977 26.3876 13.5609 26.4555C13.424 26.5233 13.3043 26.6222 13.2107 26.7445C13.1171 26.8668 13.0521 27.0093 13.0208 27.1611C12.9895 27.3129 12.9927 27.4699 13.03 27.6203L13.719 30.4314H13C12.7348 30.4314 12.4804 30.5388 12.2929 30.73C12.1054 30.9212 12 31.1806 12 31.451V35.5294C12 35.7998 12.1054 36.0592 12.2929 36.2504C12.4804 36.4416 12.7348 36.549 13 36.549H26V51.8431H23C22.7348 51.8431 22.4804 51.9506 22.2929 52.1418C22.1054 52.333 22 52.5923 22 52.8627V58.9804C22 59.2508 22.1054 59.5102 22.2929 59.7014C22.4804 59.8926 22.7348 60 23 60H37C37.2652 60 37.5196 59.8926 37.7071 59.7014C37.8946 59.5102 38 59.2508 38 58.9804V52.8627C38 52.5923 37.8946 52.333 37.7071 52.1418C37.5196 51.9506 37.2652 51.8431 37 51.8431H34V36.549H47C47.2652 36.549 47.5196 36.4416 47.7071 36.2504C47.8946 36.0592 48 35.7998 48 35.5294V31.451C48 31.1806 47.8946 30.9212 47.7071 30.73C47.5196 30.5388 47.2652 30.4314 47 30.4314H46.281L46.97 27.6203C47.0069 27.47 47.0098 27.313 46.9783 27.1614C46.9468 27.0098 46.8819 26.8675 46.7883 26.7453C46.6948 26.6231 46.5752 26.5242 46.4386 26.4563C46.302 26.3883 46.152 26.3529 46 26.3529H38C37.8479 26.3525 37.6977 26.3876 37.5609 26.4555C37.424 26.5233 37.3043 26.6222 37.2107 26.7445C37.1171 26.8668 37.0521 27.0093 37.0208 27.1611C36.9895 27.3129 36.9927 27.4699 37.03 27.6203L37.719 30.4314H34.905L33.995 21.1529C33.9702 20.9014 33.8547 20.6683 33.6708 20.4987C33.487 20.3292 33.2479 20.2353 33 20.2353H31V15.9152C32.173 15.3646 33 13.8842 33 12.0784C33 9.79145 31.682 8 30 8C28.318 8 27 9.79145 27 12.0784C27 13.8842 27.827 15.3646 29 15.9152V20.2353H27C26.7521 20.2353 26.513 20.3292 26.3292 20.4987C26.1453 20.6683 26.0298 20.9014 26.005 21.1529L25.095 30.4314H22.281L22.97 27.6203C23.0071 27.47 23.01 27.313 22.9784 27.1614C22.9469 27.0098 22.8817 26.8675 22.788 26.7455ZM30 10.0392C30.408 10.0392 31 10.8335 31 12.0784C31 13.3234 30.408 14.1176 30 14.1176C29.592 14.1176 29 13.3234 29 12.0784C29 10.8335 29.592 10.0392 30 10.0392ZM33 53.8824H36V57.9608H24V53.8824H27C27.2652 53.8824 27.5196 53.7749 27.7071 53.5837C27.8946 53.3925 28 53.1332 28 52.8627V36.549H32V52.8627C32 53.1332 32.1054 53.3925 32.2929 53.5837C32.4804 53.7749 32.7348 53.8824 33 53.8824ZM46 34.5098H14V32.4706H46V34.5098ZM39.281 28.3922H44.719L44.219 30.4314H39.781L39.281 28.3922ZM27.905 22.2745H32.095L32.895 30.4314H27.105L27.905 22.2745ZM15.781 30.4314L15.281 28.3922H20.719L20.219 30.4314H15.781Z" fill="#F38820" stroke="#F38820"/>
</g>
<defs>
<clipPath id="clip0_801_24784">
<rect width="60" height="60" fill="white"/>
</clipPath>
</defs>
</svg>
