<svg width="60" height="60" viewBox="0 0 60 60" fill="none" xmlns="http://www.w3.org/2000/svg">
<g clip-path="url(#clip0_801_24816)">
<path d="M30 24C36.63 24 42 18.63 42 12C42 5.37 36.63 0 30 0C23.37 0 18 5.37 18 12C18 18.63 23.37 24 30 24ZM30 3.99C34.41 3.99 38.01 7.59 38.01 12C38.01 16.41 34.41 20.01 30 20.01C25.59 20.01 21.99 16.41 21.99 12C21.99 7.59 25.59 3.99 30 3.99Z" fill="#F38820"/>
<path d="M27 40.1992C27 40.9949 27.3161 41.7579 27.8787 42.3205C28.4413 42.8831 29.2044 43.1992 30 43.1992C30.7957 43.1992 31.5587 42.8831 32.1213 42.3205C32.6839 41.7579 33 40.9949 33 40.1992C33 39.8053 32.9224 39.4151 32.7716 39.0512C32.6209 38.6872 32.3999 38.3565 32.1213 38.0779C31.8427 37.7993 31.512 37.5783 31.1481 37.4276C30.7841 37.2768 30.394 37.1992 30 37.1992C29.606 37.1992 29.2159 37.2768 28.852 37.4276C28.488 37.5783 28.1573 37.7993 27.8787 38.0779C27.6001 38.3565 27.3791 38.6872 27.2284 39.0512C27.0776 39.4151 27 39.8053 27 40.1992Z" fill="#F38820"/>
<path d="M28.2002 49.1984C28.2002 49.6758 28.3898 50.1337 28.7274 50.4712C29.065 50.8088 29.5228 50.9984 30.0002 50.9984C30.4776 50.9984 30.9354 50.8088 31.273 50.4712C31.6106 50.1337 31.8002 49.6758 31.8002 49.1984C31.8002 48.9621 31.7536 48.728 31.6632 48.5096C31.5727 48.2912 31.4401 48.0928 31.273 47.9256C31.1058 47.7585 30.9074 47.6259 30.689 47.5355C30.4706 47.445 30.2366 47.3984 30.0002 47.3984C29.7638 47.3984 29.5298 47.445 29.3114 47.5355C29.093 47.6259 28.8945 47.7585 28.7274 47.9256C28.5603 48.0928 28.4277 48.2912 28.3372 48.5096C28.2468 48.728 28.2002 48.9621 28.2002 49.1984Z" fill="#F38820"/>
<path d="M36 27.6016H24C10.74 27.6016 0 38.3416 0 51.6016V55.2016C0 57.8416 2.16 60.0016 4.8 60.0016H55.2C57.84 60.0016 60 57.8416 60 55.2016V51.6016C60 38.3416 49.26 27.6016 36 27.6016ZM56.4 55.2016C56.4 55.8616 55.86 56.4016 55.2 56.4016H4.8C4.14 56.4016 3.6 55.8616 3.6 55.2016V51.6016C3.6 40.3516 12.75 31.2016 24 31.2016H36C47.25 31.2016 56.4 40.3516 56.4 51.6016V55.2016Z" fill="#F38820"/>
</g>
<defs>
<clipPath id="clip0_801_24816">
<rect width="60" height="60" fill="white"/>
</clipPath>
</defs>
</svg>
