<svg width="16" height="16" viewBox="0 0 16 16" fill="none" xmlns="http://www.w3.org/2000/svg">
<path d="M2 4.5H5.24269C5.32228 4.5 5.40072 4.519 5.47148 4.55542C5.54225 4.59183 5.6033 4.64462 5.64956 4.70938L10.3504 11.2906C10.3967 11.3554 10.4578 11.4082 10.5285 11.4446C10.5993 11.481 10.6777 11.5 10.7573 11.5H14.5M14.5 11.5L13 10M14.5 11.5L13 13M2 11.5H5.24269C5.32228 11.5 5.40072 11.481 5.47148 11.4446C5.54225 11.4082 5.6033 11.3554 5.64956 11.2906L6.7711 9.72046M13 3L14.5 4.5M14.5 4.5L13 6M14.5 4.5H10.7573C10.6777 4.5 10.5993 4.519 10.5285 4.55542C10.4578 4.59183 10.3967 4.64462 10.3504 4.70938L9.2289 6.27954" stroke="#5E718D" strokeLinecap="round" strokeLinejoin="round"/>
</svg>
