<svg width="17" height="16" viewBox="0 0 17 16" fill="none" xmlns="http://www.w3.org/2000/svg">
<g clip-path="url(#clip0_2072_34630)">
<path d="M5.31792 3.75739C5.02502 3.4645 4.55015 3.4645 4.25726 3.75739C3.96436 4.05029 3.96436 4.52516 4.25726 4.81805L7.43923 8.00003L4.25729 11.182C3.96439 11.4749 3.96439 11.9497 4.25729 12.2426C4.55018 12.5355 5.02505 12.5355 5.31795 12.2426L8.49989 9.06069L11.6819 12.2427C11.9748 12.5356 12.4496 12.5356 12.7425 12.2427C13.0354 11.9498 13.0354 11.4749 12.7425 11.182L9.56056 8.00003L12.7426 4.81802C13.0355 4.52512 13.0355 4.05025 12.7426 3.75736C12.4497 3.46446 11.9748 3.46446 11.6819 3.75736L8.49989 6.93937L5.31792 3.75739Z" fill="#868FA0"/>
</g>
<defs>
<clipPath id="clip0_2072_34630">
<rect width="16" height="16" fill="white" transform="translate(0.5)"/>
</clipPath>
</defs>
</svg>
