<svg width="200" height="200" viewBox="0 0 200 200" fill="none" xmlns="http://www.w3.org/2000/svg">
<path d="M12.793 99.8242C12.793 123 21.9993 145.226 38.3868 161.613C54.7743 178.001 77.0004 187.207 100.176 187.207C123.351 187.207 145.577 178.001 161.965 161.613C178.352 145.226 187.559 123 187.559 99.8242C187.559 76.6489 178.352 54.4227 161.965 38.0352C145.577 21.6478 123.351 12.4414 100.176 12.4414C77.0004 12.4414 54.7743 21.6478 38.3868 38.0352C21.9993 54.4227 12.793 76.6489 12.793 99.8242Z" fill="#0EC469"/>
<path d="M50.3516 96.4062C50.3516 96.4062 62.6367 125.078 81.7578 125.078C100.195 125.078 156.191 59.9023 156.191 59.9023C156.191 59.9023 101.777 148.75 83.5742 148.75C68.4375 148.75 57.5195 127.129 50.3516 96.4062Z" fill="white"/>
</svg>
