<svg width="24" height="24" viewBox="0 0 24 24" fill="none" xmlns="http://www.w3.org/2000/svg">
<path d="M11.4998 2.4257L3.93846 3.93797L2.42619 11.4993C2.40197 11.6204 2.40802 11.7456 2.4438 11.8638C2.47958 11.9819 2.54398 12.0894 2.63129 12.1767L12.4237 21.9692C12.4934 22.0388 12.5761 22.0941 12.6671 22.1318C12.7581 22.1695 12.8556 22.1889 12.9541 22.1889C13.0526 22.1889 13.1501 22.1695 13.2411 22.1318C13.3321 22.0941 13.4148 22.0388 13.4844 21.9692L21.9697 13.4839C22.0393 13.4143 22.0946 13.3316 22.1323 13.2406C22.17 13.1496 22.1894 13.0521 22.1894 12.9536C22.1894 12.8551 22.17 12.7576 22.1323 12.6666C22.0946 12.5756 22.0393 12.4929 21.9697 12.4233L12.1772 2.6308C12.0899 2.5435 11.9824 2.47909 11.8642 2.44331C11.7461 2.40753 11.6209 2.40148 11.4998 2.4257V2.4257Z" stroke="#3355FF" stroke-width="1.5" stroke-linecap="round" stroke-linejoin="round"/>
<path d="M7.875 9C8.49632 9 9 8.49632 9 7.875C9 7.25368 8.49632 6.75 7.875 6.75C7.25368 6.75 6.75 7.25368 6.75 7.875C6.75 8.49632 7.25368 9 7.875 9Z" fill="#3355FF"/>
</svg>
