<svg width="20" height="20" viewBox="0 0 20 20" fill="none" xmlns="http://www.w3.org/2000/svg">
<path d="M11.9383 3.80439C11.5396 3.91672 11.3074 4.33098 11.4198 4.72967C11.5321 5.12837 11.9464 5.36051 12.3451 5.24818L11.9383 3.80439ZM13.244 12.5L13.2434 11.75C12.8293 11.7503 12.4938 12.0861 12.494 12.5003C12.4941 12.9144 12.8299 13.25 13.2441 13.25L13.244 12.5ZM18.2552 15.8521C18.4932 16.1911 18.9609 16.273 19.2999 16.035C19.639 15.797 19.7208 15.3292 19.4828 14.9902L18.2552 15.8521ZM0.636205 14.9902C0.397982 15.3291 0.47956 15.7969 0.818415 16.0351C1.15727 16.2733 1.62508 16.1918 1.86331 15.8529L0.636205 14.9902ZM11.8866 15.8525C12.1248 16.1914 12.5927 16.2729 12.9315 16.0347C13.2703 15.7964 13.3519 15.3286 13.1136 14.9898L11.8866 15.8525ZM10.1876 8.43745C10.1876 10.2669 8.70453 11.75 6.87508 11.75V13.25C9.53295 13.25 11.6876 11.0953 11.6876 8.43745H10.1876ZM6.87508 11.75C5.04564 11.75 3.56258 10.2669 3.56258 8.43745H2.06258C2.06258 11.0953 4.21721 13.25 6.87508 13.25V11.75ZM3.56258 8.43745C3.56258 6.60801 5.04564 5.12495 6.87508 5.12495V3.62495C4.21721 3.62495 2.06258 5.77958 2.06258 8.43745H3.56258ZM6.87508 5.12495C8.70453 5.12495 10.1876 6.60801 10.1876 8.43745H11.6876C11.6876 5.77958 9.53295 3.62495 6.87508 3.62495V5.12495ZM12.3451 5.24818C12.8007 5.1198 13.2785 5.09056 13.7464 5.16241L13.9741 3.6798C13.2944 3.57541 12.6002 3.61789 11.9383 3.80439L12.3451 5.24818ZM13.7464 5.16241C14.2143 5.23427 14.6613 5.40555 15.0574 5.66472L15.8787 4.40953C15.3032 4.03301 14.6538 3.78418 13.9741 3.6798L13.7464 5.16241ZM15.0574 5.66472C15.4535 5.92389 15.7895 6.26494 16.0427 6.66489L17.3101 5.86255C16.9422 5.28151 16.4541 4.78605 15.8787 4.40953L15.0574 5.66472ZM16.0427 6.66489C16.2959 7.06484 16.4604 7.51441 16.5253 7.98331L18.0111 7.77789C17.917 7.09669 17.6779 6.44358 17.3101 5.86255L16.0427 6.66489ZM16.5253 7.98331C16.5901 8.45221 16.5537 8.92955 16.4185 9.3832L17.856 9.81161C18.0524 9.15257 18.1053 8.4591 18.0111 7.77789L16.5253 7.98331ZM16.4185 9.3832C16.2833 9.83684 16.0524 10.2562 15.7415 10.6132L16.8725 11.5985C17.3242 11.0799 17.6596 10.4706 17.856 9.81161L16.4185 9.3832ZM15.7415 10.6132C15.4306 10.9701 15.0468 11.2562 14.6159 11.4523L15.2373 12.8176C15.8632 12.5327 16.4208 12.117 16.8725 11.5985L15.7415 10.6132ZM14.6159 11.4523C14.1851 11.6484 13.7172 11.7499 13.2439 11.75L13.2441 13.25C13.9317 13.2499 14.6114 13.1024 15.2373 12.8176L14.6159 11.4523ZM13.2445 13.25C14.2273 13.2492 15.1958 13.4854 16.068 13.9383L16.7593 12.6071C15.6733 12.0431 14.4672 11.7491 13.2434 11.75L13.2445 13.25ZM16.068 13.9383C16.9402 14.3913 17.6905 15.0477 18.2552 15.8521L19.4828 14.9902C18.7796 13.9886 17.8454 13.1711 16.7593 12.6071L16.068 13.9383ZM1.86331 15.8529C2.42858 15.0488 3.17902 14.3926 4.05127 13.9396L3.35988 12.6084C2.27407 13.1724 1.33989 13.9893 0.636205 14.9902L1.86331 15.8529ZM4.05127 13.9396C4.92349 13.4865 5.8922 13.25 6.87511 13.25L6.87506 11.75C5.65155 11.75 4.44572 12.0444 3.35988 12.6084L4.05127 13.9396ZM6.87511 13.25C7.85797 13.2499 8.82617 13.4864 9.69848 13.9393L10.3898 12.6081C9.30394 12.0443 8.09862 11.7499 6.87506 11.75L6.87511 13.25ZM9.69848 13.9393C10.5708 14.3923 11.3213 15.0485 11.8866 15.8525L13.1136 14.9898C12.4099 13.9889 11.4756 13.172 10.3898 12.6081L9.69848 13.9393Z" fill="#333333"/>
</svg>
