<svg width="28" height="28" viewBox="0 0 28 28" fill="none" xmlns="http://www.w3.org/2000/svg">
<path d="M6.30952 21.4665C6.12174 21.8357 6.26881 22.2873 6.63801 22.475C7.00721 22.6628 7.45874 22.5158 7.64652 22.1466L6.30952 21.4665ZM20.3535 22.1465C20.5413 22.5157 20.9928 22.6628 21.362 22.475C21.7312 22.2872 21.8782 21.8357 21.6905 21.4665L20.3535 22.1465ZM23.75 14C23.75 19.3848 19.3848 23.75 14 23.75V25.25C20.2132 25.25 25.25 20.2132 25.25 14H23.75ZM14 23.75C8.61522 23.75 4.25 19.3848 4.25 14H2.75C2.75 20.2132 7.7868 25.25 14 25.25V23.75ZM4.25 14C4.25 8.61522 8.61522 4.25 14 4.25V2.75C7.7868 2.75 2.75 7.7868 2.75 14H4.25ZM14 4.25C19.3848 4.25 23.75 8.61522 23.75 14H25.25C25.25 7.7868 20.2132 2.75 14 2.75V4.25ZM7.64652 22.1466C8.24288 20.9741 9.15205 19.9895 10.2734 19.3017L9.4892 18.0231C8.13188 18.8555 7.03137 20.0473 6.30952 21.4665L7.64652 22.1466ZM10.2734 19.3017C11.3948 18.614 12.6845 18.25 14 18.25L14 16.75C12.4077 16.75 10.8465 17.1906 9.4892 18.0231L10.2734 19.3017ZM14 18.25C15.3154 18.25 16.6052 18.614 17.7266 19.3017L18.5108 18.023C17.1534 17.1906 15.5922 16.75 14 16.75L14 18.25ZM17.7266 19.3017C18.8479 19.9894 19.7571 20.974 20.3535 22.1465L21.6905 21.4665C20.9686 20.0473 19.8681 18.8555 18.5108 18.023L17.7266 19.3017ZM17.625 13.125C17.625 15.127 16.002 16.75 14 16.75V18.25C16.8304 18.25 19.125 15.9555 19.125 13.125H17.625ZM14 16.75C11.998 16.75 10.375 15.127 10.375 13.125H8.875C8.875 15.9555 11.1695 18.25 14 18.25V16.75ZM10.375 13.125C10.375 11.123 11.998 9.5 14 9.5V8C11.1695 8 8.875 10.2945 8.875 13.125H10.375ZM14 9.5C16.002 9.5 17.625 11.123 17.625 13.125H19.125C19.125 10.2945 16.8305 8 14 8V9.5Z" fill="#666666"/>
</svg>
