<svg width="20" height="20" viewBox="0 0 20 20" fill="none" xmlns="http://www.w3.org/2000/svg">
<path d="M4.31581 15.2361C4.12802 15.6053 4.27509 16.0568 4.64429 16.2446C5.01349 16.4324 5.46502 16.2853 5.6528 15.9161L4.31581 15.2361ZM14.3472 15.9161C14.535 16.2853 14.9865 16.4324 15.3557 16.2446C15.7249 16.0568 15.872 15.6053 15.6842 15.2361L14.3472 15.9161ZM14.875 6.5625C14.875 6.97671 15.2108 7.3125 15.625 7.3125C16.0392 7.3125 16.375 6.97671 16.375 6.5625H14.875ZM17.0825 4.35048C16.7238 4.14337 16.2651 4.26628 16.058 4.625C15.8509 4.98372 15.9738 5.44241 16.3325 5.64952L17.0825 4.35048ZM17.1444 6.11827C17.5032 6.32538 17.9618 6.20247 18.169 5.84375C18.3761 5.48503 18.2532 5.02634 17.8944 4.81923L17.1444 6.11827ZM14.9175 5.64952C15.2762 5.44241 15.3991 4.98372 15.192 4.625C14.9849 4.26628 14.5262 4.14337 14.1675 4.35048L14.9175 5.64952ZM13.3556 4.81923C12.9969 5.02634 12.8739 5.48503 13.0811 5.84375C13.2882 6.20247 13.7469 6.32538 14.1056 6.11827L13.3556 4.81923ZM16.3325 3.10048C15.9738 3.30759 15.8509 3.76628 16.058 4.125C16.2651 4.48372 16.7238 4.60663 17.0825 4.39952L16.3325 3.10048ZM17.8944 3.93077C18.2532 3.72366 18.3761 3.26497 18.169 2.90625C17.9618 2.54753 17.5032 2.42462 17.1444 2.63173L17.8944 3.93077ZM14.1675 4.39952C14.5262 4.60663 14.9849 4.48372 15.192 4.125C15.3991 3.76628 15.2762 3.30759 14.9175 3.10048L14.1675 4.39952ZM14.1056 2.63173C13.7469 2.42462 13.2882 2.54753 13.0811 2.90625C12.8739 3.26497 12.9969 3.72366 13.3556 3.93077L14.1056 2.63173ZM16.375 2.1875C16.375 1.77329 16.0392 1.4375 15.625 1.4375C15.2108 1.4375 14.875 1.77329 14.875 2.1875H16.375ZM18.1915 9.0128C18.1425 8.6015 17.7693 8.30782 17.358 8.35684C16.9467 8.40587 16.653 8.77903 16.702 9.19034L18.1915 9.0128ZM17.5 10L16.75 9.99984V10H17.5ZM10 2.5V1.75V2.5ZM10.6268 3.27867C11.0392 3.31687 11.4046 3.01349 11.4428 2.60104C11.481 2.18859 11.1776 1.82327 10.7652 1.78506L10.6268 3.27867ZM5.6528 15.9161C6.06085 15.1139 6.68293 14.4402 7.45018 13.9696L6.66597 12.6909C5.66275 13.3062 4.84934 14.1871 4.31581 15.2361L5.6528 15.9161ZM7.45018 13.9696C8.21744 13.4991 9.09994 13.25 9.99999 13.25L9.99999 11.75C8.82312 11.75 7.6692 12.0757 6.66597 12.6909L7.45018 13.9696ZM9.99999 13.25C10.9001 13.25 11.7826 13.4991 12.5498 13.9696L13.334 12.6909C12.3308 12.0757 11.1769 11.75 9.99999 11.75L9.99999 13.25ZM12.5498 13.9696C13.3171 14.4402 13.9391 15.1138 14.3472 15.9161L15.6842 15.2361C15.1506 14.1871 14.3372 13.3062 13.334 12.6909L12.5498 13.9696ZM12.375 9.375C12.375 10.6867 11.3117 11.75 9.99999 11.75V13.25C12.1401 13.25 13.875 11.5151 13.875 9.375H12.375ZM9.99999 11.75C8.68832 11.75 7.625 10.6867 7.625 9.375H6.125C6.125 11.5151 7.85989 13.25 9.99999 13.25V11.75ZM7.625 9.375C7.625 8.06332 8.68833 7 10 7V5.5C7.8599 5.5 6.125 7.2349 6.125 9.375H7.625ZM10 7C11.3117 7 12.375 8.06332 12.375 9.375H13.875C13.875 7.2349 12.1401 5.5 10 5.5V7ZM14.875 5.625V6.5625H16.375V5.625H14.875ZM16.125 4.375C16.125 4.65114 15.9011 4.875 15.625 4.875V6.375C16.7296 6.375 17.625 5.47957 17.625 4.375H16.125ZM15.625 4.875C15.3489 4.875 15.125 4.65114 15.125 4.375H13.625C13.625 5.47957 14.5204 6.375 15.625 6.375V4.875ZM15.125 4.375C15.125 4.09886 15.3489 3.875 15.625 3.875V2.375C14.5204 2.375 13.625 3.27043 13.625 4.375H15.125ZM15.625 3.875C15.9011 3.875 16.125 4.09886 16.125 4.375H17.625C17.625 3.27043 16.7296 2.375 15.625 2.375V3.875ZM16.3325 5.64952L17.1444 6.11827L17.8944 4.81923L17.0825 4.35048L16.3325 5.64952ZM14.1675 4.35048L13.3556 4.81923L14.1056 6.11827L14.9175 5.64952L14.1675 4.35048ZM17.0825 4.39952L17.8944 3.93077L17.1444 2.63173L16.3325 3.10048L17.0825 4.39952ZM14.9175 3.10048L14.1056 2.63173L13.3556 3.93077L14.1675 4.39952L14.9175 3.10048ZM16.375 3.125V2.1875H14.875V3.125H16.375ZM16.702 9.19034C16.734 9.45898 16.7501 9.72929 16.75 9.99984L18.25 10.0002C18.2501 9.67018 18.2305 9.34047 18.1915 9.0128L16.702 9.19034ZM16.75 10C16.75 11.335 16.3541 12.6401 15.6124 13.7501L16.8596 14.5835C17.7662 13.2267 18.25 11.6317 18.25 10H16.75ZM15.6124 13.7501C14.8707 14.8601 13.8165 15.7253 12.5831 16.2362L13.1571 17.622C14.6646 16.9976 15.9531 15.9402 16.8596 14.5835L15.6124 13.7501ZM12.5831 16.2362C11.3497 16.7471 9.99252 16.8807 8.68314 16.6203L8.39051 18.0915C9.99085 18.4098 11.6497 18.2464 13.1571 17.622L12.5831 16.2362ZM8.68314 16.6203C7.37377 16.3598 6.17104 15.717 5.22703 14.773L4.16637 15.8336C5.32016 16.9874 6.79017 17.7731 8.39051 18.0915L8.68314 16.6203ZM5.22703 14.773C4.28303 13.829 3.64015 12.6262 3.3797 11.3169L1.90852 11.6095C2.22685 13.2098 3.01259 14.6798 4.16637 15.8336L5.22703 14.773ZM3.3797 11.3169C3.11925 10.0075 3.25293 8.65029 3.76382 7.41689L2.378 6.84286C1.75357 8.35035 1.5902 10.0092 1.90852 11.6095L3.3797 11.3169ZM3.76382 7.41689C4.27471 6.18349 5.13987 5.12928 6.2499 4.38758L5.41655 3.14038C4.05984 4.0469 3.00242 5.33537 2.378 6.84286L3.76382 7.41689ZM6.2499 4.38758C7.35994 3.64588 8.66498 3.25 10 3.25V1.75C8.36831 1.75 6.77326 2.23385 5.41655 3.14038L6.2499 4.38758ZM10 3.25C10.212 3.25 10.4209 3.25959 10.6268 3.27867L10.7652 1.78506C10.5124 1.76165 10.2573 1.75 10 1.75V3.25Z" fill="#333333"/>
</svg>
