<svg width="24" height="24" viewBox="0 0 24 24" fill="none" xmlns="http://www.w3.org/2000/svg">
<path d="M2.90527 20.2491C3.82736 18.6531 5.15322 17.3278 6.74966 16.4064C8.34611 15.485 10.1569 15 12.0002 15C13.8434 15 15.6542 15.4851 17.2506 16.4065C18.8471 17.3279 20.1729 18.6533 21.0949 20.2493M16.5001 5.25H21.0001M18.7501 3V7.5M17.6299 11.0796C17.2288 12.1625 16.5236 13.1066 15.599 13.7984C14.6744 14.4902 13.5697 14.9004 12.4177 14.9796C11.2656 15.0588 10.1152 14.8037 9.10463 14.245C8.09405 13.6862 7.26628 12.8476 6.72077 11.8298C6.17526 10.812 5.93521 9.65831 6.02946 8.5074C6.12371 7.35648 6.54825 6.25726 7.25209 5.34177C7.95592 4.42629 8.9091 3.73348 9.99713 3.34659C11.0852 2.9597 12.2618 2.89518 13.3856 3.16077" stroke="#333333" strokeWidth="1.5" strokeLinecap="round" strokeLinejoin="round"/>
</svg>
