<svg width="24" height="24" viewBox="0 0 24 24" fill="none" xmlns="http://www.w3.org/2000/svg">
<path d="M12 1C11.8639 1.00018 11.7292 1.02815 11.6042 1.0822C11.4793 1.13626 11.3667 1.21525 11.2733 1.31436C11.18 1.41346 11.1079 1.53058 11.0614 1.65853C11.0149 1.78649 10.995 1.92259 11.003 2.0585C6.509 2.557 3 6.3755 3 11V11.5H2.25C2.05109 11.5 1.86032 11.579 1.71967 11.7197C1.57902 11.8603 1.5 12.0511 1.5 12.25C1.5 12.4489 1.57902 12.6397 1.71967 12.7803C1.86032 12.921 2.05109 13 2.25 13H4.615C4.5338 13.2472 4.49492 13.5063 4.5 13.7665C4.5115 14.266 4.7015 14.6285 4.823 14.9005C5.146 15.62 5.193 16.1655 5.29 16.76C5.364 17.2125 5.51 17.745 5.868 18.202L5.1965 20.1055C5.16179 20.1988 5.14599 20.298 5.15002 20.3975C5.15405 20.4969 5.17784 20.5946 5.21999 20.6847C5.26214 20.7749 5.32181 20.8557 5.39553 20.9226C5.46925 20.9895 5.55554 21.041 5.64937 21.0742C5.7432 21.1074 5.8427 21.1215 5.94206 21.1159C6.04143 21.1102 6.13867 21.0848 6.22813 21.0412C6.31758 20.9976 6.39746 20.9366 6.46311 20.8618C6.52876 20.787 6.57886 20.6999 6.6105 20.6055L7.1875 18.9695L11.1355 20.3645L10.5575 22C10.5228 22.0933 10.507 22.1925 10.511 22.292C10.5151 22.3914 10.5388 22.4891 10.581 22.5792C10.6231 22.6694 10.6828 22.7502 10.7565 22.8171C10.8302 22.884 10.9165 22.9355 11.0104 22.9687C11.1042 23.0019 11.2037 23.016 11.3031 23.0104C11.4024 23.0047 11.4997 22.9793 11.5891 22.9357C11.6786 22.8921 11.7585 22.8311 11.8241 22.7563C11.8898 22.6815 11.9399 22.5944 11.9715 22.5L12.783 20.204C12.8945 19.9655 13.3865 19.3535 13.963 18.802C14.545 18.2445 15.2165 17.695 15.6855 17.3605C17.398 16.1375 19.0145 15.223 19.0205 15.2195L19.0255 15.218L19.0295 15.215C19.7925 14.757 20.147 13.8455 19.9285 13H21.75C21.9489 13 22.1397 12.921 22.2803 12.7803C22.421 12.6397 22.5 12.4489 22.5 12.25C22.5 12.0511 22.421 11.8603 22.2803 11.7197C22.1397 11.579 21.9489 11.5 21.75 11.5H21V11C21 6.375 17.491 2.557 12.997 2.0585C13.005 1.92259 12.9851 1.78649 12.9386 1.65853C12.8921 1.53058 12.82 1.41346 12.7267 1.31436C12.6333 1.21525 12.5207 1.13626 12.3958 1.0822C12.2708 1.02815 12.1361 1.00018 12 1ZM12 3.5C16.151 3.5 19.5 6.849 19.5 11V11.5H4.5V11C4.5 6.849 7.849 3.5 12 3.5ZM6.672 13H6.7755C6.9555 13.017 7.1255 13.1015 7.255 13.2395L7.34 13.3795C7.4265 13.523 7.5455 13.718 7.6865 13.9345C7.968 14.368 8.3195 14.88 8.7195 15.2805C9.4065 15.967 10.278 16 10.75 16C11.5175 16 12.193 15.646 13.052 15.2365C13.9105 14.8265 14.8405 14.3215 15.6055 13.91C15.812 13.799 16.2105 13.572 16.6835 13.365C17.1565 13.1585 17.6985 13 17.9895 13C18.1995 13 18.3895 13.1215 18.467 13.32C18.5107 13.4298 18.5136 13.5516 18.475 13.6633C18.4365 13.7749 18.3591 13.8691 18.257 13.9285C18.2435 13.9365 16.598 14.8655 14.8145 16.1395C14.1501 16.6224 13.5191 17.1498 12.926 17.718C12.4825 18.142 12.079 18.5585 11.7675 18.997L7.118 17.3545C6.881 17.1455 6.845 16.9795 6.7695 16.5175C6.686 16.007 6.6115 15.224 6.1915 14.2875H6.1925C6.069 14.012 6.0015 13.806 6 13.7335C5.995 13.4935 6.0615 13.3235 6.216 13.1895C6.358 13.066 6.5165 13.0085 6.672 13ZM8.871 13H14.127C13.5599 13.307 12.9861 13.6014 12.406 13.883C11.6015 14.267 10.7935 14.5 10.75 14.5C10.278 14.5 10.0935 14.533 9.78 14.22C9.5395 13.979 9.201 13.5125 8.9445 13.117C8.915 13.072 8.8985 13.043 8.871 13ZM8.75 20.6095C8.55109 20.6095 8.36032 20.6885 8.21967 20.8292C8.07902 20.9698 8 21.1606 8 21.3595C8 21.5584 8.07902 21.7492 8.21967 21.8898C8.36032 22.0305 8.55109 22.1095 8.75 22.1095C8.94891 22.1095 9.13968 22.0305 9.28033 21.8898C9.42098 21.7492 9.5 21.5584 9.5 21.3595C9.5 21.1606 9.42098 20.9698 9.28033 20.8292C9.13968 20.6885 8.94891 20.6095 8.75 20.6095Z" fill="#FF5C00" stroke="#FF5C00" stroke-width="0.25"/>
</svg>
