<svg width="52" height="52" viewBox="0 0 52 52" fill="none" xmlns="http://www.w3.org/2000/svg">
<rect width="52" height="52" rx="26" fill="#00E55C" fill-opacity="0.15"/>
<path d="M15.6875 18.5V33.5C15.6875 33.9973 15.885 34.4742 16.2367 34.8258C16.5883 35.1775 17.0652 35.375 17.5625 35.375H36.3125C36.5611 35.375 36.7996 35.2762 36.9754 35.1004C37.1512 34.9246 37.25 34.6861 37.25 34.4375V21.3125C37.25 21.0639 37.1512 20.8254 36.9754 20.6496C36.7996 20.4738 36.5611 20.375 36.3125 20.375H17.5625C17.0652 20.375 16.5883 20.1775 16.2367 19.8258C15.885 19.4742 15.6875 18.9973 15.6875 18.5ZM15.6875 18.5C15.6875 18.0027 15.885 17.5258 16.2367 17.1742C16.5883 16.8225 17.0652 16.625 17.5625 16.625H33.5" stroke="#009933" stroke-width="2" stroke-linecap="round" stroke-linejoin="round"/>
<path d="M32.0938 29.2812C32.8704 29.2812 33.5 28.6517 33.5 27.875C33.5 27.0983 32.8704 26.4688 32.0938 26.4688C31.3171 26.4688 30.6875 27.0983 30.6875 27.875C30.6875 28.6517 31.3171 29.2812 32.0938 29.2812Z" fill="#009933"/>
</svg>
