<svg width="50" height="50" viewBox="0 0 50 50" fill="none" xmlns="http://www.w3.org/2000/svg">
<rect width="50" height="50" rx="25" fill="#E50000" fill-opacity="0.15"/>
<path d="M24.9997 22.1875V26.875M23.3769 14.6857L13.0672 32.4973C12.9022 32.7823 12.8152 33.1057 12.8149 33.435C12.8147 33.7644 12.9011 34.0879 13.0656 34.3732C13.2301 34.6585 13.4669 34.8954 13.752 35.0601C14.0371 35.2249 14.3606 35.3116 14.6899 35.3116H35.3094C35.6387 35.3116 35.9622 35.2249 36.2473 35.0601C36.5325 34.8954 36.7692 34.6585 36.9337 34.3732C37.0982 34.0879 37.1847 33.7644 37.1844 33.435C37.1841 33.1057 37.0971 32.7823 36.9321 32.4973L26.6224 14.6857C26.4577 14.4012 26.2211 14.1649 25.9363 14.0007C25.6514 13.8365 25.3284 13.75 24.9997 13.75C24.6709 13.75 24.3479 13.8365 24.0631 14.0007C23.7782 14.1649 23.5416 14.4012 23.3769 14.6857Z" stroke="#E50000" stroke-width="2" stroke-linecap="round" stroke-linejoin="round"/>
<path d="M25 32.5C25.7767 32.5 26.4062 31.8704 26.4062 31.0938C26.4062 30.3171 25.7767 29.6875 25 29.6875C24.2233 29.6875 23.5938 30.3171 23.5938 31.0938C23.5938 31.8704 24.2233 32.5 25 32.5Z" fill="#E50000"/>
</svg>
