<svg width="160" height="160" viewBox="0 0 160 160" fill="none" xmlns="http://www.w3.org/2000/svg">
<path d="M43.4219 115.938C43.4219 115.938 69.6563 69.9844 116.125 43.2344C89.9531 90.2812 43.4219 115.938 43.4219 115.938Z" fill="white"/>
<path d="M116.109 115.938C116.109 115.938 89.875 69.9844 43.4062 43.2344C69.5781 90.2812 116.109 115.938 116.109 115.938Z" fill="white"/>
<path d="M10 80C10 98.5652 17.375 116.37 30.5025 129.497C43.6301 142.625 61.4348 150 80 150C98.5652 150 116.37 142.625 129.497 129.497C142.625 116.37 150 98.5652 150 80C150 61.4348 142.625 43.6301 129.497 30.5025C116.37 17.375 98.5652 10 80 10C61.4348 10 43.6301 17.375 30.5025 30.5025C17.375 43.6301 10 61.4348 10 80Z" fill="#ED153F"/>
<path d="M70.1562 115.016C70.1562 117.626 71.1934 120.13 73.0394 121.976C74.8855 123.822 77.3893 124.859 80 124.859C82.6107 124.859 85.1145 123.822 86.9606 121.976C88.8066 120.13 89.8438 117.626 89.8438 115.016C89.8438 112.405 88.8066 109.901 86.9606 108.055C85.1145 106.209 82.6107 105.172 80 105.172C77.3893 105.172 74.8855 106.209 73.0394 108.055C71.1934 109.901 70.1562 112.405 70.1562 115.016Z" fill="white"/>
<path d="M80 95.5938C80 95.5938 89.8438 61.1406 89.8438 47.7344C89.8438 34.3281 85.8594 31.875 80 31.875C74.1406 31.875 70.1562 34.3438 70.1562 47.7344C70.1562 61.125 80 95.5938 80 95.5938Z" fill="white"/>
</svg>
